  0
SECTION
  2
HEADER
  9
$ANGBASE
  50
0.0
  9
$ANGDIR
  70
1
  9
$MEASUREMENT
  70
1
  0
ENDSEC
  0
SECTION
  2
TABLES
  0
TABLE
  2
LTYPE
  70
4
  0
LTYPE
  5
40F
  2
CONTINUOUS
  70
0
  3
Solid line
  72
65
  73
0
  40
0.0
  0
LTYPE
  5
410
  2
DASHDOT
 70
0
  3
Dash Dot ____ _ ____ _
 72
65
 73
4
 40
2.0
 49
1.25
 49
-0.25
 49
0.25
 49
-0.25
  0
LTYPE
  5
411
  2
DASHED
 70
0
  3
Dashed __ __ __ __ __
 72
65
 73
2
 40
0.75
 49
0.5
 49
-0.25
  0
LTYPE
  5
43B
  2
DOTTED
 70
0
  3
Dotted .  .  .  .
 72
65
 73
2
 40
0.2
 49
0.0
 49
-0.2
  0
ENDTAB
  0
TABLE
  2
STYLE
  70
4
  0
STYLE
  2
KICAD
  70
0
  40
0
  41
1
  42
1
  50
0
  71
0
  3
isocp.shx
  0
STYLE
  2
KICADB
  70
0
  40
0
  41
1
  42
1
  50
0
  71
0
  3
isocp.shx
  0
STYLE
  2
KICADI
  70
0
  40
0
  41
1
  42
1
  50
15
  71
0
  3
isocp.shx
  0
STYLE
  2
KICADBI
  70
0
  40
0
  41
1
  42
1
  50
15
  71
0
  3
isocp.shx
  0
ENDTAB
  0
TABLE
  2
LAYER
  70
1
  0
LAYER
  2
BLACK
  70
0
  62
7
  6
CONTINUOUS
  0
ENDTAB
  0
ENDSEC
  0
SECTION
  2
ENTITIES
0
LINE
8
BLACK
6
CONTINUOUS
10
109.842
20
-111.358
11
109.86
21
-111.4
0
LINE
8
BLACK
6
CONTINUOUS
10
109.86
20
-111.4
11
109.86
21
-112.9
0
LINE
8
BLACK
6
CONTINUOUS
10
109.86
20
-112.9
11
109.842
21
-112.942
0
LINE
8
BLACK
6
CONTINUOUS
10
109.842
20
-112.942
11
109.8
21
-112.96
0
LINE
8
BLACK
6
CONTINUOUS
10
109.8
20
-112.96
11
109.758
21
-112.942
0
LINE
8
BLACK
6
CONTINUOUS
10
109.758
20
-112.942
11
109.74
21
-112.9
0
LINE
8
BLACK
6
CONTINUOUS
10
109.74
20
-112.9
11
109.74
21
-111.4
0
LINE
8
BLACK
6
CONTINUOUS
10
109.74
20
-111.4
11
109.758
21
-111.358
0
LINE
8
BLACK
6
CONTINUOUS
10
109.758
20
-111.358
11
109.8
21
-111.34
0
LINE
8
BLACK
6
CONTINUOUS
10
109.8
20
-111.34
11
109.842
21
-111.358
0
LINE
8
BLACK
6
CONTINUOUS
10
98.4915
20
-111.155
11
98.4931
21
-111.155
0
LINE
8
BLACK
6
CONTINUOUS
10
98.4931
20
-111.155
11
98.6146
21
-111.196
0
LINE
8
BLACK
6
CONTINUOUS
10
98.6146
20
-111.196
11
98.6375
21
-111.208
0
LINE
8
BLACK
6
CONTINUOUS
10
98.6375
20
-111.208
11
98.6398
21
-111.212
0
LINE
8
BLACK
6
CONTINUOUS
10
98.6398
20
-111.212
11
98.6439
21
-111.214
0
LINE
8
BLACK
6
CONTINUOUS
10
98.6439
20
-111.214
11
98.7248
21
-111.295
0
LINE
8
BLACK
6
CONTINUOUS
10
98.7248
20
-111.295
11
98.7398
21
-111.316
0
LINE
8
BLACK
6
CONTINUOUS
10
98.7398
20
-111.316
11
98.7402
21
-111.32
0
LINE
8
BLACK
6
CONTINUOUS
10
98.7402
20
-111.32
11
98.7429
21
-111.324
0
LINE
8
BLACK
6
CONTINUOUS
10
98.7429
20
-111.324
11
98.7834
21
-111.445
0
LINE
8
BLACK
6
CONTINUOUS
10
98.7834
20
-111.445
11
98.7867
21
-111.468
0
LINE
8
BLACK
6
CONTINUOUS
10
98.7867
20
-111.468
11
98.7873
21
-111.469
0
LINE
8
BLACK
6
CONTINUOUS
10
98.7873
20
-111.469
11
98.7873
21
-111.55
0
LINE
8
BLACK
6
CONTINUOUS
10
98.7873
20
-111.55
11
98.7828
21
-111.576
0
LINE
8
BLACK
6
CONTINUOUS
10
98.7828
20
-111.576
11
98.7498
21
-111.615
0
LINE
8
BLACK
6
CONTINUOUS
10
98.7498
20
-111.615
11
98.6992
21
-111.624
0
LINE
8
BLACK
6
CONTINUOUS
10
98.6992
20
-111.624
11
98.6548
21
-111.598
0
LINE
8
BLACK
6
CONTINUOUS
10
98.6548
20
-111.598
11
98.6373
21
-111.55
0
LINE
8
BLACK
6
CONTINUOUS
10
98.6373
20
-111.55
11
98.6373
21
-111.481
0
LINE
8
BLACK
6
CONTINUOUS
10
98.6373
20
-111.481
11
98.6062
21
-111.388
0
LINE
8
BLACK
6
CONTINUOUS
10
98.6062
20
-111.388
11
98.5503
21
-111.332
0
LINE
8
BLACK
6
CONTINUOUS
10
98.5503
20
-111.332
11
98.4572
21
-111.301
0
LINE
8
BLACK
6
CONTINUOUS
10
98.4572
20
-111.301
11
97.8623
21
-111.301
0
LINE
8
BLACK
6
CONTINUOUS
10
97.8623
20
-111.301
11
97.8366
21
-111.297
0
LINE
8
BLACK
6
CONTINUOUS
10
97.8366
20
-111.297
11
97.7973
21
-111.264
0
LINE
8
BLACK
6
CONTINUOUS
10
97.7973
20
-111.264
11
97.7884
21
-111.213
0
LINE
8
BLACK
6
CONTINUOUS
10
97.7884
20
-111.213
11
97.8141
21
-111.169
0
LINE
8
BLACK
6
CONTINUOUS
10
97.8141
20
-111.169
11
97.8623
21
-111.151
0
LINE
8
BLACK
6
CONTINUOUS
10
97.8623
20
-111.151
11
98.4694
21
-111.151
0
LINE
8
BLACK
6
CONTINUOUS
10
98.4694
20
-111.151
11
98.4915
21
-111.155
0
LINE
8
BLACK
6
CONTINUOUS
10
110.943
20
-110.519
11
110.961
21
-110.567
0
LINE
8
BLACK
6
CONTINUOUS
10
110.961
20
-110.567
11
110.961
21
-110.695
0
LINE
8
BLACK
6
CONTINUOUS
10
110.961
20
-110.695
11
111.096
21
-110.641
0
LINE
8
BLACK
6
CONTINUOUS
10
111.096
20
-110.641
11
111.122
21
-110.635
0
LINE
8
BLACK
6
CONTINUOUS
10
111.122
20
-110.635
11
111.17
21
-110.651
0
LINE
8
BLACK
6
CONTINUOUS
10
111.17
20
-110.651
11
111.198
21
-110.695
0
LINE
8
BLACK
6
CONTINUOUS
10
111.198
20
-110.695
11
111.19
21
-110.746
0
LINE
8
BLACK
6
CONTINUOUS
10
111.19
20
-110.746
11
111.152
21
-110.78
0
LINE
8
BLACK
6
CONTINUOUS
10
111.152
20
-110.78
11
111.005
21
-110.839
0
LINE
8
BLACK
6
CONTINUOUS
10
111.005
20
-110.839
11
111.089
21
-110.951
0
LINE
8
BLACK
6
CONTINUOUS
10
111.089
20
-110.951
11
111.101
21
-110.974
0
LINE
8
BLACK
6
CONTINUOUS
10
111.101
20
-110.974
11
111.098
21
-111.025
0
LINE
8
BLACK
6
CONTINUOUS
10
111.098
20
-111.025
11
111.063
21
-111.063
0
LINE
8
BLACK
6
CONTINUOUS
10
111.063
20
-111.063
11
111.012
21
-111.069
0
LINE
8
BLACK
6
CONTINUOUS
10
111.012
20
-111.069
11
110.969
21
-111.041
0
LINE
8
BLACK
6
CONTINUOUS
10
110.969
20
-111.041
11
110.886
21
-110.93
0
LINE
8
BLACK
6
CONTINUOUS
10
110.886
20
-110.93
11
110.803
21
-111.041
0
LINE
8
BLACK
6
CONTINUOUS
10
110.803
20
-111.041
11
110.784
21
-111.059
0
LINE
8
BLACK
6
CONTINUOUS
10
110.784
20
-111.059
11
110.734
21
-111.07
0
LINE
8
BLACK
6
CONTINUOUS
10
110.734
20
-111.07
11
110.688
21
-111.047
0
LINE
8
BLACK
6
CONTINUOUS
10
110.688
20
-111.047
11
110.668
21
-111
0
LINE
8
BLACK
6
CONTINUOUS
10
110.668
20
-111
11
110.683
21
-110.951
0
LINE
8
BLACK
6
CONTINUOUS
10
110.683
20
-110.951
11
110.767
21
-110.839
0
LINE
8
BLACK
6
CONTINUOUS
10
110.767
20
-110.839
11
110.62
21
-110.78
0
LINE
8
BLACK
6
CONTINUOUS
10
110.62
20
-110.78
11
110.598
21
-110.766
0
LINE
8
BLACK
6
CONTINUOUS
10
110.598
20
-110.766
11
110.574
21
-110.721
0
LINE
8
BLACK
6
CONTINUOUS
10
110.574
20
-110.721
11
110.584
21
-110.671
0
LINE
8
BLACK
6
CONTINUOUS
10
110.584
20
-110.671
11
110.624
21
-110.639
0
LINE
8
BLACK
6
CONTINUOUS
10
110.624
20
-110.639
11
110.676
21
-110.641
0
LINE
8
BLACK
6
CONTINUOUS
10
110.676
20
-110.641
11
110.811
21
-110.695
0
LINE
8
BLACK
6
CONTINUOUS
10
110.811
20
-110.695
11
110.811
21
-110.567
0
LINE
8
BLACK
6
CONTINUOUS
10
110.811
20
-110.567
11
110.816
21
-110.542
0
LINE
8
BLACK
6
CONTINUOUS
10
110.816
20
-110.542
11
110.849
21
-110.502
0
LINE
8
BLACK
6
CONTINUOUS
10
110.849
20
-110.502
11
110.899
21
-110.494
0
LINE
8
BLACK
6
CONTINUOUS
10
110.899
20
-110.494
11
110.943
21
-110.519
0
LINE
8
BLACK
6
CONTINUOUS
10
98.7697
20
-110.368
11
98.7873
21
-110.417
0
LINE
8
BLACK
6
CONTINUOUS
10
98.7873
20
-110.417
11
98.7873
21
-110.821
0
LINE
8
BLACK
6
CONTINUOUS
10
98.7873
20
-110.821
11
98.7856
21
-110.831
0
LINE
8
BLACK
6
CONTINUOUS
10
98.7856
20
-110.831
11
98.7861
21
-110.834
0
LINE
8
BLACK
6
CONTINUOUS
10
98.7861
20
-110.834
11
98.7845
21
-110.837
0
LINE
8
BLACK
6
CONTINUOUS
10
98.7845
20
-110.837
11
98.7828
21
-110.847
0
LINE
8
BLACK
6
CONTINUOUS
10
98.7828
20
-110.847
11
98.7702
21
-110.862
0
LINE
8
BLACK
6
CONTINUOUS
10
98.7702
20
-110.862
11
98.7605
21
-110.879
0
LINE
8
BLACK
6
CONTINUOUS
10
98.7605
20
-110.879
11
98.7541
21
-110.881
0
LINE
8
BLACK
6
CONTINUOUS
10
98.7541
20
-110.881
11
98.7498
21
-110.886
0
LINE
8
BLACK
6
CONTINUOUS
10
98.7498
20
-110.886
11
98.7306
21
-110.89
0
LINE
8
BLACK
6
CONTINUOUS
10
98.7306
20
-110.89
11
98.7123
21
-110.896
0
LINE
8
BLACK
6
CONTINUOUS
10
98.7123
20
-110.896
11
97.8623
21
-110.896
0
LINE
8
BLACK
6
CONTINUOUS
10
97.8623
20
-110.896
11
97.8366
21
-110.892
0
LINE
8
BLACK
6
CONTINUOUS
10
97.8366
20
-110.892
11
97.7973
21
-110.859
0
LINE
8
BLACK
6
CONTINUOUS
10
97.7973
20
-110.859
11
97.7884
21
-110.808
0
LINE
8
BLACK
6
CONTINUOUS
10
97.7884
20
-110.808
11
97.8141
21
-110.764
0
LINE
8
BLACK
6
CONTINUOUS
10
97.8141
20
-110.764
11
97.8623
21
-110.746
0
LINE
8
BLACK
6
CONTINUOUS
10
97.8623
20
-110.746
11
98.6373
21
-110.746
0
LINE
8
BLACK
6
CONTINUOUS
10
98.6373
20
-110.746
11
98.6373
21
-110.417
0
LINE
8
BLACK
6
CONTINUOUS
10
98.6373
20
-110.417
11
98.6418
21
-110.391
0
LINE
8
BLACK
6
CONTINUOUS
10
98.6418
20
-110.391
11
98.6748
21
-110.352
0
LINE
8
BLACK
6
CONTINUOUS
10
98.6748
20
-110.352
11
98.7253
21
-110.343
0
LINE
8
BLACK
6
CONTINUOUS
10
98.7253
20
-110.343
11
98.7697
21
-110.368
0
LINE
8
BLACK
6
CONTINUOUS
10
98.6844
20
-109.595
11
98.7248
21
-109.635
0
LINE
8
BLACK
6
CONTINUOUS
10
98.7248
20
-109.635
11
98.7398
21
-109.656
0
LINE
8
BLACK
6
CONTINUOUS
10
98.7398
20
-109.656
11
98.7402
21
-109.661
0
LINE
8
BLACK
6
CONTINUOUS
10
98.7402
20
-109.661
11
98.7429
21
-109.664
0
LINE
8
BLACK
6
CONTINUOUS
10
98.7429
20
-109.664
11
98.7834
21
-109.786
0
LINE
8
BLACK
6
CONTINUOUS
10
98.7834
20
-109.786
11
98.7867
21
-109.808
0
LINE
8
BLACK
6
CONTINUOUS
10
98.7867
20
-109.808
11
98.7873
21
-109.81
0
LINE
8
BLACK
6
CONTINUOUS
10
98.7873
20
-109.81
11
98.7873
21
-109.89
0
LINE
8
BLACK
6
CONTINUOUS
10
98.7873
20
-109.89
11
98.7834
21
-109.913
0
LINE
8
BLACK
6
CONTINUOUS
10
98.7834
20
-109.913
11
98.7834
21
-109.914
0
LINE
8
BLACK
6
CONTINUOUS
10
98.7834
20
-109.914
11
98.7429
21
-110.036
0
LINE
8
BLACK
6
CONTINUOUS
10
98.7429
20
-110.036
11
98.7305
21
-110.059
0
LINE
8
BLACK
6
CONTINUOUS
10
98.7305
20
-110.059
11
98.7267
21
-110.061
0
LINE
8
BLACK
6
CONTINUOUS
10
98.7267
20
-110.061
11
98.7248
21
-110.065
0
LINE
8
BLACK
6
CONTINUOUS
10
98.7248
20
-110.065
11
98.6439
21
-110.146
0
LINE
8
BLACK
6
CONTINUOUS
10
98.6439
20
-110.146
11
98.6255
21
-110.159
0
LINE
8
BLACK
6
CONTINUOUS
10
98.6255
20
-110.159
11
98.6244
21
-110.16
0
LINE
8
BLACK
6
CONTINUOUS
10
98.6244
20
-110.16
11
98.5434
21
-110.2
0
LINE
8
BLACK
6
CONTINUOUS
10
98.5434
20
-110.2
11
98.531
21
-110.204
0
LINE
8
BLACK
6
CONTINUOUS
10
98.531
20
-110.204
11
98.5281
21
-110.206
0
LINE
8
BLACK
6
CONTINUOUS
10
98.5281
20
-110.206
11
98.3662
21
-110.247
0
LINE
8
BLACK
6
CONTINUOUS
10
98.3662
20
-110.247
11
98.3512
21
-110.248
0
LINE
8
BLACK
6
CONTINUOUS
10
98.3512
20
-110.248
11
98.348
21
-110.249
0
LINE
8
BLACK
6
CONTINUOUS
10
98.348
20
-110.249
11
98.2266
21
-110.249
0
LINE
8
BLACK
6
CONTINUOUS
10
98.2266
20
-110.249
11
98.2118
21
-110.246
0
LINE
8
BLACK
6
CONTINUOUS
10
98.2118
20
-110.246
11
98.2084
21
-110.247
0
LINE
8
BLACK
6
CONTINUOUS
10
98.2084
20
-110.247
11
98.0465
21
-110.206
0
LINE
8
BLACK
6
CONTINUOUS
10
98.0465
20
-110.206
11
98.0346
21
-110.201
0
LINE
8
BLACK
6
CONTINUOUS
10
98.0346
20
-110.201
11
98.0311
21
-110.2
0
LINE
8
BLACK
6
CONTINUOUS
10
98.0311
20
-110.2
11
97.9502
21
-110.16
0
LINE
8
BLACK
6
CONTINUOUS
10
97.9502
20
-110.16
11
97.9322
21
-110.147
0
LINE
8
BLACK
6
CONTINUOUS
10
97.9322
20
-110.147
11
97.9307
21
-110.146
0
LINE
8
BLACK
6
CONTINUOUS
10
97.9307
20
-110.146
11
97.8497
21
-110.065
0
LINE
8
BLACK
6
CONTINUOUS
10
97.8497
20
-110.065
11
97.8348
21
-110.044
0
LINE
8
BLACK
6
CONTINUOUS
10
97.8348
20
-110.044
11
97.8344
21
-110.039
0
LINE
8
BLACK
6
CONTINUOUS
10
97.8344
20
-110.039
11
97.8316
21
-110.036
0
LINE
8
BLACK
6
CONTINUOUS
10
97.8316
20
-110.036
11
97.7911
21
-109.914
0
LINE
8
BLACK
6
CONTINUOUS
10
97.7911
20
-109.914
11
97.7878
21
-109.892
0
LINE
8
BLACK
6
CONTINUOUS
10
97.7878
20
-109.892
11
97.7873
21
-109.89
0
LINE
8
BLACK
6
CONTINUOUS
10
97.7873
20
-109.89
11
97.7873
21
-109.81
0
LINE
8
BLACK
6
CONTINUOUS
10
97.7873
20
-109.81
11
97.7912
21
-109.787
0
LINE
8
BLACK
6
CONTINUOUS
10
97.7912
20
-109.787
11
97.7911
21
-109.786
0
LINE
8
BLACK
6
CONTINUOUS
10
97.7911
20
-109.786
11
97.8316
21
-109.664
0
LINE
8
BLACK
6
CONTINUOUS
10
97.8316
20
-109.664
11
97.844
21
-109.641
0
LINE
8
BLACK
6
CONTINUOUS
10
97.844
20
-109.641
11
97.8478
21
-109.639
0
LINE
8
BLACK
6
CONTINUOUS
10
97.8478
20
-109.639
11
97.8497
21
-109.635
0
LINE
8
BLACK
6
CONTINUOUS
10
97.8497
20
-109.635
11
97.8902
21
-109.595
0
LINE
8
BLACK
6
CONTINUOUS
10
97.8902
20
-109.595
11
97.9115
21
-109.58
0
LINE
8
BLACK
6
CONTINUOUS
10
97.9115
20
-109.58
11
97.9626
21
-109.575
0
LINE
8
BLACK
6
CONTINUOUS
10
97.9626
20
-109.575
11
98.0047
21
-109.605
0
LINE
8
BLACK
6
CONTINUOUS
10
98.0047
20
-109.605
11
98.0179
21
-109.654
0
LINE
8
BLACK
6
CONTINUOUS
10
98.0179
20
-109.654
11
97.9963
21
-109.701
0
LINE
8
BLACK
6
CONTINUOUS
10
97.9963
20
-109.701
11
97.9683
21
-109.729
0
LINE
8
BLACK
6
CONTINUOUS
10
97.9683
20
-109.729
11
97.9373
21
-109.822
0
LINE
8
BLACK
6
CONTINUOUS
10
97.9373
20
-109.822
11
97.9373
21
-109.878
0
LINE
8
BLACK
6
CONTINUOUS
10
97.9373
20
-109.878
11
97.9683
21
-109.971
0
LINE
8
BLACK
6
CONTINUOUS
10
97.9683
20
-109.971
11
98.0281
21
-110.031
0
LINE
8
BLACK
6
CONTINUOUS
10
98.0281
20
-110.031
11
98.0908
21
-110.063
0
LINE
8
BLACK
6
CONTINUOUS
10
98.0908
20
-110.063
11
98.2358
21
-110.099
0
LINE
8
BLACK
6
CONTINUOUS
10
98.2358
20
-110.099
11
98.3388
21
-110.099
0
LINE
8
BLACK
6
CONTINUOUS
10
98.3388
20
-110.099
11
98.4837
21
-110.063
0
LINE
8
BLACK
6
CONTINUOUS
10
98.4837
20
-110.063
11
98.5464
21
-110.031
0
LINE
8
BLACK
6
CONTINUOUS
10
98.5464
20
-110.031
11
98.6062
21
-109.971
0
LINE
8
BLACK
6
CONTINUOUS
10
98.6062
20
-109.971
11
98.6373
21
-109.878
0
LINE
8
BLACK
6
CONTINUOUS
10
98.6373
20
-109.878
11
98.6373
21
-109.822
0
LINE
8
BLACK
6
CONTINUOUS
10
98.6373
20
-109.822
11
98.6062
21
-109.729
0
LINE
8
BLACK
6
CONTINUOUS
10
98.6062
20
-109.729
11
98.5783
21
-109.701
0
LINE
8
BLACK
6
CONTINUOUS
10
98.5783
20
-109.701
11
98.5633
21
-109.679
0
LINE
8
BLACK
6
CONTINUOUS
10
98.5633
20
-109.679
11
98.5589
21
-109.628
0
LINE
8
BLACK
6
CONTINUOUS
10
98.5589
20
-109.628
11
98.5883
21
-109.586
0
LINE
8
BLACK
6
CONTINUOUS
10
98.5883
20
-109.586
11
98.6379
21
-109.573
0
LINE
8
BLACK
6
CONTINUOUS
10
98.6379
20
-109.573
11
98.6844
21
-109.595
0
LINE
8
BLACK
6
CONTINUOUS
10
98.4915
20
-108.969
11
98.4931
21
-108.969
0
LINE
8
BLACK
6
CONTINUOUS
10
98.4931
20
-108.969
11
98.6146
21
-109.01
0
LINE
8
BLACK
6
CONTINUOUS
10
98.6146
20
-109.01
11
98.6375
21
-109.022
0
LINE
8
BLACK
6
CONTINUOUS
10
98.6375
20
-109.022
11
98.6398
21
-109.026
0
LINE
8
BLACK
6
CONTINUOUS
10
98.6398
20
-109.026
11
98.6439
21
-109.028
0
LINE
8
BLACK
6
CONTINUOUS
10
98.6439
20
-109.028
11
98.7248
21
-109.109
0
LINE
8
BLACK
6
CONTINUOUS
10
98.7248
20
-109.109
11
98.7398
21
-109.13
0
LINE
8
BLACK
6
CONTINUOUS
10
98.7398
20
-109.13
11
98.7402
21
-109.135
0
LINE
8
BLACK
6
CONTINUOUS
10
98.7402
20
-109.135
11
98.7429
21
-109.138
0
LINE
8
BLACK
6
CONTINUOUS
10
98.7429
20
-109.138
11
98.7834
21
-109.26
0
LINE
8
BLACK
6
CONTINUOUS
10
98.7834
20
-109.26
11
98.7867
21
-109.282
0
LINE
8
BLACK
6
CONTINUOUS
10
98.7867
20
-109.282
11
98.7873
21
-109.283
0
LINE
8
BLACK
6
CONTINUOUS
10
98.7873
20
-109.283
11
98.7873
21
-109.364
0
LINE
8
BLACK
6
CONTINUOUS
10
98.7873
20
-109.364
11
98.7828
21
-109.39
0
LINE
8
BLACK
6
CONTINUOUS
10
98.7828
20
-109.39
11
98.7498
21
-109.429
0
LINE
8
BLACK
6
CONTINUOUS
10
98.7498
20
-109.429
11
98.6992
21
-109.438
0
LINE
8
BLACK
6
CONTINUOUS
10
98.6992
20
-109.438
11
98.6548
21
-109.412
0
LINE
8
BLACK
6
CONTINUOUS
10
98.6548
20
-109.412
11
98.6373
21
-109.364
0
LINE
8
BLACK
6
CONTINUOUS
10
98.6373
20
-109.364
11
98.6373
21
-109.296
0
LINE
8
BLACK
6
CONTINUOUS
10
98.6373
20
-109.296
11
98.6062
21
-109.202
0
LINE
8
BLACK
6
CONTINUOUS
10
98.6062
20
-109.202
11
98.5503
21
-109.147
0
LINE
8
BLACK
6
CONTINUOUS
10
98.5503
20
-109.147
11
98.4572
21
-109.115
0
LINE
8
BLACK
6
CONTINUOUS
10
98.4572
20
-109.115
11
97.8623
21
-109.115
0
LINE
8
BLACK
6
CONTINUOUS
10
97.8623
20
-109.115
11
97.8366
21
-109.111
0
LINE
8
BLACK
6
CONTINUOUS
10
97.8366
20
-109.111
11
97.7973
21
-109.078
0
LINE
8
BLACK
6
CONTINUOUS
10
97.7973
20
-109.078
11
97.7884
21
-109.027
0
LINE
8
BLACK
6
CONTINUOUS
10
97.7884
20
-109.027
11
97.8141
21
-108.983
0
LINE
8
BLACK
6
CONTINUOUS
10
97.8141
20
-108.983
11
97.8623
21
-108.965
0
LINE
8
BLACK
6
CONTINUOUS
10
97.8623
20
-108.965
11
98.4694
21
-108.965
0
LINE
8
BLACK
6
CONTINUOUS
10
98.4694
20
-108.965
11
98.4915
21
-108.969
0
LINE
8
BLACK
6
CONTINUOUS
10
98.7697
20
-108.183
11
98.7873
21
-108.231
0
LINE
8
BLACK
6
CONTINUOUS
10
98.7873
20
-108.231
11
98.7873
21
-108.636
0
LINE
8
BLACK
6
CONTINUOUS
10
98.7873
20
-108.636
11
98.7856
21
-108.645
0
LINE
8
BLACK
6
CONTINUOUS
10
98.7856
20
-108.645
11
98.7861
21
-108.649
0
LINE
8
BLACK
6
CONTINUOUS
10
98.7861
20
-108.649
11
98.7845
21
-108.652
0
LINE
8
BLACK
6
CONTINUOUS
10
98.7845
20
-108.652
11
98.7828
21
-108.661
0
LINE
8
BLACK
6
CONTINUOUS
10
98.7828
20
-108.661
11
98.7702
21
-108.676
0
LINE
8
BLACK
6
CONTINUOUS
10
98.7702
20
-108.676
11
98.7605
21
-108.693
0
LINE
8
BLACK
6
CONTINUOUS
10
98.7605
20
-108.693
11
98.7541
21
-108.695
0
LINE
8
BLACK
6
CONTINUOUS
10
98.7541
20
-108.695
11
98.7498
21
-108.701
0
LINE
8
BLACK
6
CONTINUOUS
10
98.7498
20
-108.701
11
98.7306
21
-108.704
0
LINE
8
BLACK
6
CONTINUOUS
10
98.7306
20
-108.704
11
98.7123
21
-108.711
0
LINE
8
BLACK
6
CONTINUOUS
10
98.7123
20
-108.711
11
97.8623
21
-108.711
0
LINE
8
BLACK
6
CONTINUOUS
10
97.8623
20
-108.711
11
97.8366
21
-108.706
0
LINE
8
BLACK
6
CONTINUOUS
10
97.8366
20
-108.706
11
97.7973
21
-108.673
0
LINE
8
BLACK
6
CONTINUOUS
10
97.7973
20
-108.673
11
97.7884
21
-108.623
0
LINE
8
BLACK
6
CONTINUOUS
10
97.7884
20
-108.623
11
97.8141
21
-108.578
0
LINE
8
BLACK
6
CONTINUOUS
10
97.8141
20
-108.578
11
97.8623
21
-108.561
0
LINE
8
BLACK
6
CONTINUOUS
10
97.8623
20
-108.561
11
98.6373
21
-108.561
0
LINE
8
BLACK
6
CONTINUOUS
10
98.6373
20
-108.561
11
98.6373
21
-108.231
0
LINE
8
BLACK
6
CONTINUOUS
10
98.6373
20
-108.231
11
98.6418
21
-108.205
0
LINE
8
BLACK
6
CONTINUOUS
10
98.6418
20
-108.205
11
98.6748
21
-108.166
0
LINE
8
BLACK
6
CONTINUOUS
10
98.6748
20
-108.166
11
98.7253
21
-108.157
0
LINE
8
BLACK
6
CONTINUOUS
10
98.7253
20
-108.157
11
98.7697
21
-108.183
0
LINE
8
BLACK
6
CONTINUOUS
10
98.6844
20
-107.409
11
98.7248
21
-107.449
0
LINE
8
BLACK
6
CONTINUOUS
10
98.7248
20
-107.449
11
98.7398
21
-107.471
0
LINE
8
BLACK
6
CONTINUOUS
10
98.7398
20
-107.471
11
98.7402
21
-107.475
0
LINE
8
BLACK
6
CONTINUOUS
10
98.7402
20
-107.475
11
98.7429
21
-107.479
0
LINE
8
BLACK
6
CONTINUOUS
10
98.7429
20
-107.479
11
98.7834
21
-107.6
0
LINE
8
BLACK
6
CONTINUOUS
10
98.7834
20
-107.6
11
98.7867
21
-107.622
0
LINE
8
BLACK
6
CONTINUOUS
10
98.7867
20
-107.622
11
98.7873
21
-107.624
0
LINE
8
BLACK
6
CONTINUOUS
10
98.7873
20
-107.624
11
98.7873
21
-107.705
0
LINE
8
BLACK
6
CONTINUOUS
10
98.7873
20
-107.705
11
98.7834
21
-107.727
0
LINE
8
BLACK
6
CONTINUOUS
10
98.7834
20
-107.727
11
98.7834
21
-107.728
0
LINE
8
BLACK
6
CONTINUOUS
10
98.7834
20
-107.728
11
98.7429
21
-107.85
0
LINE
8
BLACK
6
CONTINUOUS
10
98.7429
20
-107.85
11
98.7305
21
-107.873
0
LINE
8
BLACK
6
CONTINUOUS
10
98.7305
20
-107.873
11
98.7267
21
-107.875
0
LINE
8
BLACK
6
CONTINUOUS
10
98.7267
20
-107.875
11
98.7248
21
-107.879
0
LINE
8
BLACK
6
CONTINUOUS
10
98.7248
20
-107.879
11
98.6439
21
-107.96
0
LINE
8
BLACK
6
CONTINUOUS
10
98.6439
20
-107.96
11
98.6255
21
-107.973
0
LINE
8
BLACK
6
CONTINUOUS
10
98.6255
20
-107.973
11
98.6244
21
-107.974
0
LINE
8
BLACK
6
CONTINUOUS
10
98.6244
20
-107.974
11
98.5434
21
-108.015
0
LINE
8
BLACK
6
CONTINUOUS
10
98.5434
20
-108.015
11
98.531
21
-108.018
0
LINE
8
BLACK
6
CONTINUOUS
10
98.531
20
-108.018
11
98.5281
21
-108.02
0
LINE
8
BLACK
6
CONTINUOUS
10
98.5281
20
-108.02
11
98.3662
21
-108.061
0
LINE
8
BLACK
6
CONTINUOUS
10
98.3662
20
-108.061
11
98.3512
21
-108.062
0
LINE
8
BLACK
6
CONTINUOUS
10
98.3512
20
-108.062
11
98.348
21
-108.063
0
LINE
8
BLACK
6
CONTINUOUS
10
98.348
20
-108.063
11
98.2266
21
-108.063
0
LINE
8
BLACK
6
CONTINUOUS
10
98.2266
20
-108.063
11
98.2118
21
-108.06
0
LINE
8
BLACK
6
CONTINUOUS
10
98.2118
20
-108.06
11
98.2084
21
-108.061
0
LINE
8
BLACK
6
CONTINUOUS
10
98.2084
20
-108.061
11
98.0465
21
-108.02
0
LINE
8
BLACK
6
CONTINUOUS
10
98.0465
20
-108.02
11
98.0346
21
-108.015
0
LINE
8
BLACK
6
CONTINUOUS
10
98.0346
20
-108.015
11
98.0311
21
-108.015
0
LINE
8
BLACK
6
CONTINUOUS
10
98.0311
20
-108.015
11
97.9502
21
-107.974
0
LINE
8
BLACK
6
CONTINUOUS
10
97.9502
20
-107.974
11
97.9322
21
-107.961
0
LINE
8
BLACK
6
CONTINUOUS
10
97.9322
20
-107.961
11
97.9307
21
-107.96
0
LINE
8
BLACK
6
CONTINUOUS
10
97.9307
20
-107.96
11
97.8497
21
-107.879
0
LINE
8
BLACK
6
CONTINUOUS
10
97.8497
20
-107.879
11
97.8348
21
-107.858
0
LINE
8
BLACK
6
CONTINUOUS
10
97.8348
20
-107.858
11
97.8344
21
-107.853
0
LINE
8
BLACK
6
CONTINUOUS
10
97.8344
20
-107.853
11
97.8316
21
-107.85
0
LINE
8
BLACK
6
CONTINUOUS
10
97.8316
20
-107.85
11
97.7911
21
-107.728
0
LINE
8
BLACK
6
CONTINUOUS
10
97.7911
20
-107.728
11
97.7878
21
-107.706
0
LINE
8
BLACK
6
CONTINUOUS
10
97.7878
20
-107.706
11
97.7873
21
-107.705
0
LINE
8
BLACK
6
CONTINUOUS
10
97.7873
20
-107.705
11
97.7873
21
-107.624
0
LINE
8
BLACK
6
CONTINUOUS
10
97.7873
20
-107.624
11
97.7912
21
-107.602
0
LINE
8
BLACK
6
CONTINUOUS
10
97.7912
20
-107.602
11
97.7911
21
-107.6
0
LINE
8
BLACK
6
CONTINUOUS
10
97.7911
20
-107.6
11
97.8316
21
-107.479
0
LINE
8
BLACK
6
CONTINUOUS
10
97.8316
20
-107.479
11
97.844
21
-107.456
0
LINE
8
BLACK
6
CONTINUOUS
10
97.844
20
-107.456
11
97.8478
21
-107.453
0
LINE
8
BLACK
6
CONTINUOUS
10
97.8478
20
-107.453
11
97.8497
21
-107.449
0
LINE
8
BLACK
6
CONTINUOUS
10
97.8497
20
-107.449
11
97.8902
21
-107.409
0
LINE
8
BLACK
6
CONTINUOUS
10
97.8902
20
-107.409
11
97.9115
21
-107.394
0
LINE
8
BLACK
6
CONTINUOUS
10
97.9115
20
-107.394
11
97.9626
21
-107.389
0
LINE
8
BLACK
6
CONTINUOUS
10
97.9626
20
-107.389
11
98.0047
21
-107.419
0
LINE
8
BLACK
6
CONTINUOUS
10
98.0047
20
-107.419
11
98.0179
21
-107.468
0
LINE
8
BLACK
6
CONTINUOUS
10
98.0179
20
-107.468
11
97.9963
21
-107.515
0
LINE
8
BLACK
6
CONTINUOUS
10
97.9963
20
-107.515
11
97.9683
21
-107.543
0
LINE
8
BLACK
6
CONTINUOUS
10
97.9683
20
-107.543
11
97.9373
21
-107.636
0
LINE
8
BLACK
6
CONTINUOUS
10
97.9373
20
-107.636
11
97.9373
21
-107.693
0
LINE
8
BLACK
6
CONTINUOUS
10
97.9373
20
-107.693
11
97.9683
21
-107.786
0
LINE
8
BLACK
6
CONTINUOUS
10
97.9683
20
-107.786
11
98.0281
21
-107.846
0
LINE
8
BLACK
6
CONTINUOUS
10
98.0281
20
-107.846
11
98.0908
21
-107.877
0
LINE
8
BLACK
6
CONTINUOUS
10
98.0908
20
-107.877
11
98.2358
21
-107.913
0
LINE
8
BLACK
6
CONTINUOUS
10
98.2358
20
-107.913
11
98.3388
21
-107.913
0
LINE
8
BLACK
6
CONTINUOUS
10
98.3388
20
-107.913
11
98.4837
21
-107.877
0
LINE
8
BLACK
6
CONTINUOUS
10
98.4837
20
-107.877
11
98.5464
21
-107.846
0
LINE
8
BLACK
6
CONTINUOUS
10
98.5464
20
-107.846
11
98.6062
21
-107.786
0
LINE
8
BLACK
6
CONTINUOUS
10
98.6062
20
-107.786
11
98.6373
21
-107.693
0
LINE
8
BLACK
6
CONTINUOUS
10
98.6373
20
-107.693
11
98.6373
21
-107.636
0
LINE
8
BLACK
6
CONTINUOUS
10
98.6373
20
-107.636
11
98.6062
21
-107.543
0
LINE
8
BLACK
6
CONTINUOUS
10
98.6062
20
-107.543
11
98.5783
21
-107.515
0
LINE
8
BLACK
6
CONTINUOUS
10
98.5783
20
-107.515
11
98.5633
21
-107.494
0
LINE
8
BLACK
6
CONTINUOUS
10
98.5633
20
-107.494
11
98.5589
21
-107.442
0
LINE
8
BLACK
6
CONTINUOUS
10
98.5589
20
-107.442
11
98.5883
21
-107.4
0
LINE
8
BLACK
6
CONTINUOUS
10
98.5883
20
-107.4
11
98.6379
21
-107.387
0
LINE
8
BLACK
6
CONTINUOUS
10
98.6379
20
-107.387
11
98.6844
21
-107.409
0
LINE
8
BLACK
6
CONTINUOUS
10
98.4915
20
-106.784
11
98.4931
21
-106.784
0
LINE
8
BLACK
6
CONTINUOUS
10
98.4931
20
-106.784
11
98.6146
21
-106.824
0
LINE
8
BLACK
6
CONTINUOUS
10
98.6146
20
-106.824
11
98.6375
21
-106.836
0
LINE
8
BLACK
6
CONTINUOUS
10
98.6375
20
-106.836
11
98.6398
21
-106.84
0
LINE
8
BLACK
6
CONTINUOUS
10
98.6398
20
-106.84
11
98.6439
21
-106.842
0
LINE
8
BLACK
6
CONTINUOUS
10
98.6439
20
-106.842
11
98.7248
21
-106.923
0
LINE
8
BLACK
6
CONTINUOUS
10
98.7248
20
-106.923
11
98.7398
21
-106.944
0
LINE
8
BLACK
6
CONTINUOUS
10
98.7398
20
-106.944
11
98.7402
21
-106.949
0
LINE
8
BLACK
6
CONTINUOUS
10
98.7402
20
-106.949
11
98.7429
21
-106.952
0
LINE
8
BLACK
6
CONTINUOUS
10
98.7429
20
-106.952
11
98.7834
21
-107.074
0
LINE
8
BLACK
6
CONTINUOUS
10
98.7834
20
-107.074
11
98.7867
21
-107.096
0
LINE
8
BLACK
6
CONTINUOUS
10
98.7867
20
-107.096
11
98.7873
21
-107.098
0
LINE
8
BLACK
6
CONTINUOUS
10
98.7873
20
-107.098
11
98.7873
21
-107.179
0
LINE
8
BLACK
6
CONTINUOUS
10
98.7873
20
-107.179
11
98.7828
21
-107.204
0
LINE
8
BLACK
6
CONTINUOUS
10
98.7828
20
-107.204
11
98.7498
21
-107.244
0
LINE
8
BLACK
6
CONTINUOUS
10
98.7498
20
-107.244
11
98.6992
21
-107.252
0
LINE
8
BLACK
6
CONTINUOUS
10
98.6992
20
-107.252
11
98.6548
21
-107.227
0
LINE
8
BLACK
6
CONTINUOUS
10
98.6548
20
-107.227
11
98.6373
21
-107.179
0
LINE
8
BLACK
6
CONTINUOUS
10
98.6373
20
-107.179
11
98.6373
21
-107.11
0
LINE
8
BLACK
6
CONTINUOUS
10
98.6373
20
-107.11
11
98.6062
21
-107.017
0
LINE
8
BLACK
6
CONTINUOUS
10
98.6062
20
-107.017
11
98.5503
21
-106.961
0
LINE
8
BLACK
6
CONTINUOUS
10
98.5503
20
-106.961
11
98.4572
21
-106.93
0
LINE
8
BLACK
6
CONTINUOUS
10
98.4572
20
-106.93
11
97.8623
21
-106.93
0
LINE
8
BLACK
6
CONTINUOUS
10
97.8623
20
-106.93
11
97.8366
21
-106.925
0
LINE
8
BLACK
6
CONTINUOUS
10
97.8366
20
-106.925
11
97.7973
21
-106.892
0
LINE
8
BLACK
6
CONTINUOUS
10
97.7973
20
-106.892
11
97.7884
21
-106.842
0
LINE
8
BLACK
6
CONTINUOUS
10
97.7884
20
-106.842
11
97.8141
21
-106.797
0
LINE
8
BLACK
6
CONTINUOUS
10
97.8141
20
-106.797
11
97.8623
21
-106.78
0
LINE
8
BLACK
6
CONTINUOUS
10
97.8623
20
-106.78
11
98.4694
21
-106.78
0
LINE
8
BLACK
6
CONTINUOUS
10
98.4694
20
-106.78
11
98.4915
21
-106.784
0
LINE
8
BLACK
6
CONTINUOUS
10
98.7697
20
-105.997
11
98.7873
21
-106.045
0
LINE
8
BLACK
6
CONTINUOUS
10
98.7873
20
-106.045
11
98.7873
21
-106.45
0
LINE
8
BLACK
6
CONTINUOUS
10
98.7873
20
-106.45
11
98.7856
21
-106.46
0
LINE
8
BLACK
6
CONTINUOUS
10
98.7856
20
-106.46
11
98.7861
21
-106.463
0
LINE
8
BLACK
6
CONTINUOUS
10
98.7861
20
-106.463
11
98.7845
21
-106.466
0
LINE
8
BLACK
6
CONTINUOUS
10
98.7845
20
-106.466
11
98.7828
21
-106.476
0
LINE
8
BLACK
6
CONTINUOUS
10
98.7828
20
-106.476
11
98.7702
21
-106.491
0
LINE
8
BLACK
6
CONTINUOUS
10
98.7702
20
-106.491
11
98.7605
21
-106.507
0
LINE
8
BLACK
6
CONTINUOUS
10
98.7605
20
-106.507
11
98.7541
21
-106.51
0
LINE
8
BLACK
6
CONTINUOUS
10
98.7541
20
-106.51
11
98.7498
21
-106.515
0
LINE
8
BLACK
6
CONTINUOUS
10
98.7498
20
-106.515
11
98.7306
21
-106.518
0
LINE
8
BLACK
6
CONTINUOUS
10
98.7306
20
-106.518
11
98.7123
21
-106.525
0
LINE
8
BLACK
6
CONTINUOUS
10
98.7123
20
-106.525
11
97.8623
21
-106.525
0
LINE
8
BLACK
6
CONTINUOUS
10
97.8623
20
-106.525
11
97.8366
21
-106.52
0
LINE
8
BLACK
6
CONTINUOUS
10
97.8366
20
-106.52
11
97.7973
21
-106.487
0
LINE
8
BLACK
6
CONTINUOUS
10
97.7973
20
-106.487
11
97.7884
21
-106.437
0
LINE
8
BLACK
6
CONTINUOUS
10
97.7884
20
-106.437
11
97.8141
21
-106.393
0
LINE
8
BLACK
6
CONTINUOUS
10
97.8141
20
-106.393
11
97.8623
21
-106.375
0
LINE
8
BLACK
6
CONTINUOUS
10
97.8623
20
-106.375
11
98.6373
21
-106.375
0
LINE
8
BLACK
6
CONTINUOUS
10
98.6373
20
-106.375
11
98.6373
21
-106.045
0
LINE
8
BLACK
6
CONTINUOUS
10
98.6373
20
-106.045
11
98.6418
21
-106.02
0
LINE
8
BLACK
6
CONTINUOUS
10
98.6418
20
-106.02
11
98.6748
21
-105.98
0
LINE
8
BLACK
6
CONTINUOUS
10
98.6748
20
-105.98
11
98.7253
21
-105.971
0
LINE
8
BLACK
6
CONTINUOUS
10
98.7253
20
-105.971
11
98.7697
21
-105.997
0
LINE
8
BLACK
6
CONTINUOUS
10
98.6844
20
-105.223
11
98.7248
21
-105.264
0
LINE
8
BLACK
6
CONTINUOUS
10
98.7248
20
-105.264
11
98.7398
21
-105.285
0
LINE
8
BLACK
6
CONTINUOUS
10
98.7398
20
-105.285
11
98.7402
21
-105.289
0
LINE
8
BLACK
6
CONTINUOUS
10
98.7402
20
-105.289
11
98.7429
21
-105.293
0
LINE
8
BLACK
6
CONTINUOUS
10
98.7429
20
-105.293
11
98.7834
21
-105.414
0
LINE
8
BLACK
6
CONTINUOUS
10
98.7834
20
-105.414
11
98.7867
21
-105.437
0
LINE
8
BLACK
6
CONTINUOUS
10
98.7867
20
-105.437
11
98.7873
21
-105.438
0
LINE
8
BLACK
6
CONTINUOUS
10
98.7873
20
-105.438
11
98.7873
21
-105.519
0
LINE
8
BLACK
6
CONTINUOUS
10
98.7873
20
-105.519
11
98.7834
21
-105.541
0
LINE
8
BLACK
6
CONTINUOUS
10
98.7834
20
-105.541
11
98.7834
21
-105.543
0
LINE
8
BLACK
6
CONTINUOUS
10
98.7834
20
-105.543
11
98.7429
21
-105.664
0
LINE
8
BLACK
6
CONTINUOUS
10
98.7429
20
-105.664
11
98.7305
21
-105.687
0
LINE
8
BLACK
6
CONTINUOUS
10
98.7305
20
-105.687
11
98.7267
21
-105.689
0
LINE
8
BLACK
6
CONTINUOUS
10
98.7267
20
-105.689
11
98.7248
21
-105.694
0
LINE
8
BLACK
6
CONTINUOUS
10
98.7248
20
-105.694
11
98.6439
21
-105.774
0
LINE
8
BLACK
6
CONTINUOUS
10
98.6439
20
-105.774
11
98.6255
21
-105.787
0
LINE
8
BLACK
6
CONTINUOUS
10
98.6255
20
-105.787
11
98.6244
21
-105.789
0
LINE
8
BLACK
6
CONTINUOUS
10
98.6244
20
-105.789
11
98.5434
21
-105.829
0
LINE
8
BLACK
6
CONTINUOUS
10
98.5434
20
-105.829
11
98.531
21
-105.833
0
LINE
8
BLACK
6
CONTINUOUS
10
98.531
20
-105.833
11
98.5281
21
-105.835
0
LINE
8
BLACK
6
CONTINUOUS
10
98.5281
20
-105.835
11
98.3662
21
-105.875
0
LINE
8
BLACK
6
CONTINUOUS
10
98.3662
20
-105.875
11
98.3512
21
-105.876
0
LINE
8
BLACK
6
CONTINUOUS
10
98.3512
20
-105.876
11
98.348
21
-105.877
0
LINE
8
BLACK
6
CONTINUOUS
10
98.348
20
-105.877
11
98.2266
21
-105.877
0
LINE
8
BLACK
6
CONTINUOUS
10
98.2266
20
-105.877
11
98.2118
21
-105.875
0
LINE
8
BLACK
6
CONTINUOUS
10
98.2118
20
-105.875
11
98.2084
21
-105.875
0
LINE
8
BLACK
6
CONTINUOUS
10
98.2084
20
-105.875
11
98.0465
21
-105.835
0
LINE
8
BLACK
6
CONTINUOUS
10
98.0465
20
-105.835
11
98.0346
21
-105.829
0
LINE
8
BLACK
6
CONTINUOUS
10
98.0346
20
-105.829
11
98.0311
21
-105.829
0
LINE
8
BLACK
6
CONTINUOUS
10
98.0311
20
-105.829
11
97.9502
21
-105.789
0
LINE
8
BLACK
6
CONTINUOUS
10
97.9502
20
-105.789
11
97.9322
21
-105.775
0
LINE
8
BLACK
6
CONTINUOUS
10
97.9322
20
-105.775
11
97.9307
21
-105.774
0
LINE
8
BLACK
6
CONTINUOUS
10
97.9307
20
-105.774
11
97.8497
21
-105.694
0
LINE
8
BLACK
6
CONTINUOUS
10
97.8497
20
-105.694
11
97.8348
21
-105.672
0
LINE
8
BLACK
6
CONTINUOUS
10
97.8348
20
-105.672
11
97.8344
21
-105.668
0
LINE
8
BLACK
6
CONTINUOUS
10
97.8344
20
-105.668
11
97.8316
21
-105.664
0
LINE
8
BLACK
6
CONTINUOUS
10
97.8316
20
-105.664
11
97.7911
21
-105.543
0
LINE
8
BLACK
6
CONTINUOUS
10
97.7911
20
-105.543
11
97.7878
21
-105.521
0
LINE
8
BLACK
6
CONTINUOUS
10
97.7878
20
-105.521
11
97.7873
21
-105.519
0
LINE
8
BLACK
6
CONTINUOUS
10
97.7873
20
-105.519
11
97.7873
21
-105.438
0
LINE
8
BLACK
6
CONTINUOUS
10
97.7873
20
-105.438
11
97.7912
21
-105.416
0
LINE
8
BLACK
6
CONTINUOUS
10
97.7912
20
-105.416
11
97.7911
21
-105.414
0
LINE
8
BLACK
6
CONTINUOUS
10
97.7911
20
-105.414
11
97.8316
21
-105.293
0
LINE
8
BLACK
6
CONTINUOUS
10
97.8316
20
-105.293
11
97.844
21
-105.27
0
LINE
8
BLACK
6
CONTINUOUS
10
97.844
20
-105.27
11
97.8478
21
-105.268
0
LINE
8
BLACK
6
CONTINUOUS
10
97.8478
20
-105.268
11
97.8497
21
-105.264
0
LINE
8
BLACK
6
CONTINUOUS
10
97.8497
20
-105.264
11
97.8902
21
-105.223
0
LINE
8
BLACK
6
CONTINUOUS
10
97.8902
20
-105.223
11
97.9115
21
-105.208
0
LINE
8
BLACK
6
CONTINUOUS
10
97.9115
20
-105.208
11
97.9626
21
-105.204
0
LINE
8
BLACK
6
CONTINUOUS
10
97.9626
20
-105.204
11
98.0047
21
-105.233
0
LINE
8
BLACK
6
CONTINUOUS
10
98.0047
20
-105.233
11
98.0179
21
-105.283
0
LINE
8
BLACK
6
CONTINUOUS
10
98.0179
20
-105.283
11
97.9963
21
-105.329
0
LINE
8
BLACK
6
CONTINUOUS
10
97.9963
20
-105.329
11
97.9683
21
-105.357
0
LINE
8
BLACK
6
CONTINUOUS
10
97.9683
20
-105.357
11
97.9373
21
-105.45
0
LINE
8
BLACK
6
CONTINUOUS
10
97.9373
20
-105.45
11
97.9373
21
-105.507
0
LINE
8
BLACK
6
CONTINUOUS
10
97.9373
20
-105.507
11
97.9683
21
-105.6
0
LINE
8
BLACK
6
CONTINUOUS
10
97.9683
20
-105.6
11
98.0281
21
-105.66
0
LINE
8
BLACK
6
CONTINUOUS
10
98.0281
20
-105.66
11
98.0908
21
-105.691
0
LINE
8
BLACK
6
CONTINUOUS
10
98.0908
20
-105.691
11
98.2358
21
-105.727
0
LINE
8
BLACK
6
CONTINUOUS
10
98.2358
20
-105.727
11
98.3388
21
-105.727
0
LINE
8
BLACK
6
CONTINUOUS
10
98.3388
20
-105.727
11
98.4837
21
-105.691
0
LINE
8
BLACK
6
CONTINUOUS
10
98.4837
20
-105.691
11
98.5464
21
-105.66
0
LINE
8
BLACK
6
CONTINUOUS
10
98.5464
20
-105.66
11
98.6062
21
-105.6
0
LINE
8
BLACK
6
CONTINUOUS
10
98.6062
20
-105.6
11
98.6373
21
-105.507
0
LINE
8
BLACK
6
CONTINUOUS
10
98.6373
20
-105.507
11
98.6373
21
-105.45
0
LINE
8
BLACK
6
CONTINUOUS
10
98.6373
20
-105.45
11
98.6062
21
-105.357
0
LINE
8
BLACK
6
CONTINUOUS
10
98.6062
20
-105.357
11
98.5783
21
-105.329
0
LINE
8
BLACK
6
CONTINUOUS
10
98.5783
20
-105.329
11
98.5633
21
-105.308
0
LINE
8
BLACK
6
CONTINUOUS
10
98.5633
20
-105.308
11
98.5589
21
-105.257
0
LINE
8
BLACK
6
CONTINUOUS
10
98.5589
20
-105.257
11
98.5883
21
-105.215
0
LINE
8
BLACK
6
CONTINUOUS
10
98.5883
20
-105.215
11
98.6379
21
-105.201
0
LINE
8
BLACK
6
CONTINUOUS
10
98.6379
20
-105.201
11
98.6844
21
-105.223
0
LINE
8
BLACK
6
CONTINUOUS
10
98.4915
20
-104.598
11
98.4931
21
-104.598
0
LINE
8
BLACK
6
CONTINUOUS
10
98.4931
20
-104.598
11
98.6146
21
-104.638
0
LINE
8
BLACK
6
CONTINUOUS
10
98.6146
20
-104.638
11
98.6375
21
-104.651
0
LINE
8
BLACK
6
CONTINUOUS
10
98.6375
20
-104.651
11
98.6398
21
-104.655
0
LINE
8
BLACK
6
CONTINUOUS
10
98.6398
20
-104.655
11
98.6439
21
-104.656
0
LINE
8
BLACK
6
CONTINUOUS
10
98.6439
20
-104.656
11
98.7248
21
-104.737
0
LINE
8
BLACK
6
CONTINUOUS
10
98.7248
20
-104.737
11
98.7398
21
-104.759
0
LINE
8
BLACK
6
CONTINUOUS
10
98.7398
20
-104.759
11
98.7402
21
-104.763
0
LINE
8
BLACK
6
CONTINUOUS
10
98.7402
20
-104.763
11
98.7429
21
-104.767
0
LINE
8
BLACK
6
CONTINUOUS
10
98.7429
20
-104.767
11
98.7834
21
-104.888
0
LINE
8
BLACK
6
CONTINUOUS
10
98.7834
20
-104.888
11
98.7867
21
-104.91
0
LINE
8
BLACK
6
CONTINUOUS
10
98.7867
20
-104.91
11
98.7873
21
-104.912
0
LINE
8
BLACK
6
CONTINUOUS
10
98.7873
20
-104.912
11
98.7873
21
-104.993
0
LINE
8
BLACK
6
CONTINUOUS
10
98.7873
20
-104.993
11
98.7828
21
-105.019
0
LINE
8
BLACK
6
CONTINUOUS
10
98.7828
20
-105.019
11
98.7498
21
-105.058
0
LINE
8
BLACK
6
CONTINUOUS
10
98.7498
20
-105.058
11
98.6992
21
-105.067
0
LINE
8
BLACK
6
CONTINUOUS
10
98.6992
20
-105.067
11
98.6548
21
-105.041
0
LINE
8
BLACK
6
CONTINUOUS
10
98.6548
20
-105.041
11
98.6373
21
-104.993
0
LINE
8
BLACK
6
CONTINUOUS
10
98.6373
20
-104.993
11
98.6373
21
-104.924
0
LINE
8
BLACK
6
CONTINUOUS
10
98.6373
20
-104.924
11
98.6062
21
-104.831
0
LINE
8
BLACK
6
CONTINUOUS
10
98.6062
20
-104.831
11
98.5503
21
-104.775
0
LINE
8
BLACK
6
CONTINUOUS
10
98.5503
20
-104.775
11
98.4572
21
-104.744
0
LINE
8
BLACK
6
CONTINUOUS
10
98.4572
20
-104.744
11
97.8623
21
-104.744
0
LINE
8
BLACK
6
CONTINUOUS
10
97.8623
20
-104.744
11
97.8366
21
-104.74
0
LINE
8
BLACK
6
CONTINUOUS
10
97.8366
20
-104.74
11
97.7973
21
-104.707
0
LINE
8
BLACK
6
CONTINUOUS
10
97.7973
20
-104.707
11
97.7884
21
-104.656
0
LINE
8
BLACK
6
CONTINUOUS
10
97.7884
20
-104.656
11
97.8141
21
-104.612
0
LINE
8
BLACK
6
CONTINUOUS
10
97.8141
20
-104.612
11
97.8623
21
-104.594
0
LINE
8
BLACK
6
CONTINUOUS
10
97.8623
20
-104.594
11
98.4694
21
-104.594
0
LINE
8
BLACK
6
CONTINUOUS
10
98.4694
20
-104.594
11
98.4915
21
-104.598
0
LINE
8
BLACK
6
CONTINUOUS
10
98.7697
20
-103.811
11
98.7873
21
-103.86
0
LINE
8
BLACK
6
CONTINUOUS
10
98.7873
20
-103.86
11
98.7873
21
-104.264
0
LINE
8
BLACK
6
CONTINUOUS
10
98.7873
20
-104.264
11
98.7856
21
-104.274
0
LINE
8
BLACK
6
CONTINUOUS
10
98.7856
20
-104.274
11
98.7861
21
-104.277
0
LINE
8
BLACK
6
CONTINUOUS
10
98.7861
20
-104.277
11
98.7845
21
-104.28
0
LINE
8
BLACK
6
CONTINUOUS
10
98.7845
20
-104.28
11
98.7828
21
-104.29
0
LINE
8
BLACK
6
CONTINUOUS
10
98.7828
20
-104.29
11
98.7702
21
-104.305
0
LINE
8
BLACK
6
CONTINUOUS
10
98.7702
20
-104.305
11
98.7605
21
-104.322
0
LINE
8
BLACK
6
CONTINUOUS
10
98.7605
20
-104.322
11
98.7541
21
-104.324
0
LINE
8
BLACK
6
CONTINUOUS
10
98.7541
20
-104.324
11
98.7498
21
-104.329
0
LINE
8
BLACK
6
CONTINUOUS
10
98.7498
20
-104.329
11
98.7306
21
-104.333
0
LINE
8
BLACK
6
CONTINUOUS
10
98.7306
20
-104.333
11
98.7123
21
-104.339
0
LINE
8
BLACK
6
CONTINUOUS
10
98.7123
20
-104.339
11
97.8623
21
-104.339
0
LINE
8
BLACK
6
CONTINUOUS
10
97.8623
20
-104.339
11
97.8366
21
-104.335
0
LINE
8
BLACK
6
CONTINUOUS
10
97.8366
20
-104.335
11
97.7973
21
-104.302
0
LINE
8
BLACK
6
CONTINUOUS
10
97.7973
20
-104.302
11
97.7884
21
-104.251
0
LINE
8
BLACK
6
CONTINUOUS
10
97.7884
20
-104.251
11
97.8141
21
-104.207
0
LINE
8
BLACK
6
CONTINUOUS
10
97.8141
20
-104.207
11
97.8623
21
-104.189
0
LINE
8
BLACK
6
CONTINUOUS
10
97.8623
20
-104.189
11
98.6373
21
-104.189
0
LINE
8
BLACK
6
CONTINUOUS
10
98.6373
20
-104.189
11
98.6373
21
-103.86
0
LINE
8
BLACK
6
CONTINUOUS
10
98.6373
20
-103.86
11
98.6418
21
-103.834
0
LINE
8
BLACK
6
CONTINUOUS
10
98.6418
20
-103.834
11
98.6748
21
-103.795
0
LINE
8
BLACK
6
CONTINUOUS
10
98.6748
20
-103.795
11
98.7253
21
-103.786
0
LINE
8
BLACK
6
CONTINUOUS
10
98.7253
20
-103.786
11
98.7697
21
-103.811
0
LINE
8
BLACK
6
CONTINUOUS
10
98.6844
20
-103.037
11
98.7248
21
-103.078
0
LINE
8
BLACK
6
CONTINUOUS
10
98.7248
20
-103.078
11
98.7398
21
-103.099
0
LINE
8
BLACK
6
CONTINUOUS
10
98.7398
20
-103.099
11
98.7402
21
-103.104
0
LINE
8
BLACK
6
CONTINUOUS
10
98.7402
20
-103.104
11
98.7429
21
-103.107
0
LINE
8
BLACK
6
CONTINUOUS
10
98.7429
20
-103.107
11
98.7834
21
-103.229
0
LINE
8
BLACK
6
CONTINUOUS
10
98.7834
20
-103.229
11
98.7867
21
-103.251
0
LINE
8
BLACK
6
CONTINUOUS
10
98.7867
20
-103.251
11
98.7873
21
-103.252
0
LINE
8
BLACK
6
CONTINUOUS
10
98.7873
20
-103.252
11
98.7873
21
-103.333
0
LINE
8
BLACK
6
CONTINUOUS
10
98.7873
20
-103.333
11
98.7834
21
-103.355
0
LINE
8
BLACK
6
CONTINUOUS
10
98.7834
20
-103.355
11
98.7834
21
-103.357
0
LINE
8
BLACK
6
CONTINUOUS
10
98.7834
20
-103.357
11
98.7429
21
-103.478
0
LINE
8
BLACK
6
CONTINUOUS
10
98.7429
20
-103.478
11
98.7305
21
-103.501
0
LINE
8
BLACK
6
CONTINUOUS
10
98.7305
20
-103.501
11
98.7267
21
-103.504
0
LINE
8
BLACK
6
CONTINUOUS
10
98.7267
20
-103.504
11
98.7248
21
-103.508
0
LINE
8
BLACK
6
CONTINUOUS
10
98.7248
20
-103.508
11
98.6439
21
-103.589
0
LINE
8
BLACK
6
CONTINUOUS
10
98.6439
20
-103.589
11
98.6255
21
-103.602
0
LINE
8
BLACK
6
CONTINUOUS
10
98.6255
20
-103.602
11
98.6244
21
-103.603
0
LINE
8
BLACK
6
CONTINUOUS
10
98.6244
20
-103.603
11
98.5434
21
-103.643
0
LINE
8
BLACK
6
CONTINUOUS
10
98.5434
20
-103.643
11
98.531
21
-103.647
0
LINE
8
BLACK
6
CONTINUOUS
10
98.531
20
-103.647
11
98.5281
21
-103.649
0
LINE
8
BLACK
6
CONTINUOUS
10
98.5281
20
-103.649
11
98.3662
21
-103.689
0
LINE
8
BLACK
6
CONTINUOUS
10
98.3662
20
-103.689
11
98.3512
21
-103.69
0
LINE
8
BLACK
6
CONTINUOUS
10
98.3512
20
-103.69
11
98.348
21
-103.692
0
LINE
8
BLACK
6
CONTINUOUS
10
98.348
20
-103.692
11
98.2266
21
-103.692
0
LINE
8
BLACK
6
CONTINUOUS
10
98.2266
20
-103.692
11
98.2118
21
-103.689
0
LINE
8
BLACK
6
CONTINUOUS
10
98.2118
20
-103.689
11
98.2084
21
-103.689
0
LINE
8
BLACK
6
CONTINUOUS
10
98.2084
20
-103.689
11
98.0465
21
-103.649
0
LINE
8
BLACK
6
CONTINUOUS
10
98.0465
20
-103.649
11
98.0346
21
-103.644
0
LINE
8
BLACK
6
CONTINUOUS
10
98.0346
20
-103.644
11
98.0311
21
-103.643
0
LINE
8
BLACK
6
CONTINUOUS
10
98.0311
20
-103.643
11
97.9502
21
-103.603
0
LINE
8
BLACK
6
CONTINUOUS
10
97.9502
20
-103.603
11
97.9322
21
-103.589
0
LINE
8
BLACK
6
CONTINUOUS
10
97.9322
20
-103.589
11
97.9307
21
-103.589
0
LINE
8
BLACK
6
CONTINUOUS
10
97.9307
20
-103.589
11
97.8497
21
-103.508
0
LINE
8
BLACK
6
CONTINUOUS
10
97.8497
20
-103.508
11
97.8348
21
-103.486
0
LINE
8
BLACK
6
CONTINUOUS
10
97.8348
20
-103.486
11
97.8344
21
-103.482
0
LINE
8
BLACK
6
CONTINUOUS
10
97.8344
20
-103.482
11
97.8316
21
-103.478
0
LINE
8
BLACK
6
CONTINUOUS
10
97.8316
20
-103.478
11
97.7911
21
-103.357
0
LINE
8
BLACK
6
CONTINUOUS
10
97.7911
20
-103.357
11
97.7878
21
-103.335
0
LINE
8
BLACK
6
CONTINUOUS
10
97.7878
20
-103.335
11
97.7873
21
-103.333
0
LINE
8
BLACK
6
CONTINUOUS
10
97.7873
20
-103.333
11
97.7873
21
-103.252
0
LINE
8
BLACK
6
CONTINUOUS
10
97.7873
20
-103.252
11
97.7912
21
-103.23
0
LINE
8
BLACK
6
CONTINUOUS
10
97.7912
20
-103.23
11
97.7911
21
-103.229
0
LINE
8
BLACK
6
CONTINUOUS
10
97.7911
20
-103.229
11
97.8316
21
-103.107
0
LINE
8
BLACK
6
CONTINUOUS
10
97.8316
20
-103.107
11
97.844
21
-103.084
0
LINE
8
BLACK
6
CONTINUOUS
10
97.844
20
-103.084
11
97.8478
21
-103.082
0
LINE
8
BLACK
6
CONTINUOUS
10
97.8478
20
-103.082
11
97.8497
21
-103.078
0
LINE
8
BLACK
6
CONTINUOUS
10
97.8497
20
-103.078
11
97.8902
21
-103.037
0
LINE
8
BLACK
6
CONTINUOUS
10
97.8902
20
-103.037
11
97.9115
21
-103.023
0
LINE
8
BLACK
6
CONTINUOUS
10
97.9115
20
-103.023
11
97.9626
21
-103.018
0
LINE
8
BLACK
6
CONTINUOUS
10
97.9626
20
-103.018
11
98.0047
21
-103.047
0
LINE
8
BLACK
6
CONTINUOUS
10
98.0047
20
-103.047
11
98.0179
21
-103.097
0
LINE
8
BLACK
6
CONTINUOUS
10
98.0179
20
-103.097
11
97.9963
21
-103.144
0
LINE
8
BLACK
6
CONTINUOUS
10
97.9963
20
-103.144
11
97.9683
21
-103.171
0
LINE
8
BLACK
6
CONTINUOUS
10
97.9683
20
-103.171
11
97.9373
21
-103.265
0
LINE
8
BLACK
6
CONTINUOUS
10
97.9373
20
-103.265
11
97.9373
21
-103.321
0
LINE
8
BLACK
6
CONTINUOUS
10
97.9373
20
-103.321
11
97.9683
21
-103.414
0
LINE
8
BLACK
6
CONTINUOUS
10
97.9683
20
-103.414
11
98.0281
21
-103.474
0
LINE
8
BLACK
6
CONTINUOUS
10
98.0281
20
-103.474
11
98.0908
21
-103.505
0
LINE
8
BLACK
6
CONTINUOUS
10
98.0908
20
-103.505
11
98.2358
21
-103.542
0
LINE
8
BLACK
6
CONTINUOUS
10
98.2358
20
-103.542
11
98.3388
21
-103.542
0
LINE
8
BLACK
6
CONTINUOUS
10
98.3388
20
-103.542
11
98.4837
21
-103.505
0
LINE
8
BLACK
6
CONTINUOUS
10
98.4837
20
-103.505
11
98.5464
21
-103.474
0
LINE
8
BLACK
6
CONTINUOUS
10
98.5464
20
-103.474
11
98.6062
21
-103.414
0
LINE
8
BLACK
6
CONTINUOUS
10
98.6062
20
-103.414
11
98.6373
21
-103.321
0
LINE
8
BLACK
6
CONTINUOUS
10
98.6373
20
-103.321
11
98.6373
21
-103.265
0
LINE
8
BLACK
6
CONTINUOUS
10
98.6373
20
-103.265
11
98.6062
21
-103.171
0
LINE
8
BLACK
6
CONTINUOUS
10
98.6062
20
-103.171
11
98.5783
21
-103.144
0
LINE
8
BLACK
6
CONTINUOUS
10
98.5783
20
-103.144
11
98.5633
21
-103.122
0
LINE
8
BLACK
6
CONTINUOUS
10
98.5633
20
-103.122
11
98.5589
21
-103.071
0
LINE
8
BLACK
6
CONTINUOUS
10
98.5589
20
-103.071
11
98.5883
21
-103.029
0
LINE
8
BLACK
6
CONTINUOUS
10
98.5883
20
-103.029
11
98.6379
21
-103.016
0
LINE
8
BLACK
6
CONTINUOUS
10
98.6379
20
-103.016
11
98.6844
21
-103.037
0
LINE
8
BLACK
6
CONTINUOUS
10
109.842
20
-100.558
11
109.86
21
-100.6
0
LINE
8
BLACK
6
CONTINUOUS
10
109.86
20
-100.6
11
109.86
21
-102.1
0
LINE
8
BLACK
6
CONTINUOUS
10
109.86
20
-102.1
11
109.842
21
-102.142
0
LINE
8
BLACK
6
CONTINUOUS
10
109.842
20
-102.142
11
109.8
21
-102.16
0
LINE
8
BLACK
6
CONTINUOUS
10
109.8
20
-102.16
11
109.758
21
-102.142
0
LINE
8
BLACK
6
CONTINUOUS
10
109.758
20
-102.142
11
109.74
21
-102.1
0
LINE
8
BLACK
6
CONTINUOUS
10
109.74
20
-102.1
11
109.74
21
-100.6
0
LINE
8
BLACK
6
CONTINUOUS
10
109.74
20
-100.6
11
109.758
21
-100.558
0
LINE
8
BLACK
6
CONTINUOUS
10
109.758
20
-100.558
11
109.8
21
-100.54
0
LINE
8
BLACK
6
CONTINUOUS
10
109.8
20
-100.54
11
109.842
21
-100.558
0
LINE
8
BLACK
6
CONTINUOUS
10
97.1251
20
-100.43
11
97.1459
21
-100.437
0
LINE
8
BLACK
6
CONTINUOUS
10
97.1459
20
-100.437
11
97.1469
21
-100.439
0
LINE
8
BLACK
6
CONTINUOUS
10
97.1469
20
-100.439
11
97.149
21
-100.439
0
LINE
8
BLACK
6
CONTINUOUS
10
97.149
20
-100.439
11
97.1574
21
-100.46
0
LINE
8
BLACK
6
CONTINUOUS
10
97.1574
20
-100.46
11
97.1671
21
-100.48
0
LINE
8
BLACK
6
CONTINUOUS
10
97.1671
20
-100.48
11
97.1664
21
-100.482
0
LINE
8
BLACK
6
CONTINUOUS
10
97.1664
20
-100.482
11
97.1673
21
-100.484
0
LINE
8
BLACK
6
CONTINUOUS
10
97.1673
20
-100.484
11
97.1588
21
-100.504
0
LINE
8
BLACK
6
CONTINUOUS
10
97.1588
20
-100.504
11
97.1518
21
-100.525
0
LINE
8
BLACK
6
CONTINUOUS
10
97.1518
20
-100.525
11
97.0601
21
-100.63
0
LINE
8
BLACK
6
CONTINUOUS
10
97.0601
20
-100.63
11
97.0851
21
-100.642
0
LINE
8
BLACK
6
CONTINUOUS
10
97.0851
20
-100.642
11
97.0918
21
-100.65
0
LINE
8
BLACK
6
CONTINUOUS
10
97.0918
20
-100.65
11
97.1013
21
-100.654
0
LINE
8
BLACK
6
CONTINUOUS
10
97.1013
20
-100.654
11
97.1251
21
-100.678
0
LINE
8
BLACK
6
CONTINUOUS
10
97.1251
20
-100.678
11
97.1291
21
-100.687
0
LINE
8
BLACK
6
CONTINUOUS
10
97.1291
20
-100.687
11
97.1369
21
-100.694
0
LINE
8
BLACK
6
CONTINUOUS
10
97.1369
20
-100.694
11
97.1607
21
-100.741
0
LINE
8
BLACK
6
CONTINUOUS
10
97.1607
20
-100.741
11
97.1617
21
-100.756
0
LINE
8
BLACK
6
CONTINUOUS
10
97.1617
20
-100.756
11
97.1673
21
-100.769
0
LINE
8
BLACK
6
CONTINUOUS
10
97.1673
20
-100.769
11
97.1673
21
-100.888
0
LINE
8
BLACK
6
CONTINUOUS
10
97.1673
20
-100.888
11
97.1617
21
-100.902
0
LINE
8
BLACK
6
CONTINUOUS
10
97.1617
20
-100.902
11
97.1607
21
-100.916
0
LINE
8
BLACK
6
CONTINUOUS
10
97.1607
20
-100.916
11
97.1369
21
-100.964
0
LINE
8
BLACK
6
CONTINUOUS
10
97.1369
20
-100.964
11
97.1291
21
-100.971
0
LINE
8
BLACK
6
CONTINUOUS
10
97.1291
20
-100.971
11
97.1251
21
-100.98
0
LINE
8
BLACK
6
CONTINUOUS
10
97.1251
20
-100.98
11
97.1013
21
-101.004
0
LINE
8
BLACK
6
CONTINUOUS
10
97.1013
20
-101.004
11
97.0918
21
-101.008
0
LINE
8
BLACK
6
CONTINUOUS
10
97.0918
20
-101.008
11
97.0851
21
-101.016
0
LINE
8
BLACK
6
CONTINUOUS
10
97.0851
20
-101.016
11
97.0375
21
-101.04
0
LINE
8
BLACK
6
CONTINUOUS
10
97.0375
20
-101.04
11
97.023
21
-101.041
0
LINE
8
BLACK
6
CONTINUOUS
10
97.023
20
-101.041
11
97.0095
21
-101.046
0
LINE
8
BLACK
6
CONTINUOUS
10
97.0095
20
-101.046
11
96.8667
21
-101.046
0
LINE
8
BLACK
6
CONTINUOUS
10
96.8667
20
-101.046
11
96.8532
21
-101.041
0
LINE
8
BLACK
6
CONTINUOUS
10
96.8532
20
-101.041
11
96.8387
21
-101.04
0
LINE
8
BLACK
6
CONTINUOUS
10
96.8387
20
-101.04
11
96.7911
21
-101.016
0
LINE
8
BLACK
6
CONTINUOUS
10
96.7911
20
-101.016
11
96.7844
21
-101.008
0
LINE
8
BLACK
6
CONTINUOUS
10
96.7844
20
-101.008
11
96.7749
21
-101.004
0
LINE
8
BLACK
6
CONTINUOUS
10
96.7749
20
-101.004
11
96.751
21
-100.98
0
LINE
8
BLACK
6
CONTINUOUS
10
96.751
20
-100.98
11
96.7327
21
-100.936
0
LINE
8
BLACK
6
CONTINUOUS
10
96.7327
20
-100.936
11
96.751
21
-100.892
0
LINE
8
BLACK
6
CONTINUOUS
10
96.751
20
-100.892
11
96.7952
21
-100.874
0
LINE
8
BLACK
6
CONTINUOUS
10
96.7952
20
-100.874
11
96.8394
21
-100.892
0
LINE
8
BLACK
6
CONTINUOUS
10
96.8394
20
-100.892
11
96.8561
21
-100.909
0
LINE
8
BLACK
6
CONTINUOUS
10
96.8561
20
-100.909
11
96.8814
21
-100.921
0
LINE
8
BLACK
6
CONTINUOUS
10
96.8814
20
-100.921
11
96.9948
21
-100.921
0
LINE
8
BLACK
6
CONTINUOUS
10
96.9948
20
-100.921
11
97.0201
21
-100.909
0
LINE
8
BLACK
6
CONTINUOUS
10
97.0201
20
-100.909
11
97.0296
21
-100.899
0
LINE
8
BLACK
6
CONTINUOUS
10
97.0296
20
-100.899
11
97.0423
21
-100.874
0
LINE
8
BLACK
6
CONTINUOUS
10
97.0423
20
-100.874
11
97.0423
21
-100.784
0
LINE
8
BLACK
6
CONTINUOUS
10
97.0423
20
-100.784
11
97.0296
21
-100.759
0
LINE
8
BLACK
6
CONTINUOUS
10
97.0296
20
-100.759
11
97.0201
21
-100.749
0
LINE
8
BLACK
6
CONTINUOUS
10
97.0201
20
-100.749
11
96.9948
21
-100.737
0
LINE
8
BLACK
6
CONTINUOUS
10
96.9948
20
-100.737
11
96.9381
21
-100.737
0
LINE
8
BLACK
6
CONTINUOUS
10
96.9381
20
-100.737
11
96.9178
21
-100.728
0
LINE
8
BLACK
6
CONTINUOUS
10
96.9178
20
-100.728
11
96.8969
21
-100.721
0
LINE
8
BLACK
6
CONTINUOUS
10
96.8969
20
-100.721
11
96.896
21
-100.719
0
LINE
8
BLACK
6
CONTINUOUS
10
96.896
20
-100.719
11
96.8939
21
-100.718
0
LINE
8
BLACK
6
CONTINUOUS
10
96.8939
20
-100.718
11
96.8855
21
-100.698
0
LINE
8
BLACK
6
CONTINUOUS
10
96.8855
20
-100.698
11
96.8757
21
-100.678
0
LINE
8
BLACK
6
CONTINUOUS
10
96.8757
20
-100.678
11
96.8764
21
-100.676
0
LINE
8
BLACK
6
CONTINUOUS
10
96.8764
20
-100.676
11
96.8756
21
-100.674
0
LINE
8
BLACK
6
CONTINUOUS
10
96.8756
20
-100.674
11
96.884
21
-100.654
0
LINE
8
BLACK
6
CONTINUOUS
10
96.884
20
-100.654
11
96.8911
21
-100.633
0
LINE
8
BLACK
6
CONTINUOUS
10
96.8911
20
-100.633
11
96.967
21
-100.546
0
LINE
8
BLACK
6
CONTINUOUS
10
96.967
20
-100.546
11
96.7952
21
-100.546
0
LINE
8
BLACK
6
CONTINUOUS
10
96.7952
20
-100.546
11
96.751
21
-100.528
0
LINE
8
BLACK
6
CONTINUOUS
10
96.751
20
-100.528
11
96.7327
21
-100.484
0
LINE
8
BLACK
6
CONTINUOUS
10
96.7327
20
-100.484
11
96.751
21
-100.439
0
LINE
8
BLACK
6
CONTINUOUS
10
96.751
20
-100.439
11
96.7952
21
-100.421
0
LINE
8
BLACK
6
CONTINUOUS
10
96.7952
20
-100.421
11
97.1048
21
-100.421
0
LINE
8
BLACK
6
CONTINUOUS
10
97.1048
20
-100.421
11
97.1251
21
-100.43
0
LINE
8
BLACK
6
CONTINUOUS
10
96.649
20
-100.439
11
96.6673
21
-100.484
0
LINE
8
BLACK
6
CONTINUOUS
10
96.6673
20
-100.484
11
96.6673
21
-100.888
0
LINE
8
BLACK
6
CONTINUOUS
10
96.6673
20
-100.888
11
96.6617
21
-100.902
0
LINE
8
BLACK
6
CONTINUOUS
10
96.6617
20
-100.902
11
96.6607
21
-100.916
0
LINE
8
BLACK
6
CONTINUOUS
10
96.6607
20
-100.916
11
96.6369
21
-100.964
0
LINE
8
BLACK
6
CONTINUOUS
10
96.6369
20
-100.964
11
96.6291
21
-100.971
0
LINE
8
BLACK
6
CONTINUOUS
10
96.6291
20
-100.971
11
96.6251
21
-100.98
0
LINE
8
BLACK
6
CONTINUOUS
10
96.6251
20
-100.98
11
96.6013
21
-101.004
0
LINE
8
BLACK
6
CONTINUOUS
10
96.6013
20
-101.004
11
96.5918
21
-101.008
0
LINE
8
BLACK
6
CONTINUOUS
10
96.5918
20
-101.008
11
96.5851
21
-101.016
0
LINE
8
BLACK
6
CONTINUOUS
10
96.5851
20
-101.016
11
96.5375
21
-101.04
0
LINE
8
BLACK
6
CONTINUOUS
10
96.5375
20
-101.04
11
96.523
21
-101.041
0
LINE
8
BLACK
6
CONTINUOUS
10
96.523
20
-101.041
11
96.5095
21
-101.046
0
LINE
8
BLACK
6
CONTINUOUS
10
96.5095
20
-101.046
11
96.4143
21
-101.046
0
LINE
8
BLACK
6
CONTINUOUS
10
96.4143
20
-101.046
11
96.4008
21
-101.041
0
LINE
8
BLACK
6
CONTINUOUS
10
96.4008
20
-101.041
11
96.3863
21
-101.04
0
LINE
8
BLACK
6
CONTINUOUS
10
96.3863
20
-101.04
11
96.3387
21
-101.016
0
LINE
8
BLACK
6
CONTINUOUS
10
96.3387
20
-101.016
11
96.332
21
-101.008
0
LINE
8
BLACK
6
CONTINUOUS
10
96.332
20
-101.008
11
96.3225
21
-101.004
0
LINE
8
BLACK
6
CONTINUOUS
10
96.3225
20
-101.004
11
96.2987
21
-100.98
0
LINE
8
BLACK
6
CONTINUOUS
10
96.2987
20
-100.98
11
96.2947
21
-100.971
0
LINE
8
BLACK
6
CONTINUOUS
10
96.2947
20
-100.971
11
96.287
21
-100.964
0
LINE
8
BLACK
6
CONTINUOUS
10
96.287
20
-100.964
11
96.2631
21
-100.916
0
LINE
8
BLACK
6
CONTINUOUS
10
96.2631
20
-100.916
11
96.2621
21
-100.902
0
LINE
8
BLACK
6
CONTINUOUS
10
96.2621
20
-100.902
11
96.2565
21
-100.888
0
LINE
8
BLACK
6
CONTINUOUS
10
96.2565
20
-100.888
11
96.2565
21
-100.484
0
LINE
8
BLACK
6
CONTINUOUS
10
96.2565
20
-100.484
11
96.2749
21
-100.439
0
LINE
8
BLACK
6
CONTINUOUS
10
96.2749
20
-100.439
11
96.319
21
-100.421
0
LINE
8
BLACK
6
CONTINUOUS
10
96.319
20
-100.421
11
96.3632
21
-100.439
0
LINE
8
BLACK
6
CONTINUOUS
10
96.3632
20
-100.439
11
96.3815
21
-100.484
0
LINE
8
BLACK
6
CONTINUOUS
10
96.3815
20
-100.484
11
96.3815
21
-100.874
0
LINE
8
BLACK
6
CONTINUOUS
10
96.3815
20
-100.874
11
96.3942
21
-100.899
0
LINE
8
BLACK
6
CONTINUOUS
10
96.3942
20
-100.899
11
96.4037
21
-100.909
0
LINE
8
BLACK
6
CONTINUOUS
10
96.4037
20
-100.909
11
96.429
21
-100.921
0
LINE
8
BLACK
6
CONTINUOUS
10
96.429
20
-100.921
11
96.4948
21
-100.921
0
LINE
8
BLACK
6
CONTINUOUS
10
96.4948
20
-100.921
11
96.5201
21
-100.909
0
LINE
8
BLACK
6
CONTINUOUS
10
96.5201
20
-100.909
11
96.5296
21
-100.899
0
LINE
8
BLACK
6
CONTINUOUS
10
96.5296
20
-100.899
11
96.5423
21
-100.874
0
LINE
8
BLACK
6
CONTINUOUS
10
96.5423
20
-100.874
11
96.5423
21
-100.484
0
LINE
8
BLACK
6
CONTINUOUS
10
96.5423
20
-100.484
11
96.5606
21
-100.439
0
LINE
8
BLACK
6
CONTINUOUS
10
96.5606
20
-100.439
11
96.6048
21
-100.421
0
LINE
8
BLACK
6
CONTINUOUS
10
96.6048
20
-100.421
11
96.649
21
-100.439
0
LINE
8
BLACK
6
CONTINUOUS
10
123.85
20
-100.04
11
123.892
21
-100.058
0
LINE
8
BLACK
6
CONTINUOUS
10
123.892
20
-100.058
11
123.91
21
-100.1
0
LINE
8
BLACK
6
CONTINUOUS
10
123.91
20
-100.1
11
123.91
21
-113.4
0
LINE
8
BLACK
6
CONTINUOUS
10
123.91
20
-113.4
11
123.892
21
-113.442
0
LINE
8
BLACK
6
CONTINUOUS
10
123.892
20
-113.442
11
123.85
21
-113.46
0
LINE
8
BLACK
6
CONTINUOUS
10
123.85
20
-113.46
11
95.9
21
-113.46
0
LINE
8
BLACK
6
CONTINUOUS
10
95.9
20
-113.46
11
95.8576
21
-113.442
0
LINE
8
BLACK
6
CONTINUOUS
10
95.8576
20
-113.442
11
95.84
21
-113.4
0
LINE
8
BLACK
6
CONTINUOUS
10
95.84
20
-113.4
11
95.84
21
-100.1
0
LINE
8
BLACK
6
CONTINUOUS
10
95.84
20
-100.1
11
95.8576
21
-100.058
0
LINE
8
BLACK
6
CONTINUOUS
10
95.8576
20
-100.058
11
95.9
21
-100.04
0
LINE
8
BLACK
6
CONTINUOUS
10
95.9
20
-100.04
11
123.85
21
-100.04
0
LINE
8
BLACK
6
CONTINUOUS
10
95.96
20
-100.16
11
95.96
21
-113.34
0
LINE
8
BLACK
6
CONTINUOUS
10
95.96
20
-113.34
11
123.79
21
-113.34
0
LINE
8
BLACK
6
CONTINUOUS
10
123.79
20
-113.34
11
123.79
21
-100.16
0
LINE
8
BLACK
6
CONTINUOUS
10
123.79
20
-100.16
11
95.96
21
-100.16
0
LINE
8
BLACK
6
CONTINUOUS
10
95.234
20
-109.538
11
95.2764
21
-109.556
0
LINE
8
BLACK
6
CONTINUOUS
10
95.2764
20
-109.556
11
95.294
21
-109.598
0
LINE
8
BLACK
6
CONTINUOUS
10
95.294
20
-109.598
11
95.294
21
-112.398
0
LINE
8
BLACK
6
CONTINUOUS
10
95.294
20
-112.398
11
95.2764
21
-112.44
0
LINE
8
BLACK
6
CONTINUOUS
10
95.2764
20
-112.44
11
95.234
21
-112.458
0
LINE
8
BLACK
6
CONTINUOUS
10
95.234
20
-112.458
11
93.234
21
-112.458
0
LINE
8
BLACK
6
CONTINUOUS
10
93.234
20
-112.458
11
93.1916
21
-112.44
0
LINE
8
BLACK
6
CONTINUOUS
10
93.1916
20
-112.44
11
93.174
21
-112.398
0
LINE
8
BLACK
6
CONTINUOUS
10
93.174
20
-112.398
11
93.174
21
-109.598
0
LINE
8
BLACK
6
CONTINUOUS
10
93.174
20
-109.598
11
93.1916
21
-109.556
0
LINE
8
BLACK
6
CONTINUOUS
10
93.1916
20
-109.556
11
93.234
21
-109.538
0
LINE
8
BLACK
6
CONTINUOUS
10
93.234
20
-109.538
11
95.234
21
-109.538
0
LINE
8
BLACK
6
CONTINUOUS
10
93.294
20
-109.658
11
93.294
21
-112.338
0
LINE
8
BLACK
6
CONTINUOUS
10
93.294
20
-112.338
11
95.174
21
-112.338
0
LINE
8
BLACK
6
CONTINUOUS
10
95.174
20
-112.338
11
95.174
21
-109.658
0
LINE
8
BLACK
6
CONTINUOUS
10
95.174
20
-109.658
11
93.294
21
-109.658
0
LINE
8
BLACK
6
CONTINUOUS
10
95.186
20
-108.546
11
95.2007
21
-108.582
0
LINE
8
BLACK
6
CONTINUOUS
10
95.2007
20
-108.582
11
95.186
21
-108.617
0
LINE
8
BLACK
6
CONTINUOUS
10
95.186
20
-108.617
11
95.1507
21
-108.632
0
LINE
8
BLACK
6
CONTINUOUS
10
95.1507
20
-108.632
11
95.0578
21
-108.632
0
LINE
8
BLACK
6
CONTINUOUS
10
95.0578
20
-108.632
11
95.0578
21
-109.082
0
LINE
8
BLACK
6
CONTINUOUS
10
95.0578
20
-109.082
11
95.0432
21
-109.117
0
LINE
8
BLACK
6
CONTINUOUS
10
95.0432
20
-109.117
11
95.0078
21
-109.132
0
LINE
8
BLACK
6
CONTINUOUS
10
95.0078
20
-109.132
11
94.9725
21
-109.117
0
LINE
8
BLACK
6
CONTINUOUS
10
94.9725
20
-109.117
11
94.9578
21
-109.082
0
LINE
8
BLACK
6
CONTINUOUS
10
94.9578
20
-109.082
11
94.9578
21
-108.632
0
LINE
8
BLACK
6
CONTINUOUS
10
94.9578
20
-108.632
11
94.865
21
-108.632
0
LINE
8
BLACK
6
CONTINUOUS
10
94.865
20
-108.632
11
94.8296
21
-108.617
0
LINE
8
BLACK
6
CONTINUOUS
10
94.8296
20
-108.617
11
94.815
21
-108.582
0
LINE
8
BLACK
6
CONTINUOUS
10
94.815
20
-108.582
11
94.8296
21
-108.546
0
LINE
8
BLACK
6
CONTINUOUS
10
94.8296
20
-108.546
11
94.865
21
-108.532
0
LINE
8
BLACK
6
CONTINUOUS
10
94.865
20
-108.532
11
95.1507
21
-108.532
0
LINE
8
BLACK
6
CONTINUOUS
10
95.1507
20
-108.532
11
95.186
21
-108.546
0
LINE
8
BLACK
6
CONTINUOUS
10
94.6138
20
-108.536
11
94.6254
21
-108.537
0
LINE
8
BLACK
6
CONTINUOUS
10
94.6254
20
-108.537
11
94.673
21
-108.561
0
LINE
8
BLACK
6
CONTINUOUS
10
94.673
20
-108.561
11
94.6784
21
-108.567
0
LINE
8
BLACK
6
CONTINUOUS
10
94.6784
20
-108.567
11
94.686
21
-108.57
0
LINE
8
BLACK
6
CONTINUOUS
10
94.686
20
-108.57
11
94.7336
21
-108.618
0
LINE
8
BLACK
6
CONTINUOUS
10
94.7336
20
-108.618
11
94.7388
21
-108.63
0
LINE
8
BLACK
6
CONTINUOUS
10
94.7388
20
-108.63
11
94.7468
21
-108.641
0
LINE
8
BLACK
6
CONTINUOUS
10
94.7468
20
-108.641
11
94.7706
21
-108.736
0
LINE
8
BLACK
6
CONTINUOUS
10
94.7706
20
-108.736
11
94.7697
21
-108.742
0
LINE
8
BLACK
6
CONTINUOUS
10
94.7697
20
-108.742
11
94.7721
21
-108.748
0
LINE
8
BLACK
6
CONTINUOUS
10
94.7721
20
-108.748
11
94.7721
21
-108.915
0
LINE
8
BLACK
6
CONTINUOUS
10
94.7721
20
-108.915
11
94.7697
21
-108.921
0
LINE
8
BLACK
6
CONTINUOUS
10
94.7697
20
-108.921
11
94.7706
21
-108.927
0
LINE
8
BLACK
6
CONTINUOUS
10
94.7706
20
-108.927
11
94.7468
21
-109.022
0
LINE
8
BLACK
6
CONTINUOUS
10
94.7468
20
-109.022
11
94.7388
21
-109.033
0
LINE
8
BLACK
6
CONTINUOUS
10
94.7388
20
-109.033
11
94.7336
21
-109.046
0
LINE
8
BLACK
6
CONTINUOUS
10
94.7336
20
-109.046
11
94.686
21
-109.093
0
LINE
8
BLACK
6
CONTINUOUS
10
94.686
20
-109.093
11
94.6784
21
-109.096
0
LINE
8
BLACK
6
CONTINUOUS
10
94.6784
20
-109.096
11
94.673
21
-109.103
0
LINE
8
BLACK
6
CONTINUOUS
10
94.673
20
-109.103
11
94.6254
21
-109.126
0
LINE
8
BLACK
6
CONTINUOUS
10
94.6254
20
-109.126
11
94.6138
21
-109.127
0
LINE
8
BLACK
6
CONTINUOUS
10
94.6138
20
-109.127
11
94.603
21
-109.132
0
LINE
8
BLACK
6
CONTINUOUS
10
94.603
20
-109.132
11
94.5078
21
-109.132
0
LINE
8
BLACK
6
CONTINUOUS
10
94.5078
20
-109.132
11
94.4971
21
-109.127
0
LINE
8
BLACK
6
CONTINUOUS
10
94.4971
20
-109.127
11
94.4854
21
-109.126
0
LINE
8
BLACK
6
CONTINUOUS
10
94.4854
20
-109.126
11
94.4378
21
-109.103
0
LINE
8
BLACK
6
CONTINUOUS
10
94.4378
20
-109.103
11
94.4324
21
-109.096
0
LINE
8
BLACK
6
CONTINUOUS
10
94.4324
20
-109.096
11
94.4248
21
-109.093
0
LINE
8
BLACK
6
CONTINUOUS
10
94.4248
20
-109.093
11
94.3772
21
-109.046
0
LINE
8
BLACK
6
CONTINUOUS
10
94.3772
20
-109.046
11
94.3721
21
-109.033
0
LINE
8
BLACK
6
CONTINUOUS
10
94.3721
20
-109.033
11
94.3641
21
-109.022
0
LINE
8
BLACK
6
CONTINUOUS
10
94.3641
20
-109.022
11
94.3403
21
-108.927
0
LINE
8
BLACK
6
CONTINUOUS
10
94.3403
20
-108.927
11
94.3412
21
-108.921
0
LINE
8
BLACK
6
CONTINUOUS
10
94.3412
20
-108.921
11
94.3388
21
-108.915
0
LINE
8
BLACK
6
CONTINUOUS
10
94.3388
20
-108.915
11
94.3388
21
-108.748
0
LINE
8
BLACK
6
CONTINUOUS
10
94.3388
20
-108.748
11
94.3412
21
-108.742
0
LINE
8
BLACK
6
CONTINUOUS
10
94.3412
20
-108.742
11
94.3403
21
-108.736
0
LINE
8
BLACK
6
CONTINUOUS
10
94.3403
20
-108.736
11
94.3641
21
-108.641
0
LINE
8
BLACK
6
CONTINUOUS
10
94.3641
20
-108.641
11
94.3721
21
-108.63
0
LINE
8
BLACK
6
CONTINUOUS
10
94.3721
20
-108.63
11
94.3772
21
-108.618
0
LINE
8
BLACK
6
CONTINUOUS
10
94.3772
20
-108.618
11
94.4248
21
-108.57
0
LINE
8
BLACK
6
CONTINUOUS
10
94.4248
20
-108.57
11
94.4324
21
-108.567
0
LINE
8
BLACK
6
CONTINUOUS
10
94.4324
20
-108.567
11
94.4378
21
-108.561
0
LINE
8
BLACK
6
CONTINUOUS
10
94.4378
20
-108.561
11
94.4854
21
-108.537
0
LINE
8
BLACK
6
CONTINUOUS
10
94.4854
20
-108.537
11
94.4971
21
-108.536
0
LINE
8
BLACK
6
CONTINUOUS
10
94.4971
20
-108.536
11
94.5078
21
-108.532
0
LINE
8
BLACK
6
CONTINUOUS
10
94.5078
20
-108.532
11
94.603
21
-108.532
0
LINE
8
BLACK
6
CONTINUOUS
10
94.603
20
-108.532
11
94.6138
21
-108.536
0
LINE
8
BLACK
6
CONTINUOUS
10
94.4898
20
-108.647
11
94.4577
21
-108.679
0
LINE
8
BLACK
6
CONTINUOUS
10
94.4577
20
-108.679
11
94.4388
21
-108.755
0
LINE
8
BLACK
6
CONTINUOUS
10
94.4388
20
-108.755
11
94.4388
21
-108.909
0
LINE
8
BLACK
6
CONTINUOUS
10
94.4388
20
-108.909
11
94.4577
21
-108.985
0
LINE
8
BLACK
6
CONTINUOUS
10
94.4577
20
-108.985
11
94.4898
21
-109.017
0
LINE
8
BLACK
6
CONTINUOUS
10
94.4898
20
-109.017
11
94.5196
21
-109.032
0
LINE
8
BLACK
6
CONTINUOUS
10
94.5196
20
-109.032
11
94.5912
21
-109.032
0
LINE
8
BLACK
6
CONTINUOUS
10
94.5912
20
-109.032
11
94.621
21
-109.017
0
LINE
8
BLACK
6
CONTINUOUS
10
94.621
20
-109.017
11
94.6531
21
-108.985
0
LINE
8
BLACK
6
CONTINUOUS
10
94.6531
20
-108.985
11
94.6721
21
-108.909
0
LINE
8
BLACK
6
CONTINUOUS
10
94.6721
20
-108.909
11
94.6721
21
-108.755
0
LINE
8
BLACK
6
CONTINUOUS
10
94.6721
20
-108.755
11
94.6531
21
-108.679
0
LINE
8
BLACK
6
CONTINUOUS
10
94.6531
20
-108.679
11
94.621
21
-108.647
0
LINE
8
BLACK
6
CONTINUOUS
10
94.621
20
-108.647
11
94.5912
21
-108.632
0
LINE
8
BLACK
6
CONTINUOUS
10
94.5912
20
-108.632
11
94.5196
21
-108.632
0
LINE
8
BLACK
6
CONTINUOUS
10
94.5196
20
-108.632
11
94.4898
21
-108.647
0
LINE
8
BLACK
6
CONTINUOUS
10
94.09
20
-108.536
11
94.1016
21
-108.537
0
LINE
8
BLACK
6
CONTINUOUS
10
94.1016
20
-108.537
11
94.1492
21
-108.561
0
LINE
8
BLACK
6
CONTINUOUS
10
94.1492
20
-108.561
11
94.1546
21
-108.567
0
LINE
8
BLACK
6
CONTINUOUS
10
94.1546
20
-108.567
11
94.1622
21
-108.57
0
LINE
8
BLACK
6
CONTINUOUS
10
94.1622
20
-108.57
11
94.2098
21
-108.618
0
LINE
8
BLACK
6
CONTINUOUS
10
94.2098
20
-108.618
11
94.215
21
-108.63
0
LINE
8
BLACK
6
CONTINUOUS
10
94.215
20
-108.63
11
94.223
21
-108.641
0
LINE
8
BLACK
6
CONTINUOUS
10
94.223
20
-108.641
11
94.2468
21
-108.736
0
LINE
8
BLACK
6
CONTINUOUS
10
94.2468
20
-108.736
11
94.2459
21
-108.742
0
LINE
8
BLACK
6
CONTINUOUS
10
94.2459
20
-108.742
11
94.2483
21
-108.748
0
LINE
8
BLACK
6
CONTINUOUS
10
94.2483
20
-108.748
11
94.2483
21
-108.915
0
LINE
8
BLACK
6
CONTINUOUS
10
94.2483
20
-108.915
11
94.2459
21
-108.921
0
LINE
8
BLACK
6
CONTINUOUS
10
94.2459
20
-108.921
11
94.2468
21
-108.927
0
LINE
8
BLACK
6
CONTINUOUS
10
94.2468
20
-108.927
11
94.223
21
-109.022
0
LINE
8
BLACK
6
CONTINUOUS
10
94.223
20
-109.022
11
94.215
21
-109.033
0
LINE
8
BLACK
6
CONTINUOUS
10
94.215
20
-109.033
11
94.2098
21
-109.046
0
LINE
8
BLACK
6
CONTINUOUS
10
94.2098
20
-109.046
11
94.1622
21
-109.093
0
LINE
8
BLACK
6
CONTINUOUS
10
94.1622
20
-109.093
11
94.1546
21
-109.096
0
LINE
8
BLACK
6
CONTINUOUS
10
94.1546
20
-109.096
11
94.1492
21
-109.103
0
LINE
8
BLACK
6
CONTINUOUS
10
94.1492
20
-109.103
11
94.1016
21
-109.126
0
LINE
8
BLACK
6
CONTINUOUS
10
94.1016
20
-109.126
11
94.09
21
-109.127
0
LINE
8
BLACK
6
CONTINUOUS
10
94.09
20
-109.127
11
94.0792
21
-109.132
0
LINE
8
BLACK
6
CONTINUOUS
10
94.0792
20
-109.132
11
93.984
21
-109.132
0
LINE
8
BLACK
6
CONTINUOUS
10
93.984
20
-109.132
11
93.9732
21
-109.127
0
LINE
8
BLACK
6
CONTINUOUS
10
93.9732
20
-109.127
11
93.9616
21
-109.126
0
LINE
8
BLACK
6
CONTINUOUS
10
93.9616
20
-109.126
11
93.914
21
-109.103
0
LINE
8
BLACK
6
CONTINUOUS
10
93.914
20
-109.103
11
93.9086
21
-109.096
0
LINE
8
BLACK
6
CONTINUOUS
10
93.9086
20
-109.096
11
93.901
21
-109.093
0
LINE
8
BLACK
6
CONTINUOUS
10
93.901
20
-109.093
11
93.8534
21
-109.046
0
LINE
8
BLACK
6
CONTINUOUS
10
93.8534
20
-109.046
11
93.8483
21
-109.033
0
LINE
8
BLACK
6
CONTINUOUS
10
93.8483
20
-109.033
11
93.8403
21
-109.022
0
LINE
8
BLACK
6
CONTINUOUS
10
93.8403
20
-109.022
11
93.8164
21
-108.927
0
LINE
8
BLACK
6
CONTINUOUS
10
93.8164
20
-108.927
11
93.8174
21
-108.921
0
LINE
8
BLACK
6
CONTINUOUS
10
93.8174
20
-108.921
11
93.815
21
-108.915
0
LINE
8
BLACK
6
CONTINUOUS
10
93.815
20
-108.915
11
93.815
21
-108.748
0
LINE
8
BLACK
6
CONTINUOUS
10
93.815
20
-108.748
11
93.8174
21
-108.742
0
LINE
8
BLACK
6
CONTINUOUS
10
93.8174
20
-108.742
11
93.8164
21
-108.736
0
LINE
8
BLACK
6
CONTINUOUS
10
93.8164
20
-108.736
11
93.8403
21
-108.641
0
LINE
8
BLACK
6
CONTINUOUS
10
93.8403
20
-108.641
11
93.8483
21
-108.63
0
LINE
8
BLACK
6
CONTINUOUS
10
93.8483
20
-108.63
11
93.8534
21
-108.618
0
LINE
8
BLACK
6
CONTINUOUS
10
93.8534
20
-108.618
11
93.901
21
-108.57
0
LINE
8
BLACK
6
CONTINUOUS
10
93.901
20
-108.57
11
93.9086
21
-108.567
0
LINE
8
BLACK
6
CONTINUOUS
10
93.9086
20
-108.567
11
93.914
21
-108.561
0
LINE
8
BLACK
6
CONTINUOUS
10
93.914
20
-108.561
11
93.9616
21
-108.537
0
LINE
8
BLACK
6
CONTINUOUS
10
93.9616
20
-108.537
11
93.9732
21
-108.536
0
LINE
8
BLACK
6
CONTINUOUS
10
93.9732
20
-108.536
11
93.984
21
-108.532
0
LINE
8
BLACK
6
CONTINUOUS
10
93.984
20
-108.532
11
94.0792
21
-108.532
0
LINE
8
BLACK
6
CONTINUOUS
10
94.0792
20
-108.532
11
94.09
21
-108.536
0
LINE
8
BLACK
6
CONTINUOUS
10
93.966
20
-108.647
11
93.9339
21
-108.679
0
LINE
8
BLACK
6
CONTINUOUS
10
93.9339
20
-108.679
11
93.915
21
-108.755
0
LINE
8
BLACK
6
CONTINUOUS
10
93.915
20
-108.755
11
93.915
21
-108.909
0
LINE
8
BLACK
6
CONTINUOUS
10
93.915
20
-108.909
11
93.9339
21
-108.985
0
LINE
8
BLACK
6
CONTINUOUS
10
93.9339
20
-108.985
11
93.966
21
-109.017
0
LINE
8
BLACK
6
CONTINUOUS
10
93.966
20
-109.017
11
93.9958
21
-109.032
0
LINE
8
BLACK
6
CONTINUOUS
10
93.9958
20
-109.032
11
94.0674
21
-109.032
0
LINE
8
BLACK
6
CONTINUOUS
10
94.0674
20
-109.032
11
94.0972
21
-109.017
0
LINE
8
BLACK
6
CONTINUOUS
10
94.0972
20
-109.017
11
94.1293
21
-108.985
0
LINE
8
BLACK
6
CONTINUOUS
10
94.1293
20
-108.985
11
94.1483
21
-108.909
0
LINE
8
BLACK
6
CONTINUOUS
10
94.1483
20
-108.909
11
94.1483
21
-108.755
0
LINE
8
BLACK
6
CONTINUOUS
10
94.1483
20
-108.755
11
94.1293
21
-108.679
0
LINE
8
BLACK
6
CONTINUOUS
10
94.1293
20
-108.679
11
94.0972
21
-108.647
0
LINE
8
BLACK
6
CONTINUOUS
10
94.0972
20
-108.647
11
94.0674
21
-108.632
0
LINE
8
BLACK
6
CONTINUOUS
10
94.0674
20
-108.632
11
93.9958
21
-108.632
0
LINE
8
BLACK
6
CONTINUOUS
10
93.9958
20
-108.632
11
93.966
21
-108.647
0
LINE
8
BLACK
6
CONTINUOUS
10
93.5662
20
-108.536
11
93.5778
21
-108.537
0
LINE
8
BLACK
6
CONTINUOUS
10
93.5778
20
-108.537
11
93.6254
21
-108.561
0
LINE
8
BLACK
6
CONTINUOUS
10
93.6254
20
-108.561
11
93.6308
21
-108.567
0
LINE
8
BLACK
6
CONTINUOUS
10
93.6308
20
-108.567
11
93.6384
21
-108.57
0
LINE
8
BLACK
6
CONTINUOUS
10
93.6384
20
-108.57
11
93.6622
21
-108.594
0
LINE
8
BLACK
6
CONTINUOUS
10
93.6622
20
-108.594
11
93.6654
21
-108.602
0
LINE
8
BLACK
6
CONTINUOUS
10
93.6654
20
-108.602
11
93.6716
21
-108.607
0
LINE
8
BLACK
6
CONTINUOUS
10
93.6716
20
-108.607
11
93.6954
21
-108.655
0
LINE
8
BLACK
6
CONTINUOUS
10
93.6954
20
-108.655
11
93.6962
21
-108.666
0
LINE
8
BLACK
6
CONTINUOUS
10
93.6962
20
-108.666
11
93.7007
21
-108.677
0
LINE
8
BLACK
6
CONTINUOUS
10
93.7007
20
-108.677
11
93.7007
21
-108.725
0
LINE
8
BLACK
6
CONTINUOUS
10
93.7007
20
-108.725
11
93.6962
21
-108.735
0
LINE
8
BLACK
6
CONTINUOUS
10
93.6962
20
-108.735
11
93.6954
21
-108.747
0
LINE
8
BLACK
6
CONTINUOUS
10
93.6954
20
-108.747
11
93.6716
21
-108.795
0
LINE
8
BLACK
6
CONTINUOUS
10
93.6716
20
-108.795
11
93.6654
21
-108.8
0
LINE
8
BLACK
6
CONTINUOUS
10
93.6654
20
-108.8
11
93.6622
21
-108.808
0
LINE
8
BLACK
6
CONTINUOUS
10
93.6622
20
-108.808
11
93.6617
21
-108.808
0
LINE
8
BLACK
6
CONTINUOUS
10
93.6617
20
-108.808
11
93.6622
21
-108.808
0
LINE
8
BLACK
6
CONTINUOUS
10
93.6622
20
-108.808
11
93.686
21
-108.832
0
LINE
8
BLACK
6
CONTINUOUS
10
93.686
20
-108.832
11
93.6892
21
-108.84
0
LINE
8
BLACK
6
CONTINUOUS
10
93.6892
20
-108.84
11
93.6954
21
-108.845
0
LINE
8
BLACK
6
CONTINUOUS
10
93.6954
20
-108.845
11
93.7192
21
-108.893
0
LINE
8
BLACK
6
CONTINUOUS
10
93.7192
20
-108.893
11
93.72
21
-108.904
0
LINE
8
BLACK
6
CONTINUOUS
10
93.72
20
-108.904
11
93.7245
21
-108.915
0
LINE
8
BLACK
6
CONTINUOUS
10
93.7245
20
-108.915
11
93.7245
21
-108.986
0
LINE
8
BLACK
6
CONTINUOUS
10
93.7245
20
-108.986
11
93.72
21
-108.997
0
LINE
8
BLACK
6
CONTINUOUS
10
93.72
20
-108.997
11
93.7192
21
-109.009
0
LINE
8
BLACK
6
CONTINUOUS
10
93.7192
20
-109.009
11
93.6954
21
-109.056
0
LINE
8
BLACK
6
CONTINUOUS
10
93.6954
20
-109.056
11
93.6892
21
-109.062
0
LINE
8
BLACK
6
CONTINUOUS
10
93.6892
20
-109.062
11
93.686
21
-109.069
0
LINE
8
BLACK
6
CONTINUOUS
10
93.686
20
-109.069
11
93.6622
21
-109.093
0
LINE
8
BLACK
6
CONTINUOUS
10
93.6622
20
-109.093
11
93.6546
21
-109.096
0
LINE
8
BLACK
6
CONTINUOUS
10
93.6546
20
-109.096
11
93.6492
21
-109.103
0
LINE
8
BLACK
6
CONTINUOUS
10
93.6492
20
-109.103
11
93.6016
21
-109.126
0
LINE
8
BLACK
6
CONTINUOUS
10
93.6016
20
-109.126
11
93.59
21
-109.127
0
LINE
8
BLACK
6
CONTINUOUS
10
93.59
20
-109.127
11
93.5792
21
-109.132
0
LINE
8
BLACK
6
CONTINUOUS
10
93.5792
20
-109.132
11
93.3888
21
-109.132
0
LINE
8
BLACK
6
CONTINUOUS
10
93.3888
20
-109.132
11
93.3534
21
-109.117
0
LINE
8
BLACK
6
CONTINUOUS
10
93.3534
20
-109.117
11
93.3388
21
-109.082
0
LINE
8
BLACK
6
CONTINUOUS
10
93.3388
20
-109.082
11
93.3388
21
-108.582
0
LINE
8
BLACK
6
CONTINUOUS
10
93.3388
20
-108.582
11
93.3534
21
-108.546
0
LINE
8
BLACK
6
CONTINUOUS
10
93.3534
20
-108.546
11
93.3888
21
-108.532
0
LINE
8
BLACK
6
CONTINUOUS
10
93.3888
20
-108.532
11
93.5554
21
-108.532
0
LINE
8
BLACK
6
CONTINUOUS
10
93.5554
20
-108.532
11
93.5662
21
-108.536
0
LINE
8
BLACK
6
CONTINUOUS
10
93.4388
20
-109.032
11
93.5674
21
-109.032
0
LINE
8
BLACK
6
CONTINUOUS
10
93.5674
20
-109.032
11
93.5972
21
-109.017
0
LINE
8
BLACK
6
CONTINUOUS
10
93.5972
20
-109.017
11
93.6096
21
-109.004
0
LINE
8
BLACK
6
CONTINUOUS
10
93.6096
20
-109.004
11
93.6245
21
-108.975
0
LINE
8
BLACK
6
CONTINUOUS
10
93.6245
20
-108.975
11
93.6245
21
-108.927
0
LINE
8
BLACK
6
CONTINUOUS
10
93.6245
20
-108.927
11
93.6096
21
-108.897
0
LINE
8
BLACK
6
CONTINUOUS
10
93.6096
20
-108.897
11
93.5998
21
-108.887
0
LINE
8
BLACK
6
CONTINUOUS
10
93.5998
20
-108.887
11
93.5473
21
-108.87
0
LINE
8
BLACK
6
CONTINUOUS
10
93.5473
20
-108.87
11
93.4388
21
-108.87
0
LINE
8
BLACK
6
CONTINUOUS
10
93.4388
20
-108.87
11
93.4388
21
-109.032
0
LINE
8
BLACK
6
CONTINUOUS
10
93.4388
20
-108.77
11
93.5436
21
-108.77
0
LINE
8
BLACK
6
CONTINUOUS
10
93.5436
20
-108.77
11
93.5734
21
-108.755
0
LINE
8
BLACK
6
CONTINUOUS
10
93.5734
20
-108.755
11
93.5858
21
-108.743
0
LINE
8
BLACK
6
CONTINUOUS
10
93.5858
20
-108.743
11
93.6007
21
-108.713
0
LINE
8
BLACK
6
CONTINUOUS
10
93.6007
20
-108.713
11
93.6007
21
-108.689
0
LINE
8
BLACK
6
CONTINUOUS
10
93.6007
20
-108.689
11
93.5858
21
-108.659
0
LINE
8
BLACK
6
CONTINUOUS
10
93.5858
20
-108.659
11
93.5734
21
-108.647
0
LINE
8
BLACK
6
CONTINUOUS
10
93.5734
20
-108.647
11
93.5436
21
-108.632
0
LINE
8
BLACK
6
CONTINUOUS
10
93.5436
20
-108.632
11
93.4388
21
-108.632
0
LINE
8
BLACK
6
CONTINUOUS
10
93.4388
20
-108.632
11
93.4388
21
-108.77
0
LINE
8
BLACK
6
CONTINUOUS
10
128.539
20
-107.564
11
128.554
21
-107.565
0
LINE
8
BLACK
6
CONTINUOUS
10
128.554
20
-107.565
11
128.601
21
-107.589
0
LINE
8
BLACK
6
CONTINUOUS
10
128.601
20
-107.589
11
128.608
21
-107.597
0
LINE
8
BLACK
6
CONTINUOUS
10
128.608
20
-107.597
11
128.617
21
-107.601
0
LINE
8
BLACK
6
CONTINUOUS
10
128.617
20
-107.601
11
128.641
21
-107.624
0
LINE
8
BLACK
6
CONTINUOUS
10
128.641
20
-107.624
11
128.645
21
-107.634
0
LINE
8
BLACK
6
CONTINUOUS
10
128.645
20
-107.634
11
128.653
21
-107.641
0
LINE
8
BLACK
6
CONTINUOUS
10
128.653
20
-107.641
11
128.677
21
-107.688
0
LINE
8
BLACK
6
CONTINUOUS
10
128.677
20
-107.688
11
128.678
21
-107.703
0
LINE
8
BLACK
6
CONTINUOUS
10
128.678
20
-107.703
11
128.683
21
-107.716
0
LINE
8
BLACK
6
CONTINUOUS
10
128.683
20
-107.716
11
128.683
21
-107.835
0
LINE
8
BLACK
6
CONTINUOUS
10
128.683
20
-107.835
11
128.679
21
-107.845
0
LINE
8
BLACK
6
CONTINUOUS
10
128.679
20
-107.845
11
128.68
21
-107.855
0
LINE
8
BLACK
6
CONTINUOUS
10
128.68
20
-107.855
11
128.656
21
-107.926
0
LINE
8
BLACK
6
CONTINUOUS
10
128.656
20
-107.926
11
128.625
21
-107.963
0
LINE
8
BLACK
6
CONTINUOUS
10
128.625
20
-107.963
11
128.577
21
-107.966
0
LINE
8
BLACK
6
CONTINUOUS
10
128.577
20
-107.966
11
128.541
21
-107.935
0
LINE
8
BLACK
6
CONTINUOUS
10
128.541
20
-107.935
11
128.538
21
-107.887
0
LINE
8
BLACK
6
CONTINUOUS
10
128.538
20
-107.887
11
128.558
21
-107.825
0
LINE
8
BLACK
6
CONTINUOUS
10
128.558
20
-107.825
11
128.558
21
-107.731
0
LINE
8
BLACK
6
CONTINUOUS
10
128.558
20
-107.731
11
128.546
21
-107.706
0
LINE
8
BLACK
6
CONTINUOUS
10
128.546
20
-107.706
11
128.536
21
-107.696
0
LINE
8
BLACK
6
CONTINUOUS
10
128.536
20
-107.696
11
128.511
21
-107.683
0
LINE
8
BLACK
6
CONTINUOUS
10
128.511
20
-107.683
11
128.493
21
-107.683
0
LINE
8
BLACK
6
CONTINUOUS
10
128.493
20
-107.683
11
128.467
21
-107.696
0
LINE
8
BLACK
6
CONTINUOUS
10
128.467
20
-107.696
11
128.458
21
-107.706
0
LINE
8
BLACK
6
CONTINUOUS
10
128.458
20
-107.706
11
128.442
21
-107.738
0
LINE
8
BLACK
6
CONTINUOUS
10
128.442
20
-107.738
11
128.42
21
-107.827
0
LINE
8
BLACK
6
CONTINUOUS
10
128.42
20
-107.827
11
128.415
21
-107.832
0
LINE
8
BLACK
6
CONTINUOUS
10
128.415
20
-107.832
11
128.415
21
-107.839
0
LINE
8
BLACK
6
CONTINUOUS
10
128.415
20
-107.839
11
128.391
21
-107.887
0
LINE
8
BLACK
6
CONTINUOUS
10
128.391
20
-107.887
11
128.383
21
-107.894
0
LINE
8
BLACK
6
CONTINUOUS
10
128.383
20
-107.894
11
128.379
21
-107.903
0
LINE
8
BLACK
6
CONTINUOUS
10
128.379
20
-107.903
11
128.356
21
-107.927
0
LINE
8
BLACK
6
CONTINUOUS
10
128.356
20
-107.927
11
128.346
21
-107.931
0
LINE
8
BLACK
6
CONTINUOUS
10
128.346
20
-107.931
11
128.339
21
-107.939
0
LINE
8
BLACK
6
CONTINUOUS
10
128.339
20
-107.939
11
128.292
21
-107.963
0
LINE
8
BLACK
6
CONTINUOUS
10
128.292
20
-107.963
11
128.277
21
-107.964
0
LINE
8
BLACK
6
CONTINUOUS
10
128.277
20
-107.964
11
128.264
21
-107.969
0
LINE
8
BLACK
6
CONTINUOUS
10
128.264
20
-107.969
11
128.216
21
-107.969
0
LINE
8
BLACK
6
CONTINUOUS
10
128.216
20
-107.969
11
128.203
21
-107.964
0
LINE
8
BLACK
6
CONTINUOUS
10
128.203
20
-107.964
11
128.188
21
-107.963
0
LINE
8
BLACK
6
CONTINUOUS
10
128.188
20
-107.963
11
128.141
21
-107.939
0
LINE
8
BLACK
6
CONTINUOUS
10
128.141
20
-107.939
11
128.134
21
-107.931
0
LINE
8
BLACK
6
CONTINUOUS
10
128.134
20
-107.931
11
128.124
21
-107.927
0
LINE
8
BLACK
6
CONTINUOUS
10
128.124
20
-107.927
11
128.101
21
-107.903
0
LINE
8
BLACK
6
CONTINUOUS
10
128.101
20
-107.903
11
128.097
21
-107.894
0
LINE
8
BLACK
6
CONTINUOUS
10
128.097
20
-107.894
11
128.089
21
-107.887
0
LINE
8
BLACK
6
CONTINUOUS
10
128.089
20
-107.887
11
128.065
21
-107.839
0
LINE
8
BLACK
6
CONTINUOUS
10
128.065
20
-107.839
11
128.064
21
-107.825
0
LINE
8
BLACK
6
CONTINUOUS
10
128.064
20
-107.825
11
128.058
21
-107.811
0
LINE
8
BLACK
6
CONTINUOUS
10
128.058
20
-107.811
11
128.058
21
-107.692
0
LINE
8
BLACK
6
CONTINUOUS
10
128.058
20
-107.692
11
128.062
21
-107.683
0
LINE
8
BLACK
6
CONTINUOUS
10
128.062
20
-107.683
11
128.062
21
-107.673
0
LINE
8
BLACK
6
CONTINUOUS
10
128.062
20
-107.673
11
128.085
21
-107.601
0
LINE
8
BLACK
6
CONTINUOUS
10
128.085
20
-107.601
11
128.117
21
-107.565
0
LINE
8
BLACK
6
CONTINUOUS
10
128.117
20
-107.565
11
128.164
21
-107.562
0
LINE
8
BLACK
6
CONTINUOUS
10
128.164
20
-107.562
11
128.201
21
-107.593
0
LINE
8
BLACK
6
CONTINUOUS
10
128.201
20
-107.593
11
128.204
21
-107.641
0
LINE
8
BLACK
6
CONTINUOUS
10
128.204
20
-107.641
11
128.183
21
-107.703
0
LINE
8
BLACK
6
CONTINUOUS
10
128.183
20
-107.703
11
128.183
21
-107.797
0
LINE
8
BLACK
6
CONTINUOUS
10
128.183
20
-107.797
11
128.196
21
-107.822
0
LINE
8
BLACK
6
CONTINUOUS
10
128.196
20
-107.822
11
128.206
21
-107.831
0
LINE
8
BLACK
6
CONTINUOUS
10
128.206
20
-107.831
11
128.231
21
-107.844
0
LINE
8
BLACK
6
CONTINUOUS
10
128.231
20
-107.844
11
128.249
21
-107.844
0
LINE
8
BLACK
6
CONTINUOUS
10
128.249
20
-107.844
11
128.274
21
-107.831
0
LINE
8
BLACK
6
CONTINUOUS
10
128.274
20
-107.831
11
128.284
21
-107.822
0
LINE
8
BLACK
6
CONTINUOUS
10
128.284
20
-107.822
11
128.3
21
-107.79
0
LINE
8
BLACK
6
CONTINUOUS
10
128.3
20
-107.79
11
128.322
21
-107.701
0
LINE
8
BLACK
6
CONTINUOUS
10
128.322
20
-107.701
11
128.326
21
-107.695
0
LINE
8
BLACK
6
CONTINUOUS
10
128.326
20
-107.695
11
128.327
21
-107.688
0
LINE
8
BLACK
6
CONTINUOUS
10
128.327
20
-107.688
11
128.351
21
-107.641
0
LINE
8
BLACK
6
CONTINUOUS
10
128.351
20
-107.641
11
128.358
21
-107.634
0
LINE
8
BLACK
6
CONTINUOUS
10
128.358
20
-107.634
11
128.362
21
-107.624
0
LINE
8
BLACK
6
CONTINUOUS
10
128.362
20
-107.624
11
128.386
21
-107.601
0
LINE
8
BLACK
6
CONTINUOUS
10
128.386
20
-107.601
11
128.396
21
-107.597
0
LINE
8
BLACK
6
CONTINUOUS
10
128.396
20
-107.597
11
128.402
21
-107.589
0
LINE
8
BLACK
6
CONTINUOUS
10
128.402
20
-107.589
11
128.45
21
-107.565
0
LINE
8
BLACK
6
CONTINUOUS
10
128.45
20
-107.565
11
128.465
21
-107.564
0
LINE
8
BLACK
6
CONTINUOUS
10
128.465
20
-107.564
11
128.478
21
-107.558
0
LINE
8
BLACK
6
CONTINUOUS
10
128.478
20
-107.558
11
128.526
21
-107.558
0
LINE
8
BLACK
6
CONTINUOUS
10
128.526
20
-107.558
11
128.539
21
-107.564
0
LINE
8
BLACK
6
CONTINUOUS
10
128.635
20
-107.084
11
128.643
21
-107.089
0
LINE
8
BLACK
6
CONTINUOUS
10
128.643
20
-107.089
11
128.652
21
-107.091
0
LINE
8
BLACK
6
CONTINUOUS
10
128.652
20
-107.091
11
128.662
21
-107.103
0
LINE
8
BLACK
6
CONTINUOUS
10
128.662
20
-107.103
11
128.674
21
-107.112
0
LINE
8
BLACK
6
CONTINUOUS
10
128.674
20
-107.112
11
128.676
21
-107.121
0
LINE
8
BLACK
6
CONTINUOUS
10
128.676
20
-107.121
11
128.681
21
-107.129
0
LINE
8
BLACK
6
CONTINUOUS
10
128.681
20
-107.129
11
128.679
21
-107.144
0
LINE
8
BLACK
6
CONTINUOUS
10
128.679
20
-107.144
11
128.682
21
-107.159
0
LINE
8
BLACK
6
CONTINUOUS
10
128.682
20
-107.159
11
128.676
21
-107.167
0
LINE
8
BLACK
6
CONTINUOUS
10
128.676
20
-107.167
11
128.675
21
-107.176
0
LINE
8
BLACK
6
CONTINUOUS
10
128.675
20
-107.176
11
128.663
21
-107.185
0
LINE
8
BLACK
6
CONTINUOUS
10
128.663
20
-107.185
11
128.654
21
-107.198
0
LINE
8
BLACK
6
CONTINUOUS
10
128.654
20
-107.198
11
128.644
21
-107.199
0
LINE
8
BLACK
6
CONTINUOUS
10
128.644
20
-107.199
11
128.637
21
-107.205
0
LINE
8
BLACK
6
CONTINUOUS
10
128.637
20
-107.205
11
128.506
21
-107.24
0
LINE
8
BLACK
6
CONTINUOUS
10
128.506
20
-107.24
11
128.637
21
-107.275
0
LINE
8
BLACK
6
CONTINUOUS
10
128.637
20
-107.275
11
128.644
21
-107.281
0
LINE
8
BLACK
6
CONTINUOUS
10
128.644
20
-107.281
11
128.654
21
-107.282
0
LINE
8
BLACK
6
CONTINUOUS
10
128.654
20
-107.282
11
128.663
21
-107.295
0
LINE
8
BLACK
6
CONTINUOUS
10
128.663
20
-107.295
11
128.675
21
-107.304
0
LINE
8
BLACK
6
CONTINUOUS
10
128.675
20
-107.304
11
128.676
21
-107.313
0
LINE
8
BLACK
6
CONTINUOUS
10
128.676
20
-107.313
11
128.682
21
-107.321
0
LINE
8
BLACK
6
CONTINUOUS
10
128.682
20
-107.321
11
128.679
21
-107.336
0
LINE
8
BLACK
6
CONTINUOUS
10
128.679
20
-107.336
11
128.681
21
-107.351
0
LINE
8
BLACK
6
CONTINUOUS
10
128.681
20
-107.351
11
128.676
21
-107.359
0
LINE
8
BLACK
6
CONTINUOUS
10
128.676
20
-107.359
11
128.674
21
-107.368
0
LINE
8
BLACK
6
CONTINUOUS
10
128.674
20
-107.368
11
128.662
21
-107.377
0
LINE
8
BLACK
6
CONTINUOUS
10
128.662
20
-107.377
11
128.652
21
-107.389
0
LINE
8
BLACK
6
CONTINUOUS
10
128.652
20
-107.389
11
128.643
21
-107.391
0
LINE
8
BLACK
6
CONTINUOUS
10
128.643
20
-107.391
11
128.635
21
-107.396
0
LINE
8
BLACK
6
CONTINUOUS
10
128.635
20
-107.396
11
128.135
21
-107.515
0
LINE
8
BLACK
6
CONTINUOUS
10
128.135
20
-107.515
11
128.088
21
-107.508
0
LINE
8
BLACK
6
CONTINUOUS
10
128.088
20
-107.508
11
128.06
21
-107.469
0
LINE
8
BLACK
6
CONTINUOUS
10
128.06
20
-107.469
11
128.068
21
-107.422
0
LINE
8
BLACK
6
CONTINUOUS
10
128.068
20
-107.422
11
128.106
21
-107.393
0
LINE
8
BLACK
6
CONTINUOUS
10
128.106
20
-107.393
11
128.365
21
-107.332
0
LINE
8
BLACK
6
CONTINUOUS
10
128.365
20
-107.332
11
128.248
21
-107.3
0
LINE
8
BLACK
6
CONTINUOUS
10
128.248
20
-107.3
11
128.241
21
-107.295
0
LINE
8
BLACK
6
CONTINUOUS
10
128.241
20
-107.295
11
128.232
21
-107.294
0
LINE
8
BLACK
6
CONTINUOUS
10
128.232
20
-107.294
11
128.223
21
-107.281
0
LINE
8
BLACK
6
CONTINUOUS
10
128.223
20
-107.281
11
128.21
21
-107.271
0
LINE
8
BLACK
6
CONTINUOUS
10
128.21
20
-107.271
11
128.209
21
-107.263
0
LINE
8
BLACK
6
CONTINUOUS
10
128.209
20
-107.263
11
128.203
21
-107.256
0
LINE
8
BLACK
6
CONTINUOUS
10
128.203
20
-107.256
11
128.205
21
-107.24
0
LINE
8
BLACK
6
CONTINUOUS
10
128.205
20
-107.24
11
128.203
21
-107.224
0
LINE
8
BLACK
6
CONTINUOUS
10
128.203
20
-107.224
11
128.209
21
-107.217
0
LINE
8
BLACK
6
CONTINUOUS
10
128.209
20
-107.217
11
128.21
21
-107.209
0
LINE
8
BLACK
6
CONTINUOUS
10
128.21
20
-107.209
11
128.223
21
-107.199
0
LINE
8
BLACK
6
CONTINUOUS
10
128.223
20
-107.199
11
128.232
21
-107.186
0
LINE
8
BLACK
6
CONTINUOUS
10
128.232
20
-107.186
11
128.241
21
-107.185
0
LINE
8
BLACK
6
CONTINUOUS
10
128.241
20
-107.185
11
128.248
21
-107.18
0
LINE
8
BLACK
6
CONTINUOUS
10
128.248
20
-107.18
11
128.365
21
-107.148
0
LINE
8
BLACK
6
CONTINUOUS
10
128.365
20
-107.148
11
128.106
21
-107.087
0
LINE
8
BLACK
6
CONTINUOUS
10
128.106
20
-107.087
11
128.068
21
-107.058
0
LINE
8
BLACK
6
CONTINUOUS
10
128.068
20
-107.058
11
128.06
21
-107.011
0
LINE
8
BLACK
6
CONTINUOUS
10
128.06
20
-107.011
11
128.088
21
-106.972
0
LINE
8
BLACK
6
CONTINUOUS
10
128.088
20
-106.972
11
128.135
21
-106.965
0
LINE
8
BLACK
6
CONTINUOUS
10
128.135
20
-106.965
11
128.635
21
-107.084
0
LINE
8
BLACK
6
CONTINUOUS
10
128.273
20
-106.515
11
128.284
21
-106.514
0
LINE
8
BLACK
6
CONTINUOUS
10
128.284
20
-106.514
11
128.355
21
-106.538
0
LINE
8
BLACK
6
CONTINUOUS
10
128.355
20
-106.538
11
128.366
21
-106.547
0
LINE
8
BLACK
6
CONTINUOUS
10
128.366
20
-106.547
11
128.379
21
-106.553
0
LINE
8
BLACK
6
CONTINUOUS
10
128.379
20
-106.553
11
128.558
21
-106.732
0
LINE
8
BLACK
6
CONTINUOUS
10
128.558
20
-106.732
11
128.558
21
-106.573
0
LINE
8
BLACK
6
CONTINUOUS
10
128.558
20
-106.573
11
128.577
21
-106.529
0
LINE
8
BLACK
6
CONTINUOUS
10
128.577
20
-106.529
11
128.621
21
-106.511
0
LINE
8
BLACK
6
CONTINUOUS
10
128.621
20
-106.511
11
128.665
21
-106.529
0
LINE
8
BLACK
6
CONTINUOUS
10
128.665
20
-106.529
11
128.683
21
-106.573
0
LINE
8
BLACK
6
CONTINUOUS
10
128.683
20
-106.573
11
128.683
21
-106.883
0
LINE
8
BLACK
6
CONTINUOUS
10
128.683
20
-106.883
11
128.665
21
-106.927
0
LINE
8
BLACK
6
CONTINUOUS
10
128.665
20
-106.927
11
128.621
21
-106.945
0
LINE
8
BLACK
6
CONTINUOUS
10
128.621
20
-106.945
11
128.577
21
-106.927
0
LINE
8
BLACK
6
CONTINUOUS
10
128.577
20
-106.927
11
128.577
21
-106.927
0
LINE
8
BLACK
6
CONTINUOUS
10
128.577
20
-106.927
11
128.301
21
-106.652
0
LINE
8
BLACK
6
CONTINUOUS
10
128.301
20
-106.652
11
128.254
21
-106.636
0
LINE
8
BLACK
6
CONTINUOUS
10
128.254
20
-106.636
11
128.231
21
-106.636
0
LINE
8
BLACK
6
CONTINUOUS
10
128.231
20
-106.636
11
128.206
21
-106.649
0
LINE
8
BLACK
6
CONTINUOUS
10
128.206
20
-106.649
11
128.196
21
-106.658
0
LINE
8
BLACK
6
CONTINUOUS
10
128.196
20
-106.658
11
128.183
21
-106.683
0
LINE
8
BLACK
6
CONTINUOUS
10
128.183
20
-106.683
11
128.183
21
-106.773
0
LINE
8
BLACK
6
CONTINUOUS
10
128.183
20
-106.773
11
128.196
21
-106.798
0
LINE
8
BLACK
6
CONTINUOUS
10
128.196
20
-106.798
11
128.213
21
-106.815
0
LINE
8
BLACK
6
CONTINUOUS
10
128.213
20
-106.815
11
128.231
21
-106.859
0
LINE
8
BLACK
6
CONTINUOUS
10
128.231
20
-106.859
11
128.213
21
-106.903
0
LINE
8
BLACK
6
CONTINUOUS
10
128.213
20
-106.903
11
128.169
21
-106.922
0
LINE
8
BLACK
6
CONTINUOUS
10
128.169
20
-106.922
11
128.124
21
-106.903
0
LINE
8
BLACK
6
CONTINUOUS
10
128.124
20
-106.903
11
128.101
21
-106.879
0
LINE
8
BLACK
6
CONTINUOUS
10
128.101
20
-106.879
11
128.097
21
-106.87
0
LINE
8
BLACK
6
CONTINUOUS
10
128.097
20
-106.87
11
128.089
21
-106.863
0
LINE
8
BLACK
6
CONTINUOUS
10
128.089
20
-106.863
11
128.065
21
-106.816
0
LINE
8
BLACK
6
CONTINUOUS
10
128.065
20
-106.816
11
128.064
21
-106.801
0
LINE
8
BLACK
6
CONTINUOUS
10
128.064
20
-106.801
11
128.058
21
-106.788
0
LINE
8
BLACK
6
CONTINUOUS
10
128.058
20
-106.788
11
128.058
21
-106.669
0
LINE
8
BLACK
6
CONTINUOUS
10
128.058
20
-106.669
11
128.064
21
-106.655
0
LINE
8
BLACK
6
CONTINUOUS
10
128.064
20
-106.655
11
128.065
21
-106.641
0
LINE
8
BLACK
6
CONTINUOUS
10
128.065
20
-106.641
11
128.089
21
-106.593
0
LINE
8
BLACK
6
CONTINUOUS
10
128.089
20
-106.593
11
128.097
21
-106.586
0
LINE
8
BLACK
6
CONTINUOUS
10
128.097
20
-106.586
11
128.101
21
-106.577
0
LINE
8
BLACK
6
CONTINUOUS
10
128.101
20
-106.577
11
128.124
21
-106.553
0
LINE
8
BLACK
6
CONTINUOUS
10
128.124
20
-106.553
11
128.134
21
-106.549
0
LINE
8
BLACK
6
CONTINUOUS
10
128.134
20
-106.549
11
128.141
21
-106.541
0
LINE
8
BLACK
6
CONTINUOUS
10
128.141
20
-106.541
11
128.188
21
-106.517
0
LINE
8
BLACK
6
CONTINUOUS
10
128.188
20
-106.517
11
128.203
21
-106.516
0
LINE
8
BLACK
6
CONTINUOUS
10
128.203
20
-106.516
11
128.216
21
-106.511
0
LINE
8
BLACK
6
CONTINUOUS
10
128.216
20
-106.511
11
128.264
21
-106.511
0
LINE
8
BLACK
6
CONTINUOUS
10
128.264
20
-106.511
11
128.273
21
-106.515
0
LINE
8
BLACK
6
CONTINUOUS
10
129.44
20
-103.555
11
129.455
21
-103.591
0
LINE
8
BLACK
6
CONTINUOUS
10
129.455
20
-103.591
11
129.455
21
-103.769
0
LINE
8
BLACK
6
CONTINUOUS
10
129.455
20
-103.769
11
129.633
21
-103.769
0
LINE
8
BLACK
6
CONTINUOUS
10
129.633
20
-103.769
11
129.669
21
-103.784
0
LINE
8
BLACK
6
CONTINUOUS
10
129.669
20
-103.784
11
129.683
21
-103.819
0
LINE
8
BLACK
6
CONTINUOUS
10
129.683
20
-103.819
11
129.669
21
-103.855
0
LINE
8
BLACK
6
CONTINUOUS
10
129.669
20
-103.855
11
129.633
21
-103.869
0
LINE
8
BLACK
6
CONTINUOUS
10
129.633
20
-103.869
11
129.455
21
-103.869
0
LINE
8
BLACK
6
CONTINUOUS
10
129.455
20
-103.869
11
129.455
21
-104.048
0
LINE
8
BLACK
6
CONTINUOUS
10
129.455
20
-104.048
11
129.44
21
-104.083
0
LINE
8
BLACK
6
CONTINUOUS
10
129.44
20
-104.083
11
129.405
21
-104.098
0
LINE
8
BLACK
6
CONTINUOUS
10
129.405
20
-104.098
11
129.37
21
-104.083
0
LINE
8
BLACK
6
CONTINUOUS
10
129.37
20
-104.083
11
129.355
21
-104.048
0
LINE
8
BLACK
6
CONTINUOUS
10
129.355
20
-104.048
11
129.355
21
-103.869
0
LINE
8
BLACK
6
CONTINUOUS
10
129.355
20
-103.869
11
129.176
21
-103.869
0
LINE
8
BLACK
6
CONTINUOUS
10
129.176
20
-103.869
11
129.141
21
-103.855
0
LINE
8
BLACK
6
CONTINUOUS
10
129.141
20
-103.855
11
129.126
21
-103.819
0
LINE
8
BLACK
6
CONTINUOUS
10
129.126
20
-103.819
11
129.141
21
-103.784
0
LINE
8
BLACK
6
CONTINUOUS
10
129.141
20
-103.784
11
129.176
21
-103.769
0
LINE
8
BLACK
6
CONTINUOUS
10
129.176
20
-103.769
11
129.355
21
-103.769
0
LINE
8
BLACK
6
CONTINUOUS
10
129.355
20
-103.769
11
129.355
21
-103.591
0
LINE
8
BLACK
6
CONTINUOUS
10
129.355
20
-103.591
11
129.37
21
-103.555
0
LINE
8
BLACK
6
CONTINUOUS
10
129.37
20
-103.555
11
129.405
21
-103.541
0
LINE
8
BLACK
6
CONTINUOUS
10
129.405
20
-103.541
11
129.44
21
-103.555
0
LINE
8
BLACK
6
CONTINUOUS
10
125.741
20
-103.604
11
125.776
21
-103.619
0
LINE
8
BLACK
6
CONTINUOUS
10
125.776
20
-103.619
11
125.805
21
-103.647
0
LINE
8
BLACK
6
CONTINUOUS
10
125.805
20
-103.647
11
125.809
21
-103.658
0
LINE
8
BLACK
6
CONTINUOUS
10
125.809
20
-103.658
11
125.817
21
-103.667
0
LINE
8
BLACK
6
CONTINUOUS
10
125.817
20
-103.667
11
125.845
21
-103.753
0
LINE
8
BLACK
6
CONTINUOUS
10
125.845
20
-103.753
11
125.845
21
-103.761
0
LINE
8
BLACK
6
CONTINUOUS
10
125.845
20
-103.761
11
125.848
21
-103.768
0
LINE
8
BLACK
6
CONTINUOUS
10
125.848
20
-103.768
11
125.848
21
-103.826
0
LINE
8
BLACK
6
CONTINUOUS
10
125.848
20
-103.826
11
125.845
21
-103.833
0
LINE
8
BLACK
6
CONTINUOUS
10
125.845
20
-103.833
11
125.845
21
-103.841
0
LINE
8
BLACK
6
CONTINUOUS
10
125.845
20
-103.841
11
125.817
21
-103.927
0
LINE
8
BLACK
6
CONTINUOUS
10
125.817
20
-103.927
11
125.809
21
-103.936
0
LINE
8
BLACK
6
CONTINUOUS
10
125.809
20
-103.936
11
125.805
21
-103.947
0
LINE
8
BLACK
6
CONTINUOUS
10
125.805
20
-103.947
11
125.748
21
-104.004
0
LINE
8
BLACK
6
CONTINUOUS
10
125.748
20
-104.004
11
125.74
21
-104.007
0
LINE
8
BLACK
6
CONTINUOUS
10
125.74
20
-104.007
11
125.735
21
-104.013
0
LINE
8
BLACK
6
CONTINUOUS
10
125.735
20
-104.013
11
125.678
21
-104.042
0
LINE
8
BLACK
6
CONTINUOUS
10
125.678
20
-104.042
11
125.672
21
-104.042
0
LINE
8
BLACK
6
CONTINUOUS
10
125.672
20
-104.042
11
125.667
21
-104.046
0
LINE
8
BLACK
6
CONTINUOUS
10
125.667
20
-104.046
11
125.553
21
-104.074
0
LINE
8
BLACK
6
CONTINUOUS
10
125.553
20
-104.074
11
125.547
21
-104.073
0
LINE
8
BLACK
6
CONTINUOUS
10
125.547
20
-104.073
11
125.541
21
-104.076
0
LINE
8
BLACK
6
CONTINUOUS
10
125.541
20
-104.076
11
125.455
21
-104.076
0
LINE
8
BLACK
6
CONTINUOUS
10
125.455
20
-104.076
11
125.449
21
-104.073
0
LINE
8
BLACK
6
CONTINUOUS
10
125.449
20
-104.073
11
125.443
21
-104.074
0
LINE
8
BLACK
6
CONTINUOUS
10
125.443
20
-104.074
11
125.329
21
-104.046
0
LINE
8
BLACK
6
CONTINUOUS
10
125.329
20
-104.046
11
125.324
21
-104.042
0
LINE
8
BLACK
6
CONTINUOUS
10
125.324
20
-104.042
11
125.319
21
-104.042
0
LINE
8
BLACK
6
CONTINUOUS
10
125.319
20
-104.042
11
125.261
21
-104.013
0
LINE
8
BLACK
6
CONTINUOUS
10
125.261
20
-104.013
11
125.256
21
-104.007
0
LINE
8
BLACK
6
CONTINUOUS
10
125.256
20
-104.007
11
125.248
21
-104.004
0
LINE
8
BLACK
6
CONTINUOUS
10
125.248
20
-104.004
11
125.191
21
-103.947
0
LINE
8
BLACK
6
CONTINUOUS
10
125.191
20
-103.947
11
125.187
21
-103.936
0
LINE
8
BLACK
6
CONTINUOUS
10
125.187
20
-103.936
11
125.179
21
-103.927
0
LINE
8
BLACK
6
CONTINUOUS
10
125.179
20
-103.927
11
125.151
21
-103.841
0
LINE
8
BLACK
6
CONTINUOUS
10
125.151
20
-103.841
11
125.151
21
-103.833
0
LINE
8
BLACK
6
CONTINUOUS
10
125.151
20
-103.833
11
125.148
21
-103.826
0
LINE
8
BLACK
6
CONTINUOUS
10
125.148
20
-103.826
11
125.148
21
-103.74
0
LINE
8
BLACK
6
CONTINUOUS
10
125.148
20
-103.74
11
125.152
21
-103.729
0
LINE
8
BLACK
6
CONTINUOUS
10
125.152
20
-103.729
11
125.153
21
-103.718
0
LINE
8
BLACK
6
CONTINUOUS
10
125.153
20
-103.718
11
125.182
21
-103.66
0
LINE
8
BLACK
6
CONTINUOUS
10
125.182
20
-103.66
11
125.211
21
-103.635
0
LINE
8
BLACK
6
CONTINUOUS
10
125.211
20
-103.635
11
125.249
21
-103.638
0
LINE
8
BLACK
6
CONTINUOUS
10
125.249
20
-103.638
11
125.274
21
-103.667
0
LINE
8
BLACK
6
CONTINUOUS
10
125.274
20
-103.667
11
125.271
21
-103.705
0
LINE
8
BLACK
6
CONTINUOUS
10
125.271
20
-103.705
11
125.248
21
-103.752
0
LINE
8
BLACK
6
CONTINUOUS
10
125.248
20
-103.752
11
125.248
21
-103.817
0
LINE
8
BLACK
6
CONTINUOUS
10
125.248
20
-103.817
11
125.27
21
-103.884
0
LINE
8
BLACK
6
CONTINUOUS
10
125.27
20
-103.884
11
125.313
21
-103.927
0
LINE
8
BLACK
6
CONTINUOUS
10
125.313
20
-103.927
11
125.358
21
-103.95
0
LINE
8
BLACK
6
CONTINUOUS
10
125.358
20
-103.95
11
125.461
21
-103.976
0
LINE
8
BLACK
6
CONTINUOUS
10
125.461
20
-103.976
11
125.535
21
-103.976
0
LINE
8
BLACK
6
CONTINUOUS
10
125.535
20
-103.976
11
125.638
21
-103.95
0
LINE
8
BLACK
6
CONTINUOUS
10
125.638
20
-103.95
11
125.683
21
-103.927
0
LINE
8
BLACK
6
CONTINUOUS
10
125.683
20
-103.927
11
125.726
21
-103.884
0
LINE
8
BLACK
6
CONTINUOUS
10
125.726
20
-103.884
11
125.748
21
-103.817
0
LINE
8
BLACK
6
CONTINUOUS
10
125.748
20
-103.817
11
125.748
21
-103.777
0
LINE
8
BLACK
6
CONTINUOUS
10
125.748
20
-103.777
11
125.726
21
-103.71
0
LINE
8
BLACK
6
CONTINUOUS
10
125.726
20
-103.71
11
125.72
21
-103.704
0
LINE
8
BLACK
6
CONTINUOUS
10
125.72
20
-103.704
11
125.591
21
-103.704
0
LINE
8
BLACK
6
CONTINUOUS
10
125.591
20
-103.704
11
125.591
21
-103.768
0
LINE
8
BLACK
6
CONTINUOUS
10
125.591
20
-103.768
11
125.576
21
-103.804
0
LINE
8
BLACK
6
CONTINUOUS
10
125.576
20
-103.804
11
125.541
21
-103.818
0
LINE
8
BLACK
6
CONTINUOUS
10
125.541
20
-103.818
11
125.506
21
-103.804
0
LINE
8
BLACK
6
CONTINUOUS
10
125.506
20
-103.804
11
125.491
21
-103.768
0
LINE
8
BLACK
6
CONTINUOUS
10
125.491
20
-103.768
11
125.491
21
-103.654
0
LINE
8
BLACK
6
CONTINUOUS
10
125.491
20
-103.654
11
125.506
21
-103.619
0
LINE
8
BLACK
6
CONTINUOUS
10
125.506
20
-103.619
11
125.541
21
-103.604
0
LINE
8
BLACK
6
CONTINUOUS
10
125.541
20
-103.604
11
125.741
21
-103.604
0
LINE
8
BLACK
6
CONTINUOUS
10
128.011
20
-103.084
11
128.017
21
-103.083
0
LINE
8
BLACK
6
CONTINUOUS
10
128.017
20
-103.083
11
128.131
21
-103.112
0
LINE
8
BLACK
6
CONTINUOUS
10
128.131
20
-103.112
11
128.136
21
-103.115
0
LINE
8
BLACK
6
CONTINUOUS
10
128.136
20
-103.115
11
128.141
21
-103.116
0
LINE
8
BLACK
6
CONTINUOUS
10
128.141
20
-103.116
11
128.198
21
-103.144
0
LINE
8
BLACK
6
CONTINUOUS
10
128.198
20
-103.144
11
128.204
21
-103.151
0
LINE
8
BLACK
6
CONTINUOUS
10
128.204
20
-103.151
11
128.211
21
-103.154
0
LINE
8
BLACK
6
CONTINUOUS
10
128.211
20
-103.154
11
128.269
21
-103.211
0
LINE
8
BLACK
6
CONTINUOUS
10
128.269
20
-103.211
11
128.273
21
-103.222
0
LINE
8
BLACK
6
CONTINUOUS
10
128.273
20
-103.222
11
128.281
21
-103.23
0
LINE
8
BLACK
6
CONTINUOUS
10
128.281
20
-103.23
11
128.309
21
-103.316
0
LINE
8
BLACK
6
CONTINUOUS
10
128.309
20
-103.316
11
128.309
21
-103.324
0
LINE
8
BLACK
6
CONTINUOUS
10
128.309
20
-103.324
11
128.312
21
-103.332
0
LINE
8
BLACK
6
CONTINUOUS
10
128.312
20
-103.332
11
128.312
21
-103.475
0
LINE
8
BLACK
6
CONTINUOUS
10
128.312
20
-103.475
11
128.297
21
-103.51
0
LINE
8
BLACK
6
CONTINUOUS
10
128.297
20
-103.51
11
128.262
21
-103.525
0
LINE
8
BLACK
6
CONTINUOUS
10
128.262
20
-103.525
11
127.662
21
-103.525
0
LINE
8
BLACK
6
CONTINUOUS
10
127.662
20
-103.525
11
127.626
21
-103.51
0
LINE
8
BLACK
6
CONTINUOUS
10
127.626
20
-103.51
11
127.612
21
-103.475
0
LINE
8
BLACK
6
CONTINUOUS
10
127.612
20
-103.475
11
127.612
21
-103.332
0
LINE
8
BLACK
6
CONTINUOUS
10
127.612
20
-103.332
11
127.615
21
-103.324
0
LINE
8
BLACK
6
CONTINUOUS
10
127.615
20
-103.324
11
127.614
21
-103.316
0
LINE
8
BLACK
6
CONTINUOUS
10
127.614
20
-103.316
11
127.643
21
-103.23
0
LINE
8
BLACK
6
CONTINUOUS
10
127.643
20
-103.23
11
127.651
21
-103.222
0
LINE
8
BLACK
6
CONTINUOUS
10
127.651
20
-103.222
11
127.655
21
-103.211
0
LINE
8
BLACK
6
CONTINUOUS
10
127.655
20
-103.211
11
127.712
21
-103.154
0
LINE
8
BLACK
6
CONTINUOUS
10
127.712
20
-103.154
11
127.72
21
-103.151
0
LINE
8
BLACK
6
CONTINUOUS
10
127.72
20
-103.151
11
127.725
21
-103.144
0
LINE
8
BLACK
6
CONTINUOUS
10
127.725
20
-103.144
11
127.782
21
-103.116
0
LINE
8
BLACK
6
CONTINUOUS
10
127.782
20
-103.116
11
127.788
21
-103.115
0
LINE
8
BLACK
6
CONTINUOUS
10
127.788
20
-103.115
11
127.793
21
-103.112
0
LINE
8
BLACK
6
CONTINUOUS
10
127.793
20
-103.112
11
127.907
21
-103.083
0
LINE
8
BLACK
6
CONTINUOUS
10
127.907
20
-103.083
11
127.913
21
-103.084
0
LINE
8
BLACK
6
CONTINUOUS
10
127.913
20
-103.084
11
127.919
21
-103.082
0
LINE
8
BLACK
6
CONTINUOUS
10
127.919
20
-103.082
11
128.005
21
-103.082
0
LINE
8
BLACK
6
CONTINUOUS
10
128.005
20
-103.082
11
128.011
21
-103.084
0
LINE
8
BLACK
6
CONTINUOUS
10
127.925
20
-103.182
11
127.822
21
-103.208
0
LINE
8
BLACK
6
CONTINUOUS
10
127.822
20
-103.208
11
127.777
21
-103.23
0
LINE
8
BLACK
6
CONTINUOUS
10
127.777
20
-103.23
11
127.734
21
-103.273
0
LINE
8
BLACK
6
CONTINUOUS
10
127.734
20
-103.273
11
127.712
21
-103.34
0
LINE
8
BLACK
6
CONTINUOUS
10
127.712
20
-103.34
11
127.712
21
-103.425
0
LINE
8
BLACK
6
CONTINUOUS
10
127.712
20
-103.425
11
128.212
21
-103.425
0
LINE
8
BLACK
6
CONTINUOUS
10
128.212
20
-103.425
11
128.212
21
-103.34
0
LINE
8
BLACK
6
CONTINUOUS
10
128.212
20
-103.34
11
128.19
21
-103.273
0
LINE
8
BLACK
6
CONTINUOUS
10
128.19
20
-103.273
11
128.146
21
-103.23
0
LINE
8
BLACK
6
CONTINUOUS
10
128.146
20
-103.23
11
128.102
21
-103.208
0
LINE
8
BLACK
6
CONTINUOUS
10
128.102
20
-103.208
11
127.999
21
-103.182
0
LINE
8
BLACK
6
CONTINUOUS
10
127.999
20
-103.182
11
127.925
21
-103.182
0
LINE
8
BLACK
6
CONTINUOUS
10
126.741
20
-103.084
11
126.747
21
-103.083
0
LINE
8
BLACK
6
CONTINUOUS
10
126.747
20
-103.083
11
126.861
21
-103.112
0
LINE
8
BLACK
6
CONTINUOUS
10
126.861
20
-103.112
11
126.866
21
-103.115
0
LINE
8
BLACK
6
CONTINUOUS
10
126.866
20
-103.115
11
126.871
21
-103.116
0
LINE
8
BLACK
6
CONTINUOUS
10
126.871
20
-103.116
11
126.928
21
-103.144
0
LINE
8
BLACK
6
CONTINUOUS
10
126.928
20
-103.144
11
126.934
21
-103.151
0
LINE
8
BLACK
6
CONTINUOUS
10
126.934
20
-103.151
11
126.941
21
-103.154
0
LINE
8
BLACK
6
CONTINUOUS
10
126.941
20
-103.154
11
126.999
21
-103.211
0
LINE
8
BLACK
6
CONTINUOUS
10
126.999
20
-103.211
11
127.003
21
-103.222
0
LINE
8
BLACK
6
CONTINUOUS
10
127.003
20
-103.222
11
127.011
21
-103.23
0
LINE
8
BLACK
6
CONTINUOUS
10
127.011
20
-103.23
11
127.039
21
-103.316
0
LINE
8
BLACK
6
CONTINUOUS
10
127.039
20
-103.316
11
127.039
21
-103.324
0
LINE
8
BLACK
6
CONTINUOUS
10
127.039
20
-103.324
11
127.042
21
-103.332
0
LINE
8
BLACK
6
CONTINUOUS
10
127.042
20
-103.332
11
127.042
21
-103.475
0
LINE
8
BLACK
6
CONTINUOUS
10
127.042
20
-103.475
11
127.027
21
-103.51
0
LINE
8
BLACK
6
CONTINUOUS
10
127.027
20
-103.51
11
126.992
21
-103.525
0
LINE
8
BLACK
6
CONTINUOUS
10
126.992
20
-103.525
11
126.392
21
-103.525
0
LINE
8
BLACK
6
CONTINUOUS
10
126.392
20
-103.525
11
126.356
21
-103.51
0
LINE
8
BLACK
6
CONTINUOUS
10
126.356
20
-103.51
11
126.342
21
-103.475
0
LINE
8
BLACK
6
CONTINUOUS
10
126.342
20
-103.475
11
126.342
21
-103.332
0
LINE
8
BLACK
6
CONTINUOUS
10
126.342
20
-103.332
11
126.345
21
-103.324
0
LINE
8
BLACK
6
CONTINUOUS
10
126.345
20
-103.324
11
126.344
21
-103.316
0
LINE
8
BLACK
6
CONTINUOUS
10
126.344
20
-103.316
11
126.373
21
-103.23
0
LINE
8
BLACK
6
CONTINUOUS
10
126.373
20
-103.23
11
126.381
21
-103.222
0
LINE
8
BLACK
6
CONTINUOUS
10
126.381
20
-103.222
11
126.385
21
-103.211
0
LINE
8
BLACK
6
CONTINUOUS
10
126.385
20
-103.211
11
126.442
21
-103.154
0
LINE
8
BLACK
6
CONTINUOUS
10
126.442
20
-103.154
11
126.45
21
-103.151
0
LINE
8
BLACK
6
CONTINUOUS
10
126.45
20
-103.151
11
126.455
21
-103.144
0
LINE
8
BLACK
6
CONTINUOUS
10
126.455
20
-103.144
11
126.512
21
-103.116
0
LINE
8
BLACK
6
CONTINUOUS
10
126.512
20
-103.116
11
126.518
21
-103.115
0
LINE
8
BLACK
6
CONTINUOUS
10
126.518
20
-103.115
11
126.523
21
-103.112
0
LINE
8
BLACK
6
CONTINUOUS
10
126.523
20
-103.112
11
126.637
21
-103.083
0
LINE
8
BLACK
6
CONTINUOUS
10
126.637
20
-103.083
11
126.643
21
-103.084
0
LINE
8
BLACK
6
CONTINUOUS
10
126.643
20
-103.084
11
126.649
21
-103.082
0
LINE
8
BLACK
6
CONTINUOUS
10
126.649
20
-103.082
11
126.735
21
-103.082
0
LINE
8
BLACK
6
CONTINUOUS
10
126.735
20
-103.082
11
126.741
21
-103.084
0
LINE
8
BLACK
6
CONTINUOUS
10
126.655
20
-103.182
11
126.552
21
-103.208
0
LINE
8
BLACK
6
CONTINUOUS
10
126.552
20
-103.208
11
126.507
21
-103.23
0
LINE
8
BLACK
6
CONTINUOUS
10
126.507
20
-103.23
11
126.464
21
-103.273
0
LINE
8
BLACK
6
CONTINUOUS
10
126.464
20
-103.273
11
126.442
21
-103.34
0
LINE
8
BLACK
6
CONTINUOUS
10
126.442
20
-103.34
11
126.442
21
-103.425
0
LINE
8
BLACK
6
CONTINUOUS
10
126.442
20
-103.425
11
126.942
21
-103.425
0
LINE
8
BLACK
6
CONTINUOUS
10
126.942
20
-103.425
11
126.942
21
-103.34
0
LINE
8
BLACK
6
CONTINUOUS
10
126.942
20
-103.34
11
126.92
21
-103.273
0
LINE
8
BLACK
6
CONTINUOUS
10
126.92
20
-103.273
11
126.876
21
-103.23
0
LINE
8
BLACK
6
CONTINUOUS
10
126.876
20
-103.23
11
126.832
21
-103.208
0
LINE
8
BLACK
6
CONTINUOUS
10
126.832
20
-103.208
11
126.729
21
-103.182
0
LINE
8
BLACK
6
CONTINUOUS
10
126.729
20
-103.182
11
126.655
21
-103.182
0
LINE
8
BLACK
6
CONTINUOUS
10
125.804
20
-103.007
11
125.811
21
-103.006
0
LINE
8
BLACK
6
CONTINUOUS
10
125.811
20
-103.006
11
125.821
21
-103.014
0
LINE
8
BLACK
6
CONTINUOUS
10
125.821
20
-103.014
11
125.833
21
-103.019
0
LINE
8
BLACK
6
CONTINUOUS
10
125.833
20
-103.019
11
125.836
21
-103.025
0
LINE
8
BLACK
6
CONTINUOUS
10
125.836
20
-103.025
11
125.841
21
-103.029
0
LINE
8
BLACK
6
CONTINUOUS
10
125.841
20
-103.029
11
125.843
21
-103.042
0
LINE
8
BLACK
6
CONTINUOUS
10
125.843
20
-103.042
11
125.848
21
-103.054
0
LINE
8
BLACK
6
CONTINUOUS
10
125.848
20
-103.054
11
125.845
21
-103.061
0
LINE
8
BLACK
6
CONTINUOUS
10
125.845
20
-103.061
11
125.846
21
-103.067
0
LINE
8
BLACK
6
CONTINUOUS
10
125.846
20
-103.067
11
125.838
21
-103.078
0
LINE
8
BLACK
6
CONTINUOUS
10
125.838
20
-103.078
11
125.833
21
-103.09
0
LINE
8
BLACK
6
CONTINUOUS
10
125.833
20
-103.09
11
125.827
21
-103.092
0
LINE
8
BLACK
6
CONTINUOUS
10
125.827
20
-103.092
11
125.823
21
-103.098
0
LINE
8
BLACK
6
CONTINUOUS
10
125.823
20
-103.098
11
125.386
21
-103.347
0
LINE
8
BLACK
6
CONTINUOUS
10
125.386
20
-103.347
11
125.798
21
-103.347
0
LINE
8
BLACK
6
CONTINUOUS
10
125.798
20
-103.347
11
125.833
21
-103.362
0
LINE
8
BLACK
6
CONTINUOUS
10
125.833
20
-103.362
11
125.848
21
-103.397
0
LINE
8
BLACK
6
CONTINUOUS
10
125.848
20
-103.397
11
125.833
21
-103.432
0
LINE
8
BLACK
6
CONTINUOUS
10
125.833
20
-103.432
11
125.798
21
-103.447
0
LINE
8
BLACK
6
CONTINUOUS
10
125.798
20
-103.447
11
125.198
21
-103.447
0
LINE
8
BLACK
6
CONTINUOUS
10
125.198
20
-103.447
11
125.192
21
-103.444
0
LINE
8
BLACK
6
CONTINUOUS
10
125.192
20
-103.444
11
125.185
21
-103.445
0
LINE
8
BLACK
6
CONTINUOUS
10
125.185
20
-103.445
11
125.175
21
-103.437
0
LINE
8
BLACK
6
CONTINUOUS
10
125.175
20
-103.437
11
125.163
21
-103.432
0
LINE
8
BLACK
6
CONTINUOUS
10
125.163
20
-103.432
11
125.16
21
-103.426
0
LINE
8
BLACK
6
CONTINUOUS
10
125.16
20
-103.426
11
125.155
21
-103.422
0
LINE
8
BLACK
6
CONTINUOUS
10
125.155
20
-103.422
11
125.153
21
-103.409
0
LINE
8
BLACK
6
CONTINUOUS
10
125.153
20
-103.409
11
125.148
21
-103.397
0
LINE
8
BLACK
6
CONTINUOUS
10
125.148
20
-103.397
11
125.151
21
-103.391
0
LINE
8
BLACK
6
CONTINUOUS
10
125.151
20
-103.391
11
125.15
21
-103.384
0
LINE
8
BLACK
6
CONTINUOUS
10
125.15
20
-103.384
11
125.158
21
-103.374
0
LINE
8
BLACK
6
CONTINUOUS
10
125.158
20
-103.374
11
125.163
21
-103.362
0
LINE
8
BLACK
6
CONTINUOUS
10
125.163
20
-103.362
11
125.169
21
-103.359
0
LINE
8
BLACK
6
CONTINUOUS
10
125.169
20
-103.359
11
125.173
21
-103.354
0
LINE
8
BLACK
6
CONTINUOUS
10
125.173
20
-103.354
11
125.61
21
-103.104
0
LINE
8
BLACK
6
CONTINUOUS
10
125.61
20
-103.104
11
125.198
21
-103.104
0
LINE
8
BLACK
6
CONTINUOUS
10
125.198
20
-103.104
11
125.163
21
-103.09
0
LINE
8
BLACK
6
CONTINUOUS
10
125.163
20
-103.09
11
125.148
21
-103.054
0
LINE
8
BLACK
6
CONTINUOUS
10
125.148
20
-103.054
11
125.163
21
-103.019
0
LINE
8
BLACK
6
CONTINUOUS
10
125.163
20
-103.019
11
125.198
21
-103.004
0
LINE
8
BLACK
6
CONTINUOUS
10
125.198
20
-103.004
11
125.798
21
-103.004
0
LINE
8
BLACK
6
CONTINUOUS
10
125.798
20
-103.004
11
125.804
21
-103.007
0
LINE
8
BLACK
6
CONTINUOUS
10
129.53
20
-102.945
11
129.542
21
-102.946
0
LINE
8
BLACK
6
CONTINUOUS
10
129.542
20
-102.946
11
129.599
21
-102.975
0
LINE
8
BLACK
6
CONTINUOUS
10
129.599
20
-102.975
11
129.604
21
-102.981
0
LINE
8
BLACK
6
CONTINUOUS
10
129.604
20
-102.981
11
129.612
21
-102.984
0
LINE
8
BLACK
6
CONTINUOUS
10
129.612
20
-102.984
11
129.64
21
-103.012
0
LINE
8
BLACK
6
CONTINUOUS
10
129.64
20
-103.012
11
129.643
21
-103.02
0
LINE
8
BLACK
6
CONTINUOUS
10
129.643
20
-103.02
11
129.65
21
-103.025
0
LINE
8
BLACK
6
CONTINUOUS
10
129.65
20
-103.025
11
129.678
21
-103.083
0
LINE
8
BLACK
6
CONTINUOUS
10
129.678
20
-103.083
11
129.679
21
-103.094
0
LINE
8
BLACK
6
CONTINUOUS
10
129.679
20
-103.094
11
129.683
21
-103.105
0
LINE
8
BLACK
6
CONTINUOUS
10
129.683
20
-103.105
11
129.683
21
-103.248
0
LINE
8
BLACK
6
CONTINUOUS
10
129.683
20
-103.248
11
129.679
21
-103.259
0
LINE
8
BLACK
6
CONTINUOUS
10
129.679
20
-103.259
11
129.678
21
-103.27
0
LINE
8
BLACK
6
CONTINUOUS
10
129.678
20
-103.27
11
129.65
21
-103.327
0
LINE
8
BLACK
6
CONTINUOUS
10
129.65
20
-103.327
11
129.643
21
-103.333
0
LINE
8
BLACK
6
CONTINUOUS
10
129.643
20
-103.333
11
129.64
21
-103.34
0
LINE
8
BLACK
6
CONTINUOUS
10
129.64
20
-103.34
11
129.612
21
-103.369
0
LINE
8
BLACK
6
CONTINUOUS
10
129.612
20
-103.369
11
129.576
21
-103.384
0
LINE
8
BLACK
6
CONTINUOUS
10
129.576
20
-103.384
11
129.541
21
-103.369
0
LINE
8
BLACK
6
CONTINUOUS
10
129.541
20
-103.369
11
129.526
21
-103.334
0
LINE
8
BLACK
6
CONTINUOUS
10
129.526
20
-103.334
11
129.541
21
-103.298
0
LINE
8
BLACK
6
CONTINUOUS
10
129.541
20
-103.298
11
129.564
21
-103.275
0
LINE
8
BLACK
6
CONTINUOUS
10
129.564
20
-103.275
11
129.583
21
-103.236
0
LINE
8
BLACK
6
CONTINUOUS
10
129.583
20
-103.236
11
129.583
21
-103.117
0
LINE
8
BLACK
6
CONTINUOUS
10
129.583
20
-103.117
11
129.564
21
-103.077
0
LINE
8
BLACK
6
CONTINUOUS
10
129.564
20
-103.077
11
129.547
21
-103.06
0
LINE
8
BLACK
6
CONTINUOUS
10
129.547
20
-103.06
11
129.507
21
-103.041
0
LINE
8
BLACK
6
CONTINUOUS
10
129.507
20
-103.041
11
129.388
21
-103.041
0
LINE
8
BLACK
6
CONTINUOUS
10
129.388
20
-103.041
11
129.349
21
-103.06
0
LINE
8
BLACK
6
CONTINUOUS
10
129.349
20
-103.06
11
129.332
21
-103.077
0
LINE
8
BLACK
6
CONTINUOUS
10
129.332
20
-103.077
11
129.312
21
-103.117
0
LINE
8
BLACK
6
CONTINUOUS
10
129.312
20
-103.117
11
129.312
21
-103.236
0
LINE
8
BLACK
6
CONTINUOUS
10
129.312
20
-103.236
11
129.332
21
-103.275
0
LINE
8
BLACK
6
CONTINUOUS
10
129.332
20
-103.275
11
129.354
21
-103.298
0
LINE
8
BLACK
6
CONTINUOUS
10
129.354
20
-103.298
11
129.356
21
-103.301
0
LINE
8
BLACK
6
CONTINUOUS
10
129.356
20
-103.301
11
129.358
21
-103.302
0
LINE
8
BLACK
6
CONTINUOUS
10
129.358
20
-103.302
11
129.363
21
-103.318
0
LINE
8
BLACK
6
CONTINUOUS
10
129.363
20
-103.318
11
129.369
21
-103.334
0
LINE
8
BLACK
6
CONTINUOUS
10
129.369
20
-103.334
11
129.368
21
-103.336
0
LINE
8
BLACK
6
CONTINUOUS
10
129.368
20
-103.336
11
129.369
21
-103.339
0
LINE
8
BLACK
6
CONTINUOUS
10
129.369
20
-103.339
11
129.361
21
-103.353
0
LINE
8
BLACK
6
CONTINUOUS
10
129.361
20
-103.353
11
129.354
21
-103.369
0
LINE
8
BLACK
6
CONTINUOUS
10
129.354
20
-103.369
11
129.352
21
-103.37
0
LINE
8
BLACK
6
CONTINUOUS
10
129.352
20
-103.37
11
129.351
21
-103.372
0
LINE
8
BLACK
6
CONTINUOUS
10
129.351
20
-103.372
11
129.335
21
-103.377
0
LINE
8
BLACK
6
CONTINUOUS
10
129.335
20
-103.377
11
129.319
21
-103.384
0
LINE
8
BLACK
6
CONTINUOUS
10
129.319
20
-103.384
11
129.317
21
-103.383
0
LINE
8
BLACK
6
CONTINUOUS
10
129.317
20
-103.383
11
129.314
21
-103.383
0
LINE
8
BLACK
6
CONTINUOUS
10
129.314
20
-103.383
11
129.028
21
-103.355
0
LINE
8
BLACK
6
CONTINUOUS
10
129.028
20
-103.355
11
129.014
21
-103.347
0
LINE
8
BLACK
6
CONTINUOUS
10
129.014
20
-103.347
11
128.998
21
-103.34
0
LINE
8
BLACK
6
CONTINUOUS
10
128.998
20
-103.34
11
128.997
21
-103.338
0
LINE
8
BLACK
6
CONTINUOUS
10
128.997
20
-103.338
11
128.995
21
-103.337
0
LINE
8
BLACK
6
CONTINUOUS
10
128.995
20
-103.337
11
128.99
21
-103.321
0
LINE
8
BLACK
6
CONTINUOUS
10
128.99
20
-103.321
11
128.983
21
-103.305
0
LINE
8
BLACK
6
CONTINUOUS
10
128.983
20
-103.305
11
128.983
21
-103.019
0
LINE
8
BLACK
6
CONTINUOUS
10
128.983
20
-103.019
11
128.998
21
-102.984
0
LINE
8
BLACK
6
CONTINUOUS
10
128.998
20
-102.984
11
129.033
21
-102.969
0
LINE
8
BLACK
6
CONTINUOUS
10
129.033
20
-102.969
11
129.069
21
-102.984
0
LINE
8
BLACK
6
CONTINUOUS
10
129.069
20
-102.984
11
129.083
21
-103.019
0
LINE
8
BLACK
6
CONTINUOUS
10
129.083
20
-103.019
11
129.083
21
-103.26
0
LINE
8
BLACK
6
CONTINUOUS
10
129.083
20
-103.26
11
129.219
21
-103.273
0
LINE
8
BLACK
6
CONTINUOUS
10
129.219
20
-103.273
11
129.217
21
-103.27
0
LINE
8
BLACK
6
CONTINUOUS
10
129.217
20
-103.27
11
129.216
21
-103.259
0
LINE
8
BLACK
6
CONTINUOUS
10
129.216
20
-103.259
11
129.212
21
-103.248
0
LINE
8
BLACK
6
CONTINUOUS
10
129.212
20
-103.248
11
129.212
21
-103.105
0
LINE
8
BLACK
6
CONTINUOUS
10
129.212
20
-103.105
11
129.216
21
-103.094
0
LINE
8
BLACK
6
CONTINUOUS
10
129.216
20
-103.094
11
129.217
21
-103.083
0
LINE
8
BLACK
6
CONTINUOUS
10
129.217
20
-103.083
11
129.246
21
-103.025
0
LINE
8
BLACK
6
CONTINUOUS
10
129.246
20
-103.025
11
129.252
21
-103.02
0
LINE
8
BLACK
6
CONTINUOUS
10
129.252
20
-103.02
11
129.255
21
-103.012
0
LINE
8
BLACK
6
CONTINUOUS
10
129.255
20
-103.012
11
129.284
21
-102.984
0
LINE
8
BLACK
6
CONTINUOUS
10
129.284
20
-102.984
11
129.291
21
-102.981
0
LINE
8
BLACK
6
CONTINUOUS
10
129.291
20
-102.981
11
129.297
21
-102.975
0
LINE
8
BLACK
6
CONTINUOUS
10
129.297
20
-102.975
11
129.354
21
-102.946
0
LINE
8
BLACK
6
CONTINUOUS
10
129.354
20
-102.946
11
129.366
21
-102.945
0
LINE
8
BLACK
6
CONTINUOUS
10
129.366
20
-102.945
11
129.376
21
-102.941
0
LINE
8
BLACK
6
CONTINUOUS
10
129.376
20
-102.941
11
129.519
21
-102.941
0
LINE
8
BLACK
6
CONTINUOUS
10
129.519
20
-102.941
11
129.53
21
-102.945
0
LINE
8
BLACK
6
CONTINUOUS
10
94.6255
20
-102.894
11
94.64
21
-102.895
0
LINE
8
BLACK
6
CONTINUOUS
10
94.64
20
-102.895
11
94.6876
21
-102.919
0
LINE
8
BLACK
6
CONTINUOUS
10
94.6876
20
-102.919
11
94.6944
21
-102.927
0
LINE
8
BLACK
6
CONTINUOUS
10
94.6944
20
-102.927
11
94.7039
21
-102.931
0
LINE
8
BLACK
6
CONTINUOUS
10
94.7039
20
-102.931
11
94.7277
21
-102.954
0
LINE
8
BLACK
6
CONTINUOUS
10
94.7277
20
-102.954
11
94.7316
21
-102.964
0
LINE
8
BLACK
6
CONTINUOUS
10
94.7316
20
-102.964
11
94.7394
21
-102.971
0
LINE
8
BLACK
6
CONTINUOUS
10
94.7394
20
-102.971
11
94.7632
21
-103.018
0
LINE
8
BLACK
6
CONTINUOUS
10
94.7632
20
-103.018
11
94.7642
21
-103.033
0
LINE
8
BLACK
6
CONTINUOUS
10
94.7642
20
-103.033
11
94.7698
21
-103.046
0
LINE
8
BLACK
6
CONTINUOUS
10
94.7698
20
-103.046
11
94.7698
21
-103.165
0
LINE
8
BLACK
6
CONTINUOUS
10
94.7698
20
-103.165
11
94.7659
21
-103.175
0
LINE
8
BLACK
6
CONTINUOUS
10
94.7659
20
-103.175
11
94.7666
21
-103.185
0
LINE
8
BLACK
6
CONTINUOUS
10
94.7666
20
-103.185
11
94.7428
21
-103.256
0
LINE
8
BLACK
6
CONTINUOUS
10
94.7428
20
-103.256
11
94.7114
21
-103.293
0
LINE
8
BLACK
6
CONTINUOUS
10
94.7114
20
-103.293
11
94.6637
21
-103.296
0
LINE
8
BLACK
6
CONTINUOUS
10
94.6637
20
-103.296
11
94.6276
21
-103.265
0
LINE
8
BLACK
6
CONTINUOUS
10
94.6276
20
-103.265
11
94.6242
21
-103.217
0
LINE
8
BLACK
6
CONTINUOUS
10
94.6242
20
-103.217
11
94.6448
21
-103.155
0
LINE
8
BLACK
6
CONTINUOUS
10
94.6448
20
-103.155
11
94.6448
21
-103.061
0
LINE
8
BLACK
6
CONTINUOUS
10
94.6448
20
-103.061
11
94.6321
21
-103.036
0
LINE
8
BLACK
6
CONTINUOUS
10
94.6321
20
-103.036
11
94.6226
21
-103.026
0
LINE
8
BLACK
6
CONTINUOUS
10
94.6226
20
-103.026
11
94.5973
21
-103.013
0
LINE
8
BLACK
6
CONTINUOUS
10
94.5973
20
-103.013
11
94.5792
21
-103.013
0
LINE
8
BLACK
6
CONTINUOUS
10
94.5792
20
-103.013
11
94.5538
21
-103.026
0
LINE
8
BLACK
6
CONTINUOUS
10
94.5538
20
-103.026
11
94.5444
21
-103.036
0
LINE
8
BLACK
6
CONTINUOUS
10
94.5444
20
-103.036
11
94.5282
21
-103.068
0
LINE
8
BLACK
6
CONTINUOUS
10
94.5282
20
-103.068
11
94.506
21
-103.157
0
LINE
8
BLACK
6
CONTINUOUS
10
94.506
20
-103.157
11
94.5018
21
-103.162
0
LINE
8
BLACK
6
CONTINUOUS
10
94.5018
20
-103.162
11
94.5013
21
-103.169
0
LINE
8
BLACK
6
CONTINUOUS
10
94.5013
20
-103.169
11
94.4775
21
-103.217
0
LINE
8
BLACK
6
CONTINUOUS
10
94.4775
20
-103.217
11
94.4697
21
-103.224
0
LINE
8
BLACK
6
CONTINUOUS
10
94.4697
20
-103.224
11
94.4658
21
-103.233
0
LINE
8
BLACK
6
CONTINUOUS
10
94.4658
20
-103.233
11
94.442
21
-103.257
0
LINE
8
BLACK
6
CONTINUOUS
10
94.442
20
-103.257
11
94.4325
21
-103.261
0
LINE
8
BLACK
6
CONTINUOUS
10
94.4325
20
-103.261
11
94.4257
21
-103.269
0
LINE
8
BLACK
6
CONTINUOUS
10
94.4257
20
-103.269
11
94.3781
21
-103.293
0
LINE
8
BLACK
6
CONTINUOUS
10
94.3781
20
-103.293
11
94.3636
21
-103.294
0
LINE
8
BLACK
6
CONTINUOUS
10
94.3636
20
-103.294
11
94.3501
21
-103.299
0
LINE
8
BLACK
6
CONTINUOUS
10
94.3501
20
-103.299
11
94.3025
21
-103.299
0
LINE
8
BLACK
6
CONTINUOUS
10
94.3025
20
-103.299
11
94.2891
21
-103.294
0
LINE
8
BLACK
6
CONTINUOUS
10
94.2891
20
-103.294
11
94.2746
21
-103.293
0
LINE
8
BLACK
6
CONTINUOUS
10
94.2746
20
-103.293
11
94.227
21
-103.269
0
LINE
8
BLACK
6
CONTINUOUS
10
94.227
20
-103.269
11
94.2202
21
-103.261
0
LINE
8
BLACK
6
CONTINUOUS
10
94.2202
20
-103.261
11
94.2107
21
-103.257
0
LINE
8
BLACK
6
CONTINUOUS
10
94.2107
20
-103.257
11
94.1869
21
-103.233
0
LINE
8
BLACK
6
CONTINUOUS
10
94.1869
20
-103.233
11
94.183
21
-103.224
0
LINE
8
BLACK
6
CONTINUOUS
10
94.183
20
-103.224
11
94.1752
21
-103.217
0
LINE
8
BLACK
6
CONTINUOUS
10
94.1752
20
-103.217
11
94.1514
21
-103.169
0
LINE
8
BLACK
6
CONTINUOUS
10
94.1514
20
-103.169
11
94.1504
21
-103.155
0
LINE
8
BLACK
6
CONTINUOUS
10
94.1504
20
-103.155
11
94.1448
21
-103.141
0
LINE
8
BLACK
6
CONTINUOUS
10
94.1448
20
-103.141
11
94.1448
21
-103.022
0
LINE
8
BLACK
6
CONTINUOUS
10
94.1448
20
-103.022
11
94.1487
21
-103.013
0
LINE
8
BLACK
6
CONTINUOUS
10
94.1487
20
-103.013
11
94.148
21
-103.003
0
LINE
8
BLACK
6
CONTINUOUS
10
94.148
20
-103.003
11
94.1718
21
-102.931
0
LINE
8
BLACK
6
CONTINUOUS
10
94.1718
20
-102.931
11
94.2031
21
-102.895
0
LINE
8
BLACK
6
CONTINUOUS
10
94.2031
20
-102.895
11
94.2509
21
-102.892
0
LINE
8
BLACK
6
CONTINUOUS
10
94.2509
20
-102.892
11
94.287
21
-102.923
0
LINE
8
BLACK
6
CONTINUOUS
10
94.287
20
-102.923
11
94.2904
21
-102.971
0
LINE
8
BLACK
6
CONTINUOUS
10
94.2904
20
-102.971
11
94.2698
21
-103.033
0
LINE
8
BLACK
6
CONTINUOUS
10
94.2698
20
-103.033
11
94.2698
21
-103.127
0
LINE
8
BLACK
6
CONTINUOUS
10
94.2698
20
-103.127
11
94.2825
21
-103.152
0
LINE
8
BLACK
6
CONTINUOUS
10
94.2825
20
-103.152
11
94.2919
21
-103.161
0
LINE
8
BLACK
6
CONTINUOUS
10
94.2919
20
-103.161
11
94.3173
21
-103.174
0
LINE
8
BLACK
6
CONTINUOUS
10
94.3173
20
-103.174
11
94.3354
21
-103.174
0
LINE
8
BLACK
6
CONTINUOUS
10
94.3354
20
-103.174
11
94.3607
21
-103.161
0
LINE
8
BLACK
6
CONTINUOUS
10
94.3607
20
-103.161
11
94.3702
21
-103.152
0
LINE
8
BLACK
6
CONTINUOUS
10
94.3702
20
-103.152
11
94.3864
21
-103.12
0
LINE
8
BLACK
6
CONTINUOUS
10
94.3864
20
-103.12
11
94.4086
21
-103.031
0
LINE
8
BLACK
6
CONTINUOUS
10
94.4086
20
-103.031
11
94.4128
21
-103.025
0
LINE
8
BLACK
6
CONTINUOUS
10
94.4128
20
-103.025
11
94.4133
21
-103.018
0
LINE
8
BLACK
6
CONTINUOUS
10
94.4133
20
-103.018
11
94.4371
21
-102.971
0
LINE
8
BLACK
6
CONTINUOUS
10
94.4371
20
-102.971
11
94.4449
21
-102.964
0
LINE
8
BLACK
6
CONTINUOUS
10
94.4449
20
-102.964
11
94.4488
21
-102.954
0
LINE
8
BLACK
6
CONTINUOUS
10
94.4488
20
-102.954
11
94.4726
21
-102.931
0
LINE
8
BLACK
6
CONTINUOUS
10
94.4726
20
-102.931
11
94.4821
21
-102.927
0
LINE
8
BLACK
6
CONTINUOUS
10
94.4821
20
-102.927
11
94.4889
21
-102.919
0
LINE
8
BLACK
6
CONTINUOUS
10
94.4889
20
-102.919
11
94.5365
21
-102.895
0
LINE
8
BLACK
6
CONTINUOUS
10
94.5365
20
-102.895
11
94.551
21
-102.894
0
LINE
8
BLACK
6
CONTINUOUS
10
94.551
20
-102.894
11
94.5644
21
-102.888
0
LINE
8
BLACK
6
CONTINUOUS
10
94.5644
20
-102.888
11
94.6121
21
-102.888
0
LINE
8
BLACK
6
CONTINUOUS
10
94.6121
20
-102.888
11
94.6255
21
-102.894
0
LINE
8
BLACK
6
CONTINUOUS
10
128.069
20
-102.382
11
128.083
21
-102.418
0
LINE
8
BLACK
6
CONTINUOUS
10
128.083
20
-102.418
11
128.083
21
-102.875
0
LINE
8
BLACK
6
CONTINUOUS
10
128.083
20
-102.875
11
128.069
21
-102.91
0
LINE
8
BLACK
6
CONTINUOUS
10
128.069
20
-102.91
11
128.033
21
-102.925
0
LINE
8
BLACK
6
CONTINUOUS
10
128.033
20
-102.925
11
127.998
21
-102.91
0
LINE
8
BLACK
6
CONTINUOUS
10
127.998
20
-102.91
11
127.983
21
-102.875
0
LINE
8
BLACK
6
CONTINUOUS
10
127.983
20
-102.875
11
127.983
21
-102.418
0
LINE
8
BLACK
6
CONTINUOUS
10
127.983
20
-102.418
11
127.998
21
-102.382
0
LINE
8
BLACK
6
CONTINUOUS
10
127.998
20
-102.382
11
128.033
21
-102.368
0
LINE
8
BLACK
6
CONTINUOUS
10
128.033
20
-102.368
11
128.069
21
-102.382
0
LINE
8
BLACK
6
CONTINUOUS
10
126.799
20
-102.382
11
126.813
21
-102.418
0
LINE
8
BLACK
6
CONTINUOUS
10
126.813
20
-102.418
11
126.813
21
-102.596
0
LINE
8
BLACK
6
CONTINUOUS
10
126.813
20
-102.596
11
126.992
21
-102.596
0
LINE
8
BLACK
6
CONTINUOUS
10
126.992
20
-102.596
11
127.027
21
-102.611
0
LINE
8
BLACK
6
CONTINUOUS
10
127.027
20
-102.611
11
127.042
21
-102.646
0
LINE
8
BLACK
6
CONTINUOUS
10
127.042
20
-102.646
11
127.027
21
-102.682
0
LINE
8
BLACK
6
CONTINUOUS
10
127.027
20
-102.682
11
126.992
21
-102.696
0
LINE
8
BLACK
6
CONTINUOUS
10
126.992
20
-102.696
11
126.813
21
-102.696
0
LINE
8
BLACK
6
CONTINUOUS
10
126.813
20
-102.696
11
126.813
21
-102.875
0
LINE
8
BLACK
6
CONTINUOUS
10
126.813
20
-102.875
11
126.799
21
-102.91
0
LINE
8
BLACK
6
CONTINUOUS
10
126.799
20
-102.91
11
126.763
21
-102.925
0
LINE
8
BLACK
6
CONTINUOUS
10
126.763
20
-102.925
11
126.728
21
-102.91
0
LINE
8
BLACK
6
CONTINUOUS
10
126.728
20
-102.91
11
126.713
21
-102.875
0
LINE
8
BLACK
6
CONTINUOUS
10
126.713
20
-102.875
11
126.713
21
-102.696
0
LINE
8
BLACK
6
CONTINUOUS
10
126.713
20
-102.696
11
126.535
21
-102.696
0
LINE
8
BLACK
6
CONTINUOUS
10
126.535
20
-102.696
11
126.499
21
-102.682
0
LINE
8
BLACK
6
CONTINUOUS
10
126.499
20
-102.682
11
126.485
21
-102.646
0
LINE
8
BLACK
6
CONTINUOUS
10
126.485
20
-102.646
11
126.499
21
-102.611
0
LINE
8
BLACK
6
CONTINUOUS
10
126.499
20
-102.611
11
126.535
21
-102.596
0
LINE
8
BLACK
6
CONTINUOUS
10
126.535
20
-102.596
11
126.713
21
-102.596
0
LINE
8
BLACK
6
CONTINUOUS
10
126.713
20
-102.596
11
126.713
21
-102.418
0
LINE
8
BLACK
6
CONTINUOUS
10
126.713
20
-102.418
11
126.728
21
-102.382
0
LINE
8
BLACK
6
CONTINUOUS
10
126.728
20
-102.382
11
126.763
21
-102.368
0
LINE
8
BLACK
6
CONTINUOUS
10
126.763
20
-102.368
11
126.799
21
-102.382
0
LINE
8
BLACK
6
CONTINUOUS
10
129.649
20
-102.572
11
129.652
21
-102.574
0
LINE
8
BLACK
6
CONTINUOUS
10
129.652
20
-102.574
11
129.656
21
-102.575
0
LINE
8
BLACK
6
CONTINUOUS
10
129.656
20
-102.575
11
129.666
21
-102.587
0
LINE
8
BLACK
6
CONTINUOUS
10
129.666
20
-102.587
11
129.678
21
-102.597
0
LINE
8
BLACK
6
CONTINUOUS
10
129.678
20
-102.597
11
129.678
21
-102.601
0
LINE
8
BLACK
6
CONTINUOUS
10
129.678
20
-102.601
11
129.681
21
-102.603
0
LINE
8
BLACK
6
CONTINUOUS
10
129.681
20
-102.603
11
129.68
21
-102.619
0
LINE
8
BLACK
6
CONTINUOUS
10
129.68
20
-102.619
11
129.681
21
-102.635
0
LINE
8
BLACK
6
CONTINUOUS
10
129.681
20
-102.635
11
129.678
21
-102.638
0
LINE
8
BLACK
6
CONTINUOUS
10
129.678
20
-102.638
11
129.678
21
-102.642
0
LINE
8
BLACK
6
CONTINUOUS
10
129.678
20
-102.642
11
129.666
21
-102.652
0
LINE
8
BLACK
6
CONTINUOUS
10
129.666
20
-102.652
11
129.656
21
-102.664
0
LINE
8
BLACK
6
CONTINUOUS
10
129.656
20
-102.664
11
129.652
21
-102.664
0
LINE
8
BLACK
6
CONTINUOUS
10
129.652
20
-102.664
11
129.649
21
-102.667
0
LINE
8
BLACK
6
CONTINUOUS
10
129.649
20
-102.667
11
129.049
21
-102.867
0
LINE
8
BLACK
6
CONTINUOUS
10
129.049
20
-102.867
11
129.011
21
-102.864
0
LINE
8
BLACK
6
CONTINUOUS
10
129.011
20
-102.864
11
128.986
21
-102.835
0
LINE
8
BLACK
6
CONTINUOUS
10
128.986
20
-102.835
11
128.989
21
-102.797
0
LINE
8
BLACK
6
CONTINUOUS
10
128.989
20
-102.797
11
129.018
21
-102.772
0
LINE
8
BLACK
6
CONTINUOUS
10
129.018
20
-102.772
11
129.475
21
-102.619
0
LINE
8
BLACK
6
CONTINUOUS
10
129.475
20
-102.619
11
129.018
21
-102.467
0
LINE
8
BLACK
6
CONTINUOUS
10
129.018
20
-102.467
11
128.989
21
-102.442
0
LINE
8
BLACK
6
CONTINUOUS
10
128.989
20
-102.442
11
128.986
21
-102.403
0
LINE
8
BLACK
6
CONTINUOUS
10
128.986
20
-102.403
11
129.011
21
-102.375
0
LINE
8
BLACK
6
CONTINUOUS
10
129.011
20
-102.375
11
129.049
21
-102.372
0
LINE
8
BLACK
6
CONTINUOUS
10
129.049
20
-102.372
11
129.649
21
-102.572
0
LINE
8
BLACK
6
CONTINUOUS
10
94.7218
20
-102.414
11
94.7293
21
-102.419
0
LINE
8
BLACK
6
CONTINUOUS
10
94.7293
20
-102.419
11
94.7386
21
-102.421
0
LINE
8
BLACK
6
CONTINUOUS
10
94.7386
20
-102.421
11
94.748
21
-102.433
0
LINE
8
BLACK
6
CONTINUOUS
10
94.748
20
-102.433
11
94.7605
21
-102.442
0
LINE
8
BLACK
6
CONTINUOUS
10
94.7605
20
-102.442
11
94.762
21
-102.451
0
LINE
8
BLACK
6
CONTINUOUS
10
94.762
20
-102.451
11
94.7677
21
-102.459
0
LINE
8
BLACK
6
CONTINUOUS
10
94.7677
20
-102.459
11
94.7656
21
-102.474
0
LINE
8
BLACK
6
CONTINUOUS
10
94.7656
20
-102.474
11
94.7681
21
-102.489
0
LINE
8
BLACK
6
CONTINUOUS
10
94.7681
20
-102.489
11
94.7626
21
-102.497
0
LINE
8
BLACK
6
CONTINUOUS
10
94.7626
20
-102.497
11
94.7614
21
-102.506
0
LINE
8
BLACK
6
CONTINUOUS
10
94.7614
20
-102.506
11
94.7491
21
-102.515
0
LINE
8
BLACK
6
CONTINUOUS
10
94.7491
20
-102.515
11
94.74
21
-102.528
0
LINE
8
BLACK
6
CONTINUOUS
10
94.74
20
-102.528
11
94.7308
21
-102.529
0
LINE
8
BLACK
6
CONTINUOUS
10
94.7308
20
-102.529
11
94.7234
21
-102.535
0
LINE
8
BLACK
6
CONTINUOUS
10
94.7234
20
-102.535
11
94.5927
21
-102.57
0
LINE
8
BLACK
6
CONTINUOUS
10
94.5927
20
-102.57
11
94.7234
21
-102.605
0
LINE
8
BLACK
6
CONTINUOUS
10
94.7234
20
-102.605
11
94.7308
21
-102.611
0
LINE
8
BLACK
6
CONTINUOUS
10
94.7308
20
-102.611
11
94.74
21
-102.612
0
LINE
8
BLACK
6
CONTINUOUS
10
94.74
20
-102.612
11
94.7491
21
-102.625
0
LINE
8
BLACK
6
CONTINUOUS
10
94.7491
20
-102.625
11
94.7614
21
-102.634
0
LINE
8
BLACK
6
CONTINUOUS
10
94.7614
20
-102.634
11
94.7626
21
-102.643
0
LINE
8
BLACK
6
CONTINUOUS
10
94.7626
20
-102.643
11
94.7681
21
-102.651
0
LINE
8
BLACK
6
CONTINUOUS
10
94.7681
20
-102.651
11
94.7656
21
-102.666
0
LINE
8
BLACK
6
CONTINUOUS
10
94.7656
20
-102.666
11
94.7677
21
-102.681
0
LINE
8
BLACK
6
CONTINUOUS
10
94.7677
20
-102.681
11
94.762
21
-102.689
0
LINE
8
BLACK
6
CONTINUOUS
10
94.762
20
-102.689
11
94.7605
21
-102.698
0
LINE
8
BLACK
6
CONTINUOUS
10
94.7605
20
-102.698
11
94.748
21
-102.707
0
LINE
8
BLACK
6
CONTINUOUS
10
94.748
20
-102.707
11
94.7386
21
-102.719
0
LINE
8
BLACK
6
CONTINUOUS
10
94.7386
20
-102.719
11
94.7293
21
-102.721
0
LINE
8
BLACK
6
CONTINUOUS
10
94.7293
20
-102.721
11
94.7218
21
-102.726
0
LINE
8
BLACK
6
CONTINUOUS
10
94.7218
20
-102.726
11
94.2218
21
-102.845
0
LINE
8
BLACK
6
CONTINUOUS
10
94.2218
20
-102.845
11
94.1745
21
-102.838
0
LINE
8
BLACK
6
CONTINUOUS
10
94.1745
20
-102.838
11
94.1465
21
-102.799
0
LINE
8
BLACK
6
CONTINUOUS
10
94.1465
20
-102.799
11
94.1541
21
-102.752
0
LINE
8
BLACK
6
CONTINUOUS
10
94.1541
20
-102.752
11
94.1928
21
-102.723
0
LINE
8
BLACK
6
CONTINUOUS
10
94.1928
20
-102.723
11
94.4519
21
-102.662
0
LINE
8
BLACK
6
CONTINUOUS
10
94.4519
20
-102.662
11
94.334
21
-102.63
0
LINE
8
BLACK
6
CONTINUOUS
10
94.334
20
-102.63
11
94.3273
21
-102.625
0
LINE
8
BLACK
6
CONTINUOUS
10
94.3273
20
-102.625
11
94.3188
21
-102.624
0
LINE
8
BLACK
6
CONTINUOUS
10
94.3188
20
-102.624
11
94.309
21
-102.611
0
LINE
8
BLACK
6
CONTINUOUS
10
94.309
20
-102.611
11
94.2961
21
-102.601
0
LINE
8
BLACK
6
CONTINUOUS
10
94.2961
20
-102.601
11
94.2949
21
-102.593
0
LINE
8
BLACK
6
CONTINUOUS
10
94.2949
20
-102.593
11
94.2898
21
-102.586
0
LINE
8
BLACK
6
CONTINUOUS
10
94.2898
20
-102.586
11
94.2919
21
-102.57
0
LINE
8
BLACK
6
CONTINUOUS
10
94.2919
20
-102.57
11
94.2898
21
-102.554
0
LINE
8
BLACK
6
CONTINUOUS
10
94.2898
20
-102.554
11
94.2949
21
-102.547
0
LINE
8
BLACK
6
CONTINUOUS
10
94.2949
20
-102.547
11
94.2961
21
-102.539
0
LINE
8
BLACK
6
CONTINUOUS
10
94.2961
20
-102.539
11
94.309
21
-102.529
0
LINE
8
BLACK
6
CONTINUOUS
10
94.309
20
-102.529
11
94.3188
21
-102.516
0
LINE
8
BLACK
6
CONTINUOUS
10
94.3188
20
-102.516
11
94.3273
21
-102.515
0
LINE
8
BLACK
6
CONTINUOUS
10
94.3273
20
-102.515
11
94.334
21
-102.51
0
LINE
8
BLACK
6
CONTINUOUS
10
94.334
20
-102.51
11
94.4519
21
-102.478
0
LINE
8
BLACK
6
CONTINUOUS
10
94.4519
20
-102.478
11
94.1928
21
-102.417
0
LINE
8
BLACK
6
CONTINUOUS
10
94.1928
20
-102.417
11
94.1541
21
-102.388
0
LINE
8
BLACK
6
CONTINUOUS
10
94.1541
20
-102.388
11
94.1465
21
-102.341
0
LINE
8
BLACK
6
CONTINUOUS
10
94.1465
20
-102.341
11
94.1745
21
-102.302
0
LINE
8
BLACK
6
CONTINUOUS
10
94.1745
20
-102.302
11
94.2218
21
-102.295
0
LINE
8
BLACK
6
CONTINUOUS
10
94.2218
20
-102.295
11
94.7218
21
-102.414
0
LINE
8
BLACK
6
CONTINUOUS
10
125.547
20
-102.378
11
125.553
21
-102.377
0
LINE
8
BLACK
6
CONTINUOUS
10
125.553
20
-102.377
11
125.667
21
-102.406
0
LINE
8
BLACK
6
CONTINUOUS
10
125.667
20
-102.406
11
125.672
21
-102.409
0
LINE
8
BLACK
6
CONTINUOUS
10
125.672
20
-102.409
11
125.678
21
-102.409
0
LINE
8
BLACK
6
CONTINUOUS
10
125.678
20
-102.409
11
125.735
21
-102.438
0
LINE
8
BLACK
6
CONTINUOUS
10
125.735
20
-102.438
11
125.74
21
-102.444
0
LINE
8
BLACK
6
CONTINUOUS
10
125.74
20
-102.444
11
125.748
21
-102.447
0
LINE
8
BLACK
6
CONTINUOUS
10
125.748
20
-102.447
11
125.805
21
-102.505
0
LINE
8
BLACK
6
CONTINUOUS
10
125.805
20
-102.505
11
125.809
21
-102.515
0
LINE
8
BLACK
6
CONTINUOUS
10
125.809
20
-102.515
11
125.817
21
-102.524
0
LINE
8
BLACK
6
CONTINUOUS
10
125.817
20
-102.524
11
125.845
21
-102.61
0
LINE
8
BLACK
6
CONTINUOUS
10
125.845
20
-102.61
11
125.845
21
-102.618
0
LINE
8
BLACK
6
CONTINUOUS
10
125.845
20
-102.618
11
125.848
21
-102.626
0
LINE
8
BLACK
6
CONTINUOUS
10
125.848
20
-102.626
11
125.848
21
-102.768
0
LINE
8
BLACK
6
CONTINUOUS
10
125.848
20
-102.768
11
125.833
21
-102.804
0
LINE
8
BLACK
6
CONTINUOUS
10
125.833
20
-102.804
11
125.798
21
-102.818
0
LINE
8
BLACK
6
CONTINUOUS
10
125.798
20
-102.818
11
125.198
21
-102.818
0
LINE
8
BLACK
6
CONTINUOUS
10
125.198
20
-102.818
11
125.163
21
-102.804
0
LINE
8
BLACK
6
CONTINUOUS
10
125.163
20
-102.804
11
125.148
21
-102.768
0
LINE
8
BLACK
6
CONTINUOUS
10
125.148
20
-102.768
11
125.148
21
-102.626
0
LINE
8
BLACK
6
CONTINUOUS
10
125.148
20
-102.626
11
125.151
21
-102.618
0
LINE
8
BLACK
6
CONTINUOUS
10
125.151
20
-102.618
11
125.151
21
-102.61
0
LINE
8
BLACK
6
CONTINUOUS
10
125.151
20
-102.61
11
125.179
21
-102.524
0
LINE
8
BLACK
6
CONTINUOUS
10
125.179
20
-102.524
11
125.187
21
-102.515
0
LINE
8
BLACK
6
CONTINUOUS
10
125.187
20
-102.515
11
125.191
21
-102.505
0
LINE
8
BLACK
6
CONTINUOUS
10
125.191
20
-102.505
11
125.248
21
-102.447
0
LINE
8
BLACK
6
CONTINUOUS
10
125.248
20
-102.447
11
125.256
21
-102.444
0
LINE
8
BLACK
6
CONTINUOUS
10
125.256
20
-102.444
11
125.261
21
-102.438
0
LINE
8
BLACK
6
CONTINUOUS
10
125.261
20
-102.438
11
125.319
21
-102.409
0
LINE
8
BLACK
6
CONTINUOUS
10
125.319
20
-102.409
11
125.324
21
-102.409
0
LINE
8
BLACK
6
CONTINUOUS
10
125.324
20
-102.409
11
125.329
21
-102.406
0
LINE
8
BLACK
6
CONTINUOUS
10
125.329
20
-102.406
11
125.443
21
-102.377
0
LINE
8
BLACK
6
CONTINUOUS
10
125.443
20
-102.377
11
125.449
21
-102.378
0
LINE
8
BLACK
6
CONTINUOUS
10
125.449
20
-102.378
11
125.455
21
-102.376
0
LINE
8
BLACK
6
CONTINUOUS
10
125.455
20
-102.376
11
125.541
21
-102.376
0
LINE
8
BLACK
6
CONTINUOUS
10
125.541
20
-102.376
11
125.547
21
-102.378
0
LINE
8
BLACK
6
CONTINUOUS
10
125.461
20
-102.476
11
125.358
21
-102.501
0
LINE
8
BLACK
6
CONTINUOUS
10
125.358
20
-102.501
11
125.313
21
-102.524
0
LINE
8
BLACK
6
CONTINUOUS
10
125.313
20
-102.524
11
125.27
21
-102.567
0
LINE
8
BLACK
6
CONTINUOUS
10
125.27
20
-102.567
11
125.248
21
-102.634
0
LINE
8
BLACK
6
CONTINUOUS
10
125.248
20
-102.634
11
125.248
21
-102.718
0
LINE
8
BLACK
6
CONTINUOUS
10
125.248
20
-102.718
11
125.748
21
-102.718
0
LINE
8
BLACK
6
CONTINUOUS
10
125.748
20
-102.718
11
125.748
21
-102.634
0
LINE
8
BLACK
6
CONTINUOUS
10
125.748
20
-102.634
11
125.726
21
-102.567
0
LINE
8
BLACK
6
CONTINUOUS
10
125.726
20
-102.567
11
125.683
21
-102.524
0
LINE
8
BLACK
6
CONTINUOUS
10
125.683
20
-102.524
11
125.638
21
-102.501
0
LINE
8
BLACK
6
CONTINUOUS
10
125.638
20
-102.501
11
125.535
21
-102.476
0
LINE
8
BLACK
6
CONTINUOUS
10
125.535
20
-102.476
11
125.461
21
-102.476
0
LINE
8
BLACK
6
CONTINUOUS
10
94.7515
20
-101.859
11
94.7698
21
-101.903
0
LINE
8
BLACK
6
CONTINUOUS
10
94.7698
20
-101.903
11
94.7698
21
-102.189
0
LINE
8
BLACK
6
CONTINUOUS
10
94.7698
20
-102.189
11
94.7515
21
-102.233
0
LINE
8
BLACK
6
CONTINUOUS
10
94.7515
20
-102.233
11
94.7073
21
-102.252
0
LINE
8
BLACK
6
CONTINUOUS
10
94.7073
20
-102.252
11
94.6631
21
-102.233
0
LINE
8
BLACK
6
CONTINUOUS
10
94.6631
20
-102.233
11
94.6448
21
-102.189
0
LINE
8
BLACK
6
CONTINUOUS
10
94.6448
20
-102.189
11
94.6448
21
-102.109
0
LINE
8
BLACK
6
CONTINUOUS
10
94.6448
20
-102.109
11
94.3767
21
-102.109
0
LINE
8
BLACK
6
CONTINUOUS
10
94.3767
20
-102.109
11
94.3822
21
-102.113
0
LINE
8
BLACK
6
CONTINUOUS
10
94.3822
20
-102.113
11
94.406
21
-102.161
0
LINE
8
BLACK
6
CONTINUOUS
10
94.406
20
-102.161
11
94.4094
21
-102.209
0
LINE
8
BLACK
6
CONTINUOUS
10
94.4094
20
-102.209
11
94.3781
21
-102.245
0
LINE
8
BLACK
6
CONTINUOUS
10
94.3781
20
-102.245
11
94.3304
21
-102.248
0
LINE
8
BLACK
6
CONTINUOUS
10
94.3304
20
-102.248
11
94.2942
21
-102.217
0
LINE
8
BLACK
6
CONTINUOUS
10
94.2942
20
-102.217
11
94.275
21
-102.178
0
LINE
8
BLACK
6
CONTINUOUS
10
94.275
20
-102.178
11
94.2389
21
-102.142
0
LINE
8
BLACK
6
CONTINUOUS
10
94.2389
20
-102.142
11
94.1726
21
-102.098
0
LINE
8
BLACK
6
CONTINUOUS
10
94.1726
20
-102.098
11
94.169
21
-102.093
0
LINE
8
BLACK
6
CONTINUOUS
10
94.169
20
-102.093
11
94.1631
21
-102.09
0
LINE
8
BLACK
6
CONTINUOUS
10
94.1631
20
-102.09
11
94.1561
21
-102.074
0
LINE
8
BLACK
6
CONTINUOUS
10
94.1561
20
-102.074
11
94.146
21
-102.058
0
LINE
8
BLACK
6
CONTINUOUS
10
94.146
20
-102.058
11
94.1473
21
-102.052
0
LINE
8
BLACK
6
CONTINUOUS
10
94.1473
20
-102.052
11
94.1448
21
-102.046
0
LINE
8
BLACK
6
CONTINUOUS
10
94.1448
20
-102.046
11
94.1518
21
-102.029
0
LINE
8
BLACK
6
CONTINUOUS
10
94.1518
20
-102.029
11
94.1553
21
-102.012
0
LINE
8
BLACK
6
CONTINUOUS
10
94.1553
20
-102.012
11
94.1606
21
-102.008
0
LINE
8
BLACK
6
CONTINUOUS
10
94.1606
20
-102.008
11
94.1631
21
-102.002
0
LINE
8
BLACK
6
CONTINUOUS
10
94.1631
20
-102.002
11
94.1799
21
-101.995
0
LINE
8
BLACK
6
CONTINUOUS
10
94.1799
20
-101.995
11
94.195
21
-101.985
0
LINE
8
BLACK
6
CONTINUOUS
10
94.195
20
-101.985
11
94.2013
21
-101.986
0
LINE
8
BLACK
6
CONTINUOUS
10
94.2013
20
-101.986
11
94.2073
21
-101.984
0
LINE
8
BLACK
6
CONTINUOUS
10
94.2073
20
-101.984
11
94.6448
21
-101.984
0
LINE
8
BLACK
6
CONTINUOUS
10
94.6448
20
-101.984
11
94.6448
21
-101.903
0
LINE
8
BLACK
6
CONTINUOUS
10
94.6448
20
-101.903
11
94.6631
21
-101.859
0
LINE
8
BLACK
6
CONTINUOUS
10
94.6631
20
-101.859
11
94.7073
21
-101.841
0
LINE
8
BLACK
6
CONTINUOUS
10
94.7073
20
-101.841
11
94.7515
21
-101.859
  0
ENDSEC
  0
EOF
