  0
SECTION
  2
HEADER
  9
$ANGBASE
  50
0.0
  9
$ANGDIR
  70
1
  9
$MEASUREMENT
  70
1
  0
ENDSEC
  0
SECTION
  2
TABLES
  0
TABLE
  2
LTYPE
  70
4
  0
LTYPE
  5
40F
  2
CONTINUOUS
  70
0
  3
Solid line
  72
65
  73
0
  40
0.0
  0
LTYPE
  5
410
  2
DASHDOT
 70
0
  3
Dash Dot ____ _ ____ _
 72
65
 73
4
 40
2.0
 49
1.25
 49
-0.25
 49
0.25
 49
-0.25
  0
LTYPE
  5
411
  2
DASHED
 70
0
  3
Dashed __ __ __ __ __
 72
65
 73
2
 40
0.75
 49
0.5
 49
-0.25
  0
LTYPE
  5
43B
  2
DOTTED
 70
0
  3
Dotted .  .  .  .
 72
65
 73
2
 40
0.2
 49
0.0
 49
-0.2
  0
ENDTAB
  0
TABLE
  2
STYLE
  70
4
  0
STYLE
  2
KICAD
  70
0
  40
0
  41
1
  42
1
  50
0
  71
0
  3
isocp.shx
  0
STYLE
  2
KICADB
  70
0
  40
0
  41
1
  42
1
  50
0
  71
0
  3
isocp.shx
  0
STYLE
  2
KICADI
  70
0
  40
0
  41
1
  42
1
  50
15
  71
0
  3
isocp.shx
  0
STYLE
  2
KICADBI
  70
0
  40
0
  41
1
  42
1
  50
15
  71
0
  3
isocp.shx
  0
ENDTAB
  0
TABLE
  2
LAYER
  70
1
  0
LAYER
  2
BLACK
  70
0
  62
7
  6
CONTINUOUS
  0
ENDTAB
  0
ENDSEC
  0
SECTION
  2
ENTITIES
0
LINE
8
BLACK
6
CONTINUOUS
10
117.884
20
-107.189
11
117.905
21
-107.245
0
LINE
8
BLACK
6
CONTINUOUS
10
117.905
20
-107.245
11
117.905
21
-107.838
0
LINE
8
BLACK
6
CONTINUOUS
10
117.905
20
-107.838
11
117.934
21
-107.927
0
LINE
8
BLACK
6
CONTINUOUS
10
117.934
20
-107.927
11
117.986
21
-107.978
0
LINE
8
BLACK
6
CONTINUOUS
10
117.986
20
-107.978
11
118.074
21
-108.008
0
LINE
8
BLACK
6
CONTINUOUS
10
118.074
20
-108.008
11
118.141
21
-108.008
0
LINE
8
BLACK
6
CONTINUOUS
10
118.141
20
-108.008
11
118.171
21
-108.013
0
LINE
8
BLACK
6
CONTINUOUS
10
118.171
20
-108.013
11
118.217
21
-108.051
0
LINE
8
BLACK
6
CONTINUOUS
10
118.217
20
-108.051
11
118.227
21
-108.11
0
LINE
8
BLACK
6
CONTINUOUS
10
118.227
20
-108.11
11
118.197
21
-108.162
0
LINE
8
BLACK
6
CONTINUOUS
10
118.197
20
-108.162
11
118.141
21
-108.183
0
LINE
8
BLACK
6
CONTINUOUS
10
118.141
20
-108.183
11
118.06
21
-108.183
0
LINE
8
BLACK
6
CONTINUOUS
10
118.06
20
-108.183
11
118.034
21
-108.178
0
LINE
8
BLACK
6
CONTINUOUS
10
118.034
20
-108.178
11
118.032
21
-108.178
0
LINE
8
BLACK
6
CONTINUOUS
10
118.032
20
-108.178
11
117.911
21
-108.138
0
LINE
8
BLACK
6
CONTINUOUS
10
117.911
20
-108.138
11
117.884
21
-108.123
0
LINE
8
BLACK
6
CONTINUOUS
10
117.884
20
-108.123
11
117.881
21
-108.119
0
LINE
8
BLACK
6
CONTINUOUS
10
117.881
20
-108.119
11
117.877
21
-108.117
0
LINE
8
BLACK
6
CONTINUOUS
10
117.877
20
-108.117
11
117.796
21
-108.036
0
LINE
8
BLACK
6
CONTINUOUS
10
117.796
20
-108.036
11
117.778
21
-108.011
0
LINE
8
BLACK
6
CONTINUOUS
10
117.778
20
-108.011
11
117.778
21
-108.006
0
LINE
8
BLACK
6
CONTINUOUS
10
117.778
20
-108.006
11
117.775
21
-108.001
0
LINE
8
BLACK
6
CONTINUOUS
10
117.775
20
-108.001
11
117.734
21
-107.88
0
LINE
8
BLACK
6
CONTINUOUS
10
117.734
20
-107.88
11
117.73
21
-107.854
0
LINE
8
BLACK
6
CONTINUOUS
10
117.73
20
-107.854
11
117.73
21
-107.852
0
LINE
8
BLACK
6
CONTINUOUS
10
117.73
20
-107.852
11
117.73
21
-107.245
0
LINE
8
BLACK
6
CONTINUOUS
10
117.73
20
-107.245
11
117.735
21
-107.215
0
LINE
8
BLACK
6
CONTINUOUS
10
117.735
20
-107.215
11
117.773
21
-107.169
0
LINE
8
BLACK
6
CONTINUOUS
10
117.773
20
-107.169
11
117.832
21
-107.159
0
LINE
8
BLACK
6
CONTINUOUS
10
117.832
20
-107.159
11
117.884
21
-107.189
0
LINE
8
BLACK
6
CONTINUOUS
10
117.479
20
-107.189
11
117.5
21
-107.245
0
LINE
8
BLACK
6
CONTINUOUS
10
117.5
20
-107.245
11
117.5
21
-108.095
0
LINE
8
BLACK
6
CONTINUOUS
10
117.5
20
-108.095
11
117.498
21
-108.107
0
LINE
8
BLACK
6
CONTINUOUS
10
117.498
20
-108.107
11
117.499
21
-108.11
0
LINE
8
BLACK
6
CONTINUOUS
10
117.499
20
-108.11
11
117.497
21
-108.114
0
LINE
8
BLACK
6
CONTINUOUS
10
117.497
20
-108.114
11
117.495
21
-108.125
0
LINE
8
BLACK
6
CONTINUOUS
10
117.495
20
-108.125
11
117.48
21
-108.143
0
LINE
8
BLACK
6
CONTINUOUS
10
117.48
20
-108.143
11
117.469
21
-108.162
0
LINE
8
BLACK
6
CONTINUOUS
10
117.469
20
-108.162
11
117.461
21
-108.165
0
LINE
8
BLACK
6
CONTINUOUS
10
117.461
20
-108.165
11
117.456
21
-108.171
0
LINE
8
BLACK
6
CONTINUOUS
10
117.456
20
-108.171
11
117.434
21
-108.175
0
LINE
8
BLACK
6
CONTINUOUS
10
117.434
20
-108.175
11
117.412
21
-108.183
0
LINE
8
BLACK
6
CONTINUOUS
10
117.412
20
-108.183
11
117.008
21
-108.183
0
LINE
8
BLACK
6
CONTINUOUS
10
117.008
20
-108.183
11
116.978
21
-108.177
0
LINE
8
BLACK
6
CONTINUOUS
10
116.978
20
-108.177
11
116.932
21
-108.139
0
LINE
8
BLACK
6
CONTINUOUS
10
116.932
20
-108.139
11
116.921
21
-108.08
0
LINE
8
BLACK
6
CONTINUOUS
10
116.921
20
-108.08
11
116.951
21
-108.028
0
LINE
8
BLACK
6
CONTINUOUS
10
116.951
20
-108.028
11
117.008
21
-108.008
0
LINE
8
BLACK
6
CONTINUOUS
10
117.008
20
-108.008
11
117.325
21
-108.008
0
LINE
8
BLACK
6
CONTINUOUS
10
117.325
20
-108.008
11
117.325
21
-107.245
0
LINE
8
BLACK
6
CONTINUOUS
10
117.325
20
-107.245
11
117.33
21
-107.215
0
LINE
8
BLACK
6
CONTINUOUS
10
117.33
20
-107.215
11
117.369
21
-107.169
0
LINE
8
BLACK
6
CONTINUOUS
10
117.369
20
-107.169
11
117.428
21
-107.159
0
LINE
8
BLACK
6
CONTINUOUS
10
117.428
20
-107.159
11
117.479
21
-107.189
0
LINE
8
BLACK
6
CONTINUOUS
10
116.507
20
-107.162
11
116.509
21
-107.162
0
LINE
8
BLACK
6
CONTINUOUS
10
116.509
20
-107.162
11
116.631
21
-107.203
0
LINE
8
BLACK
6
CONTINUOUS
10
116.631
20
-107.203
11
116.657
21
-107.217
0
LINE
8
BLACK
6
CONTINUOUS
10
116.657
20
-107.217
11
116.66
21
-107.222
0
LINE
8
BLACK
6
CONTINUOUS
10
116.66
20
-107.222
11
116.665
21
-107.224
0
LINE
8
BLACK
6
CONTINUOUS
10
116.665
20
-107.224
11
116.746
21
-107.305
0
LINE
8
BLACK
6
CONTINUOUS
10
116.746
20
-107.305
11
116.761
21
-107.326
0
LINE
8
BLACK
6
CONTINUOUS
10
116.761
20
-107.326
11
116.762
21
-107.328
0
LINE
8
BLACK
6
CONTINUOUS
10
116.762
20
-107.328
11
116.803
21
-107.408
0
LINE
8
BLACK
6
CONTINUOUS
10
116.803
20
-107.408
11
116.807
21
-107.423
0
LINE
8
BLACK
6
CONTINUOUS
10
116.807
20
-107.423
11
116.809
21
-107.426
0
LINE
8
BLACK
6
CONTINUOUS
10
116.809
20
-107.426
11
116.85
21
-107.588
0
LINE
8
BLACK
6
CONTINUOUS
10
116.85
20
-107.588
11
116.851
21
-107.606
0
LINE
8
BLACK
6
CONTINUOUS
10
116.851
20
-107.606
11
116.852
21
-107.61
0
LINE
8
BLACK
6
CONTINUOUS
10
116.852
20
-107.61
11
116.852
21
-107.731
0
LINE
8
BLACK
6
CONTINUOUS
10
116.852
20
-107.731
11
116.849
21
-107.748
0
LINE
8
BLACK
6
CONTINUOUS
10
116.849
20
-107.748
11
116.85
21
-107.752
0
LINE
8
BLACK
6
CONTINUOUS
10
116.85
20
-107.752
11
116.809
21
-107.914
0
LINE
8
BLACK
6
CONTINUOUS
10
116.809
20
-107.914
11
116.803
21
-107.928
0
LINE
8
BLACK
6
CONTINUOUS
10
116.803
20
-107.928
11
116.803
21
-107.932
0
LINE
8
BLACK
6
CONTINUOUS
10
116.803
20
-107.932
11
116.762
21
-108.013
0
LINE
8
BLACK
6
CONTINUOUS
10
116.762
20
-108.013
11
116.747
21
-108.034
0
LINE
8
BLACK
6
CONTINUOUS
10
116.747
20
-108.034
11
116.746
21
-108.036
0
LINE
8
BLACK
6
CONTINUOUS
10
116.746
20
-108.036
11
116.665
21
-108.117
0
LINE
8
BLACK
6
CONTINUOUS
10
116.665
20
-108.117
11
116.64
21
-108.134
0
LINE
8
BLACK
6
CONTINUOUS
10
116.64
20
-108.134
11
116.635
21
-108.135
0
LINE
8
BLACK
6
CONTINUOUS
10
116.635
20
-108.135
11
116.631
21
-108.138
0
LINE
8
BLACK
6
CONTINUOUS
10
116.631
20
-108.138
11
116.509
21
-108.178
0
LINE
8
BLACK
6
CONTINUOUS
10
116.509
20
-108.178
11
116.483
21
-108.182
0
LINE
8
BLACK
6
CONTINUOUS
10
116.483
20
-108.182
11
116.481
21
-108.183
0
LINE
8
BLACK
6
CONTINUOUS
10
116.481
20
-108.183
11
116.4
21
-108.183
0
LINE
8
BLACK
6
CONTINUOUS
10
116.4
20
-108.183
11
116.375
21
-108.178
0
LINE
8
BLACK
6
CONTINUOUS
10
116.375
20
-108.178
11
116.373
21
-108.178
0
LINE
8
BLACK
6
CONTINUOUS
10
116.373
20
-108.178
11
116.251
21
-108.138
0
LINE
8
BLACK
6
CONTINUOUS
10
116.251
20
-108.138
11
116.225
21
-108.123
0
LINE
8
BLACK
6
CONTINUOUS
10
116.225
20
-108.123
11
116.222
21
-108.119
0
LINE
8
BLACK
6
CONTINUOUS
10
116.222
20
-108.119
11
116.217
21
-108.117
0
LINE
8
BLACK
6
CONTINUOUS
10
116.217
20
-108.117
11
116.177
21
-108.076
0
LINE
8
BLACK
6
CONTINUOUS
10
116.177
20
-108.076
11
116.159
21
-108.051
0
LINE
8
BLACK
6
CONTINUOUS
10
116.159
20
-108.051
11
116.154
21
-107.992
0
LINE
8
BLACK
6
CONTINUOUS
10
116.154
20
-107.992
11
116.188
21
-107.943
0
LINE
8
BLACK
6
CONTINUOUS
10
116.188
20
-107.943
11
116.246
21
-107.927
0
LINE
8
BLACK
6
CONTINUOUS
10
116.246
20
-107.927
11
116.3
21
-107.952
0
LINE
8
BLACK
6
CONTINUOUS
10
116.3
20
-107.952
11
116.326
21
-107.978
0
LINE
8
BLACK
6
CONTINUOUS
10
116.326
20
-107.978
11
116.415
21
-108.008
0
LINE
8
BLACK
6
CONTINUOUS
10
116.415
20
-108.008
11
116.467
21
-108.008
0
LINE
8
BLACK
6
CONTINUOUS
10
116.467
20
-108.008
11
116.556
21
-107.978
0
LINE
8
BLACK
6
CONTINUOUS
10
116.556
20
-107.978
11
116.612
21
-107.922
0
LINE
8
BLACK
6
CONTINUOUS
10
116.612
20
-107.922
11
116.642
21
-107.862
0
LINE
8
BLACK
6
CONTINUOUS
10
116.642
20
-107.862
11
116.677
21
-107.72
0
LINE
8
BLACK
6
CONTINUOUS
10
116.677
20
-107.72
11
116.677
21
-107.62
0
LINE
8
BLACK
6
CONTINUOUS
10
116.677
20
-107.62
11
116.642
21
-107.478
0
LINE
8
BLACK
6
CONTINUOUS
10
116.642
20
-107.478
11
116.612
21
-107.418
0
LINE
8
BLACK
6
CONTINUOUS
10
116.612
20
-107.418
11
116.556
21
-107.362
0
LINE
8
BLACK
6
CONTINUOUS
10
116.556
20
-107.362
11
116.467
21
-107.333
0
LINE
8
BLACK
6
CONTINUOUS
10
116.467
20
-107.333
11
116.415
21
-107.333
0
LINE
8
BLACK
6
CONTINUOUS
10
116.415
20
-107.333
11
116.326
21
-107.362
0
LINE
8
BLACK
6
CONTINUOUS
10
116.326
20
-107.362
11
116.3
21
-107.388
0
LINE
8
BLACK
6
CONTINUOUS
10
116.3
20
-107.388
11
116.276
21
-107.405
0
LINE
8
BLACK
6
CONTINUOUS
10
116.276
20
-107.405
11
116.216
21
-107.411
0
LINE
8
BLACK
6
CONTINUOUS
10
116.216
20
-107.411
11
116.167
21
-107.376
0
LINE
8
BLACK
6
CONTINUOUS
10
116.167
20
-107.376
11
116.151
21
-107.319
0
LINE
8
BLACK
6
CONTINUOUS
10
116.151
20
-107.319
11
116.177
21
-107.264
0
LINE
8
BLACK
6
CONTINUOUS
10
116.177
20
-107.264
11
116.217
21
-107.224
0
LINE
8
BLACK
6
CONTINUOUS
10
116.217
20
-107.224
11
116.242
21
-107.206
0
LINE
8
BLACK
6
CONTINUOUS
10
116.242
20
-107.206
11
116.247
21
-107.206
0
LINE
8
BLACK
6
CONTINUOUS
10
116.247
20
-107.206
11
116.251
21
-107.203
0
LINE
8
BLACK
6
CONTINUOUS
10
116.251
20
-107.203
11
116.373
21
-107.162
0
LINE
8
BLACK
6
CONTINUOUS
10
116.373
20
-107.162
11
116.399
21
-107.158
0
LINE
8
BLACK
6
CONTINUOUS
10
116.399
20
-107.158
11
116.4
21
-107.158
0
LINE
8
BLACK
6
CONTINUOUS
10
116.4
20
-107.158
11
116.481
21
-107.158
0
LINE
8
BLACK
6
CONTINUOUS
10
116.481
20
-107.158
11
116.507
21
-107.162
0
LINE
8
BLACK
6
CONTINUOUS
10
115.698
20
-107.189
11
115.719
21
-107.245
0
LINE
8
BLACK
6
CONTINUOUS
10
115.719
20
-107.245
11
115.719
21
-107.838
0
LINE
8
BLACK
6
CONTINUOUS
10
115.719
20
-107.838
11
115.748
21
-107.927
0
LINE
8
BLACK
6
CONTINUOUS
10
115.748
20
-107.927
11
115.8
21
-107.978
0
LINE
8
BLACK
6
CONTINUOUS
10
115.8
20
-107.978
11
115.889
21
-108.008
0
LINE
8
BLACK
6
CONTINUOUS
10
115.889
20
-108.008
11
115.955
21
-108.008
0
LINE
8
BLACK
6
CONTINUOUS
10
115.955
20
-108.008
11
115.985
21
-108.013
0
LINE
8
BLACK
6
CONTINUOUS
10
115.985
20
-108.013
11
116.031
21
-108.051
0
LINE
8
BLACK
6
CONTINUOUS
10
116.031
20
-108.051
11
116.041
21
-108.11
0
LINE
8
BLACK
6
CONTINUOUS
10
116.041
20
-108.11
11
116.012
21
-108.162
0
LINE
8
BLACK
6
CONTINUOUS
10
116.012
20
-108.162
11
115.955
21
-108.183
0
LINE
8
BLACK
6
CONTINUOUS
10
115.955
20
-108.183
11
115.874
21
-108.183
0
LINE
8
BLACK
6
CONTINUOUS
10
115.874
20
-108.183
11
115.849
21
-108.178
0
LINE
8
BLACK
6
CONTINUOUS
10
115.849
20
-108.178
11
115.847
21
-108.178
0
LINE
8
BLACK
6
CONTINUOUS
10
115.847
20
-108.178
11
115.725
21
-108.138
0
LINE
8
BLACK
6
CONTINUOUS
10
115.725
20
-108.138
11
115.698
21
-108.123
0
LINE
8
BLACK
6
CONTINUOUS
10
115.698
20
-108.123
11
115.696
21
-108.119
0
LINE
8
BLACK
6
CONTINUOUS
10
115.696
20
-108.119
11
115.691
21
-108.117
0
LINE
8
BLACK
6
CONTINUOUS
10
115.691
20
-108.117
11
115.61
21
-108.036
0
LINE
8
BLACK
6
CONTINUOUS
10
115.61
20
-108.036
11
115.593
21
-108.011
0
LINE
8
BLACK
6
CONTINUOUS
10
115.593
20
-108.011
11
115.592
21
-108.006
0
LINE
8
BLACK
6
CONTINUOUS
10
115.592
20
-108.006
11
115.589
21
-108.001
0
LINE
8
BLACK
6
CONTINUOUS
10
115.589
20
-108.001
11
115.548
21
-107.88
0
LINE
8
BLACK
6
CONTINUOUS
10
115.548
20
-107.88
11
115.545
21
-107.854
0
LINE
8
BLACK
6
CONTINUOUS
10
115.545
20
-107.854
11
115.544
21
-107.852
0
LINE
8
BLACK
6
CONTINUOUS
10
115.544
20
-107.852
11
115.544
21
-107.245
0
LINE
8
BLACK
6
CONTINUOUS
10
115.544
20
-107.245
11
115.549
21
-107.215
0
LINE
8
BLACK
6
CONTINUOUS
10
115.549
20
-107.215
11
115.588
21
-107.169
0
LINE
8
BLACK
6
CONTINUOUS
10
115.588
20
-107.169
11
115.647
21
-107.159
0
LINE
8
BLACK
6
CONTINUOUS
10
115.647
20
-107.159
11
115.698
21
-107.189
0
LINE
8
BLACK
6
CONTINUOUS
10
115.294
20
-107.189
11
115.314
21
-107.245
0
LINE
8
BLACK
6
CONTINUOUS
10
115.314
20
-107.245
11
115.314
21
-108.095
0
LINE
8
BLACK
6
CONTINUOUS
10
115.314
20
-108.095
11
115.312
21
-108.107
0
LINE
8
BLACK
6
CONTINUOUS
10
115.312
20
-108.107
11
115.313
21
-108.11
0
LINE
8
BLACK
6
CONTINUOUS
10
115.313
20
-108.11
11
115.311
21
-108.114
0
LINE
8
BLACK
6
CONTINUOUS
10
115.311
20
-108.114
11
115.309
21
-108.125
0
LINE
8
BLACK
6
CONTINUOUS
10
115.309
20
-108.125
11
115.294
21
-108.143
0
LINE
8
BLACK
6
CONTINUOUS
10
115.294
20
-108.143
11
115.283
21
-108.162
0
LINE
8
BLACK
6
CONTINUOUS
10
115.283
20
-108.162
11
115.276
21
-108.165
0
LINE
8
BLACK
6
CONTINUOUS
10
115.276
20
-108.165
11
115.27
21
-108.171
0
LINE
8
BLACK
6
CONTINUOUS
10
115.27
20
-108.171
11
115.248
21
-108.175
0
LINE
8
BLACK
6
CONTINUOUS
10
115.248
20
-108.175
11
115.227
21
-108.183
0
LINE
8
BLACK
6
CONTINUOUS
10
115.227
20
-108.183
11
114.822
21
-108.183
0
LINE
8
BLACK
6
CONTINUOUS
10
114.822
20
-108.183
11
114.792
21
-108.177
0
LINE
8
BLACK
6
CONTINUOUS
10
114.792
20
-108.177
11
114.746
21
-108.139
0
LINE
8
BLACK
6
CONTINUOUS
10
114.746
20
-108.139
11
114.736
21
-108.08
0
LINE
8
BLACK
6
CONTINUOUS
10
114.736
20
-108.08
11
114.766
21
-108.028
0
LINE
8
BLACK
6
CONTINUOUS
10
114.766
20
-108.028
11
114.822
21
-108.008
0
LINE
8
BLACK
6
CONTINUOUS
10
114.822
20
-108.008
11
115.139
21
-108.008
0
LINE
8
BLACK
6
CONTINUOUS
10
115.139
20
-108.008
11
115.139
21
-107.245
0
LINE
8
BLACK
6
CONTINUOUS
10
115.139
20
-107.245
11
115.144
21
-107.215
0
LINE
8
BLACK
6
CONTINUOUS
10
115.144
20
-107.215
11
115.183
21
-107.169
0
LINE
8
BLACK
6
CONTINUOUS
10
115.183
20
-107.169
11
115.242
21
-107.159
0
LINE
8
BLACK
6
CONTINUOUS
10
115.242
20
-107.159
11
115.294
21
-107.189
0
LINE
8
BLACK
6
CONTINUOUS
10
114.321
20
-107.162
11
114.323
21
-107.162
0
LINE
8
BLACK
6
CONTINUOUS
10
114.323
20
-107.162
11
114.445
21
-107.203
0
LINE
8
BLACK
6
CONTINUOUS
10
114.445
20
-107.203
11
114.472
21
-107.217
0
LINE
8
BLACK
6
CONTINUOUS
10
114.472
20
-107.217
11
114.474
21
-107.222
0
LINE
8
BLACK
6
CONTINUOUS
10
114.474
20
-107.222
11
114.479
21
-107.224
0
LINE
8
BLACK
6
CONTINUOUS
10
114.479
20
-107.224
11
114.56
21
-107.305
0
LINE
8
BLACK
6
CONTINUOUS
10
114.56
20
-107.305
11
114.575
21
-107.326
0
LINE
8
BLACK
6
CONTINUOUS
10
114.575
20
-107.326
11
114.576
21
-107.328
0
LINE
8
BLACK
6
CONTINUOUS
10
114.576
20
-107.328
11
114.617
21
-107.408
0
LINE
8
BLACK
6
CONTINUOUS
10
114.617
20
-107.408
11
114.621
21
-107.423
0
LINE
8
BLACK
6
CONTINUOUS
10
114.621
20
-107.423
11
114.623
21
-107.426
0
LINE
8
BLACK
6
CONTINUOUS
10
114.623
20
-107.426
11
114.664
21
-107.588
0
LINE
8
BLACK
6
CONTINUOUS
10
114.664
20
-107.588
11
114.665
21
-107.606
0
LINE
8
BLACK
6
CONTINUOUS
10
114.665
20
-107.606
11
114.667
21
-107.61
0
LINE
8
BLACK
6
CONTINUOUS
10
114.667
20
-107.61
11
114.667
21
-107.731
0
LINE
8
BLACK
6
CONTINUOUS
10
114.667
20
-107.731
11
114.664
21
-107.748
0
LINE
8
BLACK
6
CONTINUOUS
10
114.664
20
-107.748
11
114.664
21
-107.752
0
LINE
8
BLACK
6
CONTINUOUS
10
114.664
20
-107.752
11
114.623
21
-107.914
0
LINE
8
BLACK
6
CONTINUOUS
10
114.623
20
-107.914
11
114.617
21
-107.928
0
LINE
8
BLACK
6
CONTINUOUS
10
114.617
20
-107.928
11
114.617
21
-107.932
0
LINE
8
BLACK
6
CONTINUOUS
10
114.617
20
-107.932
11
114.576
21
-108.013
0
LINE
8
BLACK
6
CONTINUOUS
10
114.576
20
-108.013
11
114.561
21
-108.034
0
LINE
8
BLACK
6
CONTINUOUS
10
114.561
20
-108.034
11
114.56
21
-108.036
0
LINE
8
BLACK
6
CONTINUOUS
10
114.56
20
-108.036
11
114.479
21
-108.117
0
LINE
8
BLACK
6
CONTINUOUS
10
114.479
20
-108.117
11
114.454
21
-108.134
0
LINE
8
BLACK
6
CONTINUOUS
10
114.454
20
-108.134
11
114.449
21
-108.135
0
LINE
8
BLACK
6
CONTINUOUS
10
114.449
20
-108.135
11
114.445
21
-108.138
0
LINE
8
BLACK
6
CONTINUOUS
10
114.445
20
-108.138
11
114.323
21
-108.178
0
LINE
8
BLACK
6
CONTINUOUS
10
114.323
20
-108.178
11
114.298
21
-108.182
0
LINE
8
BLACK
6
CONTINUOUS
10
114.298
20
-108.182
11
114.296
21
-108.183
0
LINE
8
BLACK
6
CONTINUOUS
10
114.296
20
-108.183
11
114.215
21
-108.183
0
LINE
8
BLACK
6
CONTINUOUS
10
114.215
20
-108.183
11
114.189
21
-108.178
0
LINE
8
BLACK
6
CONTINUOUS
10
114.189
20
-108.178
11
114.187
21
-108.178
0
LINE
8
BLACK
6
CONTINUOUS
10
114.187
20
-108.178
11
114.066
21
-108.138
0
LINE
8
BLACK
6
CONTINUOUS
10
114.066
20
-108.138
11
114.039
21
-108.123
0
LINE
8
BLACK
6
CONTINUOUS
10
114.039
20
-108.123
11
114.036
21
-108.119
0
LINE
8
BLACK
6
CONTINUOUS
10
114.036
20
-108.119
11
114.031
21
-108.117
0
LINE
8
BLACK
6
CONTINUOUS
10
114.031
20
-108.117
11
113.991
21
-108.076
0
LINE
8
BLACK
6
CONTINUOUS
10
113.991
20
-108.076
11
113.974
21
-108.051
0
LINE
8
BLACK
6
CONTINUOUS
10
113.974
20
-108.051
11
113.968
21
-107.992
0
LINE
8
BLACK
6
CONTINUOUS
10
113.968
20
-107.992
11
114.003
21
-107.943
0
LINE
8
BLACK
6
CONTINUOUS
10
114.003
20
-107.943
11
114.061
21
-107.927
0
LINE
8
BLACK
6
CONTINUOUS
10
114.061
20
-107.927
11
114.115
21
-107.952
0
LINE
8
BLACK
6
CONTINUOUS
10
114.115
20
-107.952
11
114.141
21
-107.978
0
LINE
8
BLACK
6
CONTINUOUS
10
114.141
20
-107.978
11
114.229
21
-108.008
0
LINE
8
BLACK
6
CONTINUOUS
10
114.229
20
-108.008
11
114.282
21
-108.008
0
LINE
8
BLACK
6
CONTINUOUS
10
114.282
20
-108.008
11
114.37
21
-107.978
0
LINE
8
BLACK
6
CONTINUOUS
10
114.37
20
-107.978
11
114.426
21
-107.922
0
LINE
8
BLACK
6
CONTINUOUS
10
114.426
20
-107.922
11
114.456
21
-107.862
0
LINE
8
BLACK
6
CONTINUOUS
10
114.456
20
-107.862
11
114.492
21
-107.72
0
LINE
8
BLACK
6
CONTINUOUS
10
114.492
20
-107.72
11
114.492
21
-107.62
0
LINE
8
BLACK
6
CONTINUOUS
10
114.492
20
-107.62
11
114.456
21
-107.478
0
LINE
8
BLACK
6
CONTINUOUS
10
114.456
20
-107.478
11
114.426
21
-107.418
0
LINE
8
BLACK
6
CONTINUOUS
10
114.426
20
-107.418
11
114.37
21
-107.362
0
LINE
8
BLACK
6
CONTINUOUS
10
114.37
20
-107.362
11
114.282
21
-107.333
0
LINE
8
BLACK
6
CONTINUOUS
10
114.282
20
-107.333
11
114.229
21
-107.333
0
LINE
8
BLACK
6
CONTINUOUS
10
114.229
20
-107.333
11
114.141
21
-107.362
0
LINE
8
BLACK
6
CONTINUOUS
10
114.141
20
-107.362
11
114.115
21
-107.388
0
LINE
8
BLACK
6
CONTINUOUS
10
114.115
20
-107.388
11
114.09
21
-107.405
0
LINE
8
BLACK
6
CONTINUOUS
10
114.09
20
-107.405
11
114.03
21
-107.411
0
LINE
8
BLACK
6
CONTINUOUS
10
114.03
20
-107.411
11
113.981
21
-107.376
0
LINE
8
BLACK
6
CONTINUOUS
10
113.981
20
-107.376
11
113.966
21
-107.319
0
LINE
8
BLACK
6
CONTINUOUS
10
113.966
20
-107.319
11
113.991
21
-107.264
0
LINE
8
BLACK
6
CONTINUOUS
10
113.991
20
-107.264
11
114.031
21
-107.224
0
LINE
8
BLACK
6
CONTINUOUS
10
114.031
20
-107.224
11
114.056
21
-107.206
0
LINE
8
BLACK
6
CONTINUOUS
10
114.056
20
-107.206
11
114.062
21
-107.206
0
LINE
8
BLACK
6
CONTINUOUS
10
114.062
20
-107.206
11
114.066
21
-107.203
0
LINE
8
BLACK
6
CONTINUOUS
10
114.066
20
-107.203
11
114.187
21
-107.162
0
LINE
8
BLACK
6
CONTINUOUS
10
114.187
20
-107.162
11
114.213
21
-107.158
0
LINE
8
BLACK
6
CONTINUOUS
10
114.213
20
-107.158
11
114.215
21
-107.158
0
LINE
8
BLACK
6
CONTINUOUS
10
114.215
20
-107.158
11
114.296
21
-107.158
0
LINE
8
BLACK
6
CONTINUOUS
10
114.296
20
-107.158
11
114.321
21
-107.162
0
LINE
8
BLACK
6
CONTINUOUS
10
113.513
20
-107.189
11
113.533
21
-107.245
0
LINE
8
BLACK
6
CONTINUOUS
10
113.533
20
-107.245
11
113.533
21
-107.838
0
LINE
8
BLACK
6
CONTINUOUS
10
113.533
20
-107.838
11
113.563
21
-107.927
0
LINE
8
BLACK
6
CONTINUOUS
10
113.563
20
-107.927
11
113.614
21
-107.978
0
LINE
8
BLACK
6
CONTINUOUS
10
113.614
20
-107.978
11
113.703
21
-108.008
0
LINE
8
BLACK
6
CONTINUOUS
10
113.703
20
-108.008
11
113.77
21
-108.008
0
LINE
8
BLACK
6
CONTINUOUS
10
113.77
20
-108.008
11
113.799
21
-108.013
0
LINE
8
BLACK
6
CONTINUOUS
10
113.799
20
-108.013
11
113.845
21
-108.051
0
LINE
8
BLACK
6
CONTINUOUS
10
113.845
20
-108.051
11
113.856
21
-108.11
0
LINE
8
BLACK
6
CONTINUOUS
10
113.856
20
-108.11
11
113.826
21
-108.162
0
LINE
8
BLACK
6
CONTINUOUS
10
113.826
20
-108.162
11
113.77
21
-108.183
0
LINE
8
BLACK
6
CONTINUOUS
10
113.77
20
-108.183
11
113.689
21
-108.183
0
LINE
8
BLACK
6
CONTINUOUS
10
113.689
20
-108.183
11
113.663
21
-108.178
0
LINE
8
BLACK
6
CONTINUOUS
10
113.663
20
-108.178
11
113.661
21
-108.178
0
LINE
8
BLACK
6
CONTINUOUS
10
113.661
20
-108.178
11
113.539
21
-108.138
0
LINE
8
BLACK
6
CONTINUOUS
10
113.539
20
-108.138
11
113.513
21
-108.123
0
LINE
8
BLACK
6
CONTINUOUS
10
113.513
20
-108.123
11
113.51
21
-108.119
0
LINE
8
BLACK
6
CONTINUOUS
10
113.51
20
-108.119
11
113.505
21
-108.117
0
LINE
8
BLACK
6
CONTINUOUS
10
113.505
20
-108.117
11
113.424
21
-108.036
0
LINE
8
BLACK
6
CONTINUOUS
10
113.424
20
-108.036
11
113.407
21
-108.011
0
LINE
8
BLACK
6
CONTINUOUS
10
113.407
20
-108.011
11
113.406
21
-108.006
0
LINE
8
BLACK
6
CONTINUOUS
10
113.406
20
-108.006
11
113.403
21
-108.001
0
LINE
8
BLACK
6
CONTINUOUS
10
113.403
20
-108.001
11
113.363
21
-107.88
0
LINE
8
BLACK
6
CONTINUOUS
10
113.363
20
-107.88
11
113.359
21
-107.854
0
LINE
8
BLACK
6
CONTINUOUS
10
113.359
20
-107.854
11
113.358
21
-107.852
0
LINE
8
BLACK
6
CONTINUOUS
10
113.358
20
-107.852
11
113.358
21
-107.245
0
LINE
8
BLACK
6
CONTINUOUS
10
113.358
20
-107.245
11
113.364
21
-107.215
0
LINE
8
BLACK
6
CONTINUOUS
10
113.364
20
-107.215
11
113.402
21
-107.169
0
LINE
8
BLACK
6
CONTINUOUS
10
113.402
20
-107.169
11
113.461
21
-107.159
0
LINE
8
BLACK
6
CONTINUOUS
10
113.461
20
-107.159
11
113.513
21
-107.189
0
LINE
8
BLACK
6
CONTINUOUS
10
113.108
20
-107.189
11
113.128
21
-107.245
0
LINE
8
BLACK
6
CONTINUOUS
10
113.128
20
-107.245
11
113.128
21
-108.095
0
LINE
8
BLACK
6
CONTINUOUS
10
113.128
20
-108.095
11
113.126
21
-108.107
0
LINE
8
BLACK
6
CONTINUOUS
10
113.126
20
-108.107
11
113.127
21
-108.11
0
LINE
8
BLACK
6
CONTINUOUS
10
113.127
20
-108.11
11
113.125
21
-108.114
0
LINE
8
BLACK
6
CONTINUOUS
10
113.125
20
-108.114
11
113.123
21
-108.125
0
LINE
8
BLACK
6
CONTINUOUS
10
113.123
20
-108.125
11
113.109
21
-108.143
0
LINE
8
BLACK
6
CONTINUOUS
10
113.109
20
-108.143
11
113.097
21
-108.162
0
LINE
8
BLACK
6
CONTINUOUS
10
113.097
20
-108.162
11
113.09
21
-108.165
0
LINE
8
BLACK
6
CONTINUOUS
10
113.09
20
-108.165
11
113.085
21
-108.171
0
LINE
8
BLACK
6
CONTINUOUS
10
113.085
20
-108.171
11
113.062
21
-108.175
0
LINE
8
BLACK
6
CONTINUOUS
10
113.062
20
-108.175
11
113.041
21
-108.183
0
LINE
8
BLACK
6
CONTINUOUS
10
113.041
20
-108.183
11
112.636
21
-108.183
0
LINE
8
BLACK
6
CONTINUOUS
10
112.636
20
-108.183
11
112.606
21
-108.177
0
LINE
8
BLACK
6
CONTINUOUS
10
112.606
20
-108.177
11
112.56
21
-108.139
0
LINE
8
BLACK
6
CONTINUOUS
10
112.56
20
-108.139
11
112.55
21
-108.08
0
LINE
8
BLACK
6
CONTINUOUS
10
112.55
20
-108.08
11
112.58
21
-108.028
0
LINE
8
BLACK
6
CONTINUOUS
10
112.58
20
-108.028
11
112.636
21
-108.008
0
LINE
8
BLACK
6
CONTINUOUS
10
112.636
20
-108.008
11
112.953
21
-108.008
0
LINE
8
BLACK
6
CONTINUOUS
10
112.953
20
-108.008
11
112.953
21
-107.245
0
LINE
8
BLACK
6
CONTINUOUS
10
112.953
20
-107.245
11
112.959
21
-107.215
0
LINE
8
BLACK
6
CONTINUOUS
10
112.959
20
-107.215
11
112.997
21
-107.169
0
LINE
8
BLACK
6
CONTINUOUS
10
112.997
20
-107.169
11
113.056
21
-107.159
0
LINE
8
BLACK
6
CONTINUOUS
10
113.056
20
-107.159
11
113.108
21
-107.189
0
LINE
8
BLACK
6
CONTINUOUS
10
112.136
20
-107.162
11
112.138
21
-107.162
0
LINE
8
BLACK
6
CONTINUOUS
10
112.138
20
-107.162
11
112.259
21
-107.203
0
LINE
8
BLACK
6
CONTINUOUS
10
112.259
20
-107.203
11
112.286
21
-107.217
0
LINE
8
BLACK
6
CONTINUOUS
10
112.286
20
-107.217
11
112.289
21
-107.222
0
LINE
8
BLACK
6
CONTINUOUS
10
112.289
20
-107.222
11
112.293
21
-107.224
0
LINE
8
BLACK
6
CONTINUOUS
10
112.293
20
-107.224
11
112.374
21
-107.305
0
LINE
8
BLACK
6
CONTINUOUS
10
112.374
20
-107.305
11
112.389
21
-107.326
0
LINE
8
BLACK
6
CONTINUOUS
10
112.389
20
-107.326
11
112.391
21
-107.328
0
LINE
8
BLACK
6
CONTINUOUS
10
112.391
20
-107.328
11
112.431
21
-107.408
0
LINE
8
BLACK
6
CONTINUOUS
10
112.431
20
-107.408
11
112.435
21
-107.423
0
LINE
8
BLACK
6
CONTINUOUS
10
112.435
20
-107.423
11
112.438
21
-107.426
0
LINE
8
BLACK
6
CONTINUOUS
10
112.438
20
-107.426
11
112.478
21
-107.588
0
LINE
8
BLACK
6
CONTINUOUS
10
112.478
20
-107.588
11
112.479
21
-107.606
0
LINE
8
BLACK
6
CONTINUOUS
10
112.479
20
-107.606
11
112.481
21
-107.61
0
LINE
8
BLACK
6
CONTINUOUS
10
112.481
20
-107.61
11
112.481
21
-107.731
0
LINE
8
BLACK
6
CONTINUOUS
10
112.481
20
-107.731
11
112.478
21
-107.748
0
LINE
8
BLACK
6
CONTINUOUS
10
112.478
20
-107.748
11
112.478
21
-107.752
0
LINE
8
BLACK
6
CONTINUOUS
10
112.478
20
-107.752
11
112.438
21
-107.914
0
LINE
8
BLACK
6
CONTINUOUS
10
112.438
20
-107.914
11
112.432
21
-107.928
0
LINE
8
BLACK
6
CONTINUOUS
10
112.432
20
-107.928
11
112.431
21
-107.932
0
LINE
8
BLACK
6
CONTINUOUS
10
112.431
20
-107.932
11
112.391
21
-108.013
0
LINE
8
BLACK
6
CONTINUOUS
10
112.391
20
-108.013
11
112.375
21
-108.034
0
LINE
8
BLACK
6
CONTINUOUS
10
112.375
20
-108.034
11
112.374
21
-108.036
0
LINE
8
BLACK
6
CONTINUOUS
10
112.374
20
-108.036
11
112.293
21
-108.117
0
LINE
8
BLACK
6
CONTINUOUS
10
112.293
20
-108.117
11
112.268
21
-108.134
0
LINE
8
BLACK
6
CONTINUOUS
10
112.268
20
-108.134
11
112.263
21
-108.135
0
LINE
8
BLACK
6
CONTINUOUS
10
112.263
20
-108.135
11
112.259
21
-108.138
0
LINE
8
BLACK
6
CONTINUOUS
10
112.259
20
-108.138
11
112.138
21
-108.178
0
LINE
8
BLACK
6
CONTINUOUS
10
112.138
20
-108.178
11
112.112
21
-108.182
0
LINE
8
BLACK
6
CONTINUOUS
10
112.112
20
-108.182
11
112.11
21
-108.183
0
LINE
8
BLACK
6
CONTINUOUS
10
112.11
20
-108.183
11
112.029
21
-108.183
0
LINE
8
BLACK
6
CONTINUOUS
10
112.029
20
-108.183
11
112.003
21
-108.178
0
LINE
8
BLACK
6
CONTINUOUS
10
112.003
20
-108.178
11
112.001
21
-108.178
0
LINE
8
BLACK
6
CONTINUOUS
10
112.001
20
-108.178
11
111.88
21
-108.138
0
LINE
8
BLACK
6
CONTINUOUS
10
111.88
20
-108.138
11
111.853
21
-108.123
0
LINE
8
BLACK
6
CONTINUOUS
10
111.853
20
-108.123
11
111.851
21
-108.119
0
LINE
8
BLACK
6
CONTINUOUS
10
111.851
20
-108.119
11
111.846
21
-108.117
0
LINE
8
BLACK
6
CONTINUOUS
10
111.846
20
-108.117
11
111.805
21
-108.076
0
LINE
8
BLACK
6
CONTINUOUS
10
111.805
20
-108.076
11
111.788
21
-108.051
0
LINE
8
BLACK
6
CONTINUOUS
10
111.788
20
-108.051
11
111.783
21
-107.992
0
LINE
8
BLACK
6
CONTINUOUS
10
111.783
20
-107.992
11
111.817
21
-107.943
0
LINE
8
BLACK
6
CONTINUOUS
10
111.817
20
-107.943
11
111.875
21
-107.927
0
LINE
8
BLACK
6
CONTINUOUS
10
111.875
20
-107.927
11
111.929
21
-107.952
0
LINE
8
BLACK
6
CONTINUOUS
10
111.929
20
-107.952
11
111.955
21
-107.978
0
LINE
8
BLACK
6
CONTINUOUS
10
111.955
20
-107.978
11
112.043
21
-108.008
0
LINE
8
BLACK
6
CONTINUOUS
10
112.043
20
-108.008
11
112.096
21
-108.008
0
LINE
8
BLACK
6
CONTINUOUS
10
112.096
20
-108.008
11
112.184
21
-107.978
0
LINE
8
BLACK
6
CONTINUOUS
10
112.184
20
-107.978
11
112.24
21
-107.922
0
LINE
8
BLACK
6
CONTINUOUS
10
112.24
20
-107.922
11
112.27
21
-107.862
0
LINE
8
BLACK
6
CONTINUOUS
10
112.27
20
-107.862
11
112.306
21
-107.72
0
LINE
8
BLACK
6
CONTINUOUS
10
112.306
20
-107.72
11
112.306
21
-107.62
0
LINE
8
BLACK
6
CONTINUOUS
10
112.306
20
-107.62
11
112.27
21
-107.478
0
LINE
8
BLACK
6
CONTINUOUS
10
112.27
20
-107.478
11
112.24
21
-107.418
0
LINE
8
BLACK
6
CONTINUOUS
10
112.24
20
-107.418
11
112.184
21
-107.362
0
LINE
8
BLACK
6
CONTINUOUS
10
112.184
20
-107.362
11
112.096
21
-107.333
0
LINE
8
BLACK
6
CONTINUOUS
10
112.096
20
-107.333
11
112.043
21
-107.333
0
LINE
8
BLACK
6
CONTINUOUS
10
112.043
20
-107.333
11
111.955
21
-107.362
0
LINE
8
BLACK
6
CONTINUOUS
10
111.955
20
-107.362
11
111.929
21
-107.388
0
LINE
8
BLACK
6
CONTINUOUS
10
111.929
20
-107.388
11
111.904
21
-107.405
0
LINE
8
BLACK
6
CONTINUOUS
10
111.904
20
-107.405
11
111.845
21
-107.411
0
LINE
8
BLACK
6
CONTINUOUS
10
111.845
20
-107.411
11
111.795
21
-107.376
0
LINE
8
BLACK
6
CONTINUOUS
10
111.795
20
-107.376
11
111.78
21
-107.319
0
LINE
8
BLACK
6
CONTINUOUS
10
111.78
20
-107.319
11
111.805
21
-107.264
0
LINE
8
BLACK
6
CONTINUOUS
10
111.805
20
-107.264
11
111.846
21
-107.224
0
LINE
8
BLACK
6
CONTINUOUS
10
111.846
20
-107.224
11
111.871
21
-107.206
0
LINE
8
BLACK
6
CONTINUOUS
10
111.871
20
-107.206
11
111.876
21
-107.206
0
LINE
8
BLACK
6
CONTINUOUS
10
111.876
20
-107.206
11
111.88
21
-107.203
0
LINE
8
BLACK
6
CONTINUOUS
10
111.88
20
-107.203
11
112.001
21
-107.162
0
LINE
8
BLACK
6
CONTINUOUS
10
112.001
20
-107.162
11
112.027
21
-107.158
0
LINE
8
BLACK
6
CONTINUOUS
10
112.027
20
-107.158
11
112.029
21
-107.158
0
LINE
8
BLACK
6
CONTINUOUS
10
112.029
20
-107.158
11
112.11
21
-107.158
0
LINE
8
BLACK
6
CONTINUOUS
10
112.11
20
-107.158
11
112.136
21
-107.162
0
LINE
8
BLACK
6
CONTINUOUS
10
111.327
20
-107.189
11
111.348
21
-107.245
0
LINE
8
BLACK
6
CONTINUOUS
10
111.348
20
-107.245
11
111.348
21
-107.838
0
LINE
8
BLACK
6
CONTINUOUS
10
111.348
20
-107.838
11
111.377
21
-107.927
0
LINE
8
BLACK
6
CONTINUOUS
10
111.377
20
-107.927
11
111.429
21
-107.978
0
LINE
8
BLACK
6
CONTINUOUS
10
111.429
20
-107.978
11
111.517
21
-108.008
0
LINE
8
BLACK
6
CONTINUOUS
10
111.517
20
-108.008
11
111.584
21
-108.008
0
LINE
8
BLACK
6
CONTINUOUS
10
111.584
20
-108.008
11
111.614
21
-108.013
0
LINE
8
BLACK
6
CONTINUOUS
10
111.614
20
-108.013
11
111.66
21
-108.051
0
LINE
8
BLACK
6
CONTINUOUS
10
111.66
20
-108.051
11
111.67
21
-108.11
0
LINE
8
BLACK
6
CONTINUOUS
10
111.67
20
-108.11
11
111.64
21
-108.162
0
LINE
8
BLACK
6
CONTINUOUS
10
111.64
20
-108.162
11
111.584
21
-108.183
0
LINE
8
BLACK
6
CONTINUOUS
10
111.584
20
-108.183
11
111.503
21
-108.183
0
LINE
8
BLACK
6
CONTINUOUS
10
111.503
20
-108.183
11
111.477
21
-108.178
0
LINE
8
BLACK
6
CONTINUOUS
10
111.477
20
-108.178
11
111.475
21
-108.178
0
LINE
8
BLACK
6
CONTINUOUS
10
111.475
20
-108.178
11
111.354
21
-108.138
0
LINE
8
BLACK
6
CONTINUOUS
10
111.354
20
-108.138
11
111.327
21
-108.123
0
LINE
8
BLACK
6
CONTINUOUS
10
111.327
20
-108.123
11
111.324
21
-108.119
0
LINE
8
BLACK
6
CONTINUOUS
10
111.324
20
-108.119
11
111.32
21
-108.117
0
LINE
8
BLACK
6
CONTINUOUS
10
111.32
20
-108.117
11
111.239
21
-108.036
0
LINE
8
BLACK
6
CONTINUOUS
10
111.239
20
-108.036
11
111.221
21
-108.011
0
LINE
8
BLACK
6
CONTINUOUS
10
111.221
20
-108.011
11
111.221
21
-108.006
0
LINE
8
BLACK
6
CONTINUOUS
10
111.221
20
-108.006
11
111.217
21
-108.001
0
LINE
8
BLACK
6
CONTINUOUS
10
111.217
20
-108.001
11
111.177
21
-107.88
0
LINE
8
BLACK
6
CONTINUOUS
10
111.177
20
-107.88
11
111.173
21
-107.854
0
LINE
8
BLACK
6
CONTINUOUS
10
111.173
20
-107.854
11
111.173
21
-107.852
0
LINE
8
BLACK
6
CONTINUOUS
10
111.173
20
-107.852
11
111.173
21
-107.245
0
LINE
8
BLACK
6
CONTINUOUS
10
111.173
20
-107.245
11
111.178
21
-107.215
0
LINE
8
BLACK
6
CONTINUOUS
10
111.178
20
-107.215
11
111.216
21
-107.169
0
LINE
8
BLACK
6
CONTINUOUS
10
111.216
20
-107.169
11
111.275
21
-107.159
0
LINE
8
BLACK
6
CONTINUOUS
10
111.275
20
-107.159
11
111.327
21
-107.189
0
LINE
8
BLACK
6
CONTINUOUS
10
110.922
20
-107.189
11
110.943
21
-107.245
0
LINE
8
BLACK
6
CONTINUOUS
10
110.943
20
-107.245
11
110.943
21
-108.095
0
LINE
8
BLACK
6
CONTINUOUS
10
110.943
20
-108.095
11
110.941
21
-108.107
0
LINE
8
BLACK
6
CONTINUOUS
10
110.941
20
-108.107
11
110.941
21
-108.11
0
LINE
8
BLACK
6
CONTINUOUS
10
110.941
20
-108.11
11
110.939
21
-108.114
0
LINE
8
BLACK
6
CONTINUOUS
10
110.939
20
-108.114
11
110.937
21
-108.125
0
LINE
8
BLACK
6
CONTINUOUS
10
110.937
20
-108.125
11
110.923
21
-108.143
0
LINE
8
BLACK
6
CONTINUOUS
10
110.923
20
-108.143
11
110.912
21
-108.162
0
LINE
8
BLACK
6
CONTINUOUS
10
110.912
20
-108.162
11
110.904
21
-108.165
0
LINE
8
BLACK
6
CONTINUOUS
10
110.904
20
-108.165
11
110.899
21
-108.171
0
LINE
8
BLACK
6
CONTINUOUS
10
110.899
20
-108.171
11
110.877
21
-108.175
0
LINE
8
BLACK
6
CONTINUOUS
10
110.877
20
-108.175
11
110.855
21
-108.183
0
LINE
8
BLACK
6
CONTINUOUS
10
110.855
20
-108.183
11
110.45
21
-108.183
0
LINE
8
BLACK
6
CONTINUOUS
10
110.45
20
-108.183
11
110.421
21
-108.177
0
LINE
8
BLACK
6
CONTINUOUS
10
110.421
20
-108.177
11
110.375
21
-108.139
0
LINE
8
BLACK
6
CONTINUOUS
10
110.375
20
-108.139
11
110.364
21
-108.08
0
LINE
8
BLACK
6
CONTINUOUS
10
110.364
20
-108.08
11
110.394
21
-108.028
0
LINE
8
BLACK
6
CONTINUOUS
10
110.394
20
-108.028
11
110.45
21
-108.008
0
LINE
8
BLACK
6
CONTINUOUS
10
110.45
20
-108.008
11
110.768
21
-108.008
0
LINE
8
BLACK
6
CONTINUOUS
10
110.768
20
-108.008
11
110.768
21
-107.245
0
LINE
8
BLACK
6
CONTINUOUS
10
110.768
20
-107.245
11
110.773
21
-107.215
0
LINE
8
BLACK
6
CONTINUOUS
10
110.773
20
-107.215
11
110.812
21
-107.169
0
LINE
8
BLACK
6
CONTINUOUS
10
110.812
20
-107.169
11
110.87
21
-107.159
0
LINE
8
BLACK
6
CONTINUOUS
10
110.87
20
-107.159
11
110.922
21
-107.189
0
LINE
8
BLACK
6
CONTINUOUS
10
109.95
20
-107.162
11
109.952
21
-107.162
0
LINE
8
BLACK
6
CONTINUOUS
10
109.952
20
-107.162
11
110.073
21
-107.203
0
LINE
8
BLACK
6
CONTINUOUS
10
110.073
20
-107.203
11
110.1
21
-107.217
0
LINE
8
BLACK
6
CONTINUOUS
10
110.1
20
-107.217
11
110.103
21
-107.222
0
LINE
8
BLACK
6
CONTINUOUS
10
110.103
20
-107.222
11
110.108
21
-107.224
0
LINE
8
BLACK
6
CONTINUOUS
10
110.108
20
-107.224
11
110.189
21
-107.305
0
LINE
8
BLACK
6
CONTINUOUS
10
110.189
20
-107.305
11
110.204
21
-107.326
0
LINE
8
BLACK
6
CONTINUOUS
10
110.204
20
-107.326
11
110.205
21
-107.328
0
LINE
8
BLACK
6
CONTINUOUS
10
110.205
20
-107.328
11
110.245
21
-107.408
0
LINE
8
BLACK
6
CONTINUOUS
10
110.245
20
-107.408
11
110.25
21
-107.423
0
LINE
8
BLACK
6
CONTINUOUS
10
110.25
20
-107.423
11
110.252
21
-107.426
0
LINE
8
BLACK
6
CONTINUOUS
10
110.252
20
-107.426
11
110.293
21
-107.588
0
LINE
8
BLACK
6
CONTINUOUS
10
110.293
20
-107.588
11
110.294
21
-107.606
0
LINE
8
BLACK
6
CONTINUOUS
10
110.294
20
-107.606
11
110.295
21
-107.61
0
LINE
8
BLACK
6
CONTINUOUS
10
110.295
20
-107.61
11
110.295
21
-107.731
0
LINE
8
BLACK
6
CONTINUOUS
10
110.295
20
-107.731
11
110.292
21
-107.748
0
LINE
8
BLACK
6
CONTINUOUS
10
110.292
20
-107.748
11
110.293
21
-107.752
0
LINE
8
BLACK
6
CONTINUOUS
10
110.293
20
-107.752
11
110.252
21
-107.914
0
LINE
8
BLACK
6
CONTINUOUS
10
110.252
20
-107.914
11
110.246
21
-107.928
0
LINE
8
BLACK
6
CONTINUOUS
10
110.246
20
-107.928
11
110.245
21
-107.932
0
LINE
8
BLACK
6
CONTINUOUS
10
110.245
20
-107.932
11
110.205
21
-108.013
0
LINE
8
BLACK
6
CONTINUOUS
10
110.205
20
-108.013
11
110.189
21
-108.034
0
LINE
8
BLACK
6
CONTINUOUS
10
110.189
20
-108.034
11
110.189
21
-108.036
0
LINE
8
BLACK
6
CONTINUOUS
10
110.189
20
-108.036
11
110.108
21
-108.117
0
LINE
8
BLACK
6
CONTINUOUS
10
110.108
20
-108.117
11
110.083
21
-108.134
0
LINE
8
BLACK
6
CONTINUOUS
10
110.083
20
-108.134
11
110.078
21
-108.135
0
LINE
8
BLACK
6
CONTINUOUS
10
110.078
20
-108.135
11
110.073
21
-108.138
0
LINE
8
BLACK
6
CONTINUOUS
10
110.073
20
-108.138
11
109.952
21
-108.178
0
LINE
8
BLACK
6
CONTINUOUS
10
109.952
20
-108.178
11
109.926
21
-108.182
0
LINE
8
BLACK
6
CONTINUOUS
10
109.926
20
-108.182
11
109.924
21
-108.183
0
LINE
8
BLACK
6
CONTINUOUS
10
109.924
20
-108.183
11
109.843
21
-108.183
0
LINE
8
BLACK
6
CONTINUOUS
10
109.843
20
-108.183
11
109.818
21
-108.178
0
LINE
8
BLACK
6
CONTINUOUS
10
109.818
20
-108.178
11
109.816
21
-108.178
0
LINE
8
BLACK
6
CONTINUOUS
10
109.816
20
-108.178
11
109.694
21
-108.138
0
LINE
8
BLACK
6
CONTINUOUS
10
109.694
20
-108.138
11
109.668
21
-108.123
0
LINE
8
BLACK
6
CONTINUOUS
10
109.668
20
-108.123
11
109.665
21
-108.119
0
LINE
8
BLACK
6
CONTINUOUS
10
109.665
20
-108.119
11
109.66
21
-108.117
0
LINE
8
BLACK
6
CONTINUOUS
10
109.66
20
-108.117
11
109.62
21
-108.076
0
LINE
8
BLACK
6
CONTINUOUS
10
109.62
20
-108.076
11
109.602
21
-108.051
0
LINE
8
BLACK
6
CONTINUOUS
10
109.602
20
-108.051
11
109.597
21
-107.992
0
LINE
8
BLACK
6
CONTINUOUS
10
109.597
20
-107.992
11
109.631
21
-107.943
0
LINE
8
BLACK
6
CONTINUOUS
10
109.631
20
-107.943
11
109.689
21
-107.927
0
LINE
8
BLACK
6
CONTINUOUS
10
109.689
20
-107.927
11
109.743
21
-107.952
0
LINE
8
BLACK
6
CONTINUOUS
10
109.743
20
-107.952
11
109.769
21
-107.978
0
LINE
8
BLACK
6
CONTINUOUS
10
109.769
20
-107.978
11
109.858
21
-108.008
0
LINE
8
BLACK
6
CONTINUOUS
10
109.858
20
-108.008
11
109.91
21
-108.008
0
LINE
8
BLACK
6
CONTINUOUS
10
109.91
20
-108.008
11
109.998
21
-107.978
0
LINE
8
BLACK
6
CONTINUOUS
10
109.998
20
-107.978
11
110.055
21
-107.922
0
LINE
8
BLACK
6
CONTINUOUS
10
110.055
20
-107.922
11
110.085
21
-107.862
0
LINE
8
BLACK
6
CONTINUOUS
10
110.085
20
-107.862
11
110.12
21
-107.72
0
LINE
8
BLACK
6
CONTINUOUS
10
110.12
20
-107.72
11
110.12
21
-107.62
0
LINE
8
BLACK
6
CONTINUOUS
10
110.12
20
-107.62
11
110.085
21
-107.478
0
LINE
8
BLACK
6
CONTINUOUS
10
110.085
20
-107.478
11
110.055
21
-107.418
0
LINE
8
BLACK
6
CONTINUOUS
10
110.055
20
-107.418
11
109.998
21
-107.362
0
LINE
8
BLACK
6
CONTINUOUS
10
109.998
20
-107.362
11
109.91
21
-107.333
0
LINE
8
BLACK
6
CONTINUOUS
10
109.91
20
-107.333
11
109.858
21
-107.333
0
LINE
8
BLACK
6
CONTINUOUS
10
109.858
20
-107.333
11
109.769
21
-107.362
0
LINE
8
BLACK
6
CONTINUOUS
10
109.769
20
-107.362
11
109.743
21
-107.388
0
LINE
8
BLACK
6
CONTINUOUS
10
109.743
20
-107.388
11
109.718
21
-107.405
0
LINE
8
BLACK
6
CONTINUOUS
10
109.718
20
-107.405
11
109.659
21
-107.411
0
LINE
8
BLACK
6
CONTINUOUS
10
109.659
20
-107.411
11
109.61
21
-107.376
0
LINE
8
BLACK
6
CONTINUOUS
10
109.61
20
-107.376
11
109.594
21
-107.319
0
LINE
8
BLACK
6
CONTINUOUS
10
109.594
20
-107.319
11
109.62
21
-107.264
0
LINE
8
BLACK
6
CONTINUOUS
10
109.62
20
-107.264
11
109.66
21
-107.224
0
LINE
8
BLACK
6
CONTINUOUS
10
109.66
20
-107.224
11
109.685
21
-107.206
0
LINE
8
BLACK
6
CONTINUOUS
10
109.685
20
-107.206
11
109.69
21
-107.206
0
LINE
8
BLACK
6
CONTINUOUS
10
109.69
20
-107.206
11
109.694
21
-107.203
0
LINE
8
BLACK
6
CONTINUOUS
10
109.694
20
-107.203
11
109.816
21
-107.162
0
LINE
8
BLACK
6
CONTINUOUS
10
109.816
20
-107.162
11
109.842
21
-107.158
0
LINE
8
BLACK
6
CONTINUOUS
10
109.842
20
-107.158
11
109.843
21
-107.158
0
LINE
8
BLACK
6
CONTINUOUS
10
109.843
20
-107.158
11
109.924
21
-107.158
0
LINE
8
BLACK
6
CONTINUOUS
10
109.924
20
-107.158
11
109.95
21
-107.162
  0
ENDSEC
  0
EOF
